{
.appVersion = "895";
copyright = "Copyright 2016 Google Inc. All Rights Reserved.";
customParameters = (
{
name = description;
value = "Designed by Monotype design team.";
},
{
name = license;
value = "This Font Software is licensed under the SIL Open Font License, Version 1.1. This Font Software is distributed on an \"AS IS\" BASIS, WITHOUT WARRANTIES OR CONDITIONS OF ANY KIND, either express or implied. See the SIL Open Font License for the specific language, permissions and limitations governing your use of this Font Software.";
},
{
name = licenseURL;
value = "http://scripts.sil.org/OFL";
},
{
name = vendorID;
value = GOOG;
},
{
name = trademark;
value = "Noto is a trademark of Google Inc.";
},
{
name = fsType;
value = (
);
},
{
name = panose;
value = (
2,
11,
5,
2,
4,
5,
4,
2,
2,
4
);
},
{
name = unicodeRanges;
value = (
113
);
},
{
name = codePageRanges;
value = (
1252
);
}
);
date = "2016-11-10 17:41:59 +0000";
designer = "Monotype Design Team";
designerURL = "http://www.monotype.com/studio";
familyName = "Noto Sans Lepcha";
features = (
{

glyphs = (
{
glyphname = uni1C00;
lastChange = "2016-11-10 17:41:46 +0000";
layers = (
{
layerId = "950E4965-652C-4E49-8BA2-A8792AD091D1";
paths = (
{
closed = 1;
nodes = (
"892 -14 OFFCURVE",
"986 -1 OFFCURVE",
"1063 25 CURVE",
"1063 188 LINE",
"985 164 OFFCURVE",
"890 152 OFFCURVE",
"778 152 CURVE SMOOTH",
"666 152 OFFCURVE",
"577 163 OFFCURVE",
"510 185 CURVE SMOOTH",
"377 228 OFFCURVE",
"315 329 OFFCURVE",
"315 512 CURVE SMOOTH",
"315 528 LINE",
"436 508 OFFCURVE",
"559 498 OFFCURVE",
"686 498 CURVE SMOOTH",
"875 498 OFFCURVE",
"1033 517 OFFCURVE",
"1161 555 CURVE",
"1161 719 LINE",
"1023 681 OFFCURVE",
"864 662 OFFCURVE",
"684 662 CURVE SMOOTH",
"549 662 OFFCURVE",
"431 670 OFFCURVE",
"332 686 CURVE",
"352 805 OFFCURVE",
"392 916 OFFCURVE",
"451 1020 CURVE",
"516 1011 OFFCURVE",
"591 1006 OFFCURVE",
"676 1006 CURVE SMOOTH",
"825 1006 OFFCURVE",
"947 1022 OFFCURVE",
"1044 1055 CURVE",
"1044 1214 LINE",
"939 1184 OFFCURVE",
"818 1169 OFFCURVE",
"680 1169 CURVE SMOOTH",
"551 1169 OFFCURVE",
"438 1181 OFFCURVE",
"340 1206 CURVE",
"195 930 OFFCURVE",
"143 739 OFFCURVE",
"143 504 CURVE SMOOTH",
"143 378 OFFCURVE",
"165 278 OFFCURVE",
"208 203 CURVE SMOOTH",
"294 53 OFFCURVE",
"475 -14 OFFCURVE",
"780 -14 CURVE SMOOTH"
);
}
);
width = 1233;
}
);
leftKerningGroup = uni1C00;
note = uni1C00;
unicode = 1C00;
},
{
glyphname = uni1C01;
lastChange = "2016-11-10 17:41:46 +0000";
layers = (
{
layerId = "950E4965-652C-4E49-8BA2-A8792AD091D1";
paths = (
{
closed = 1;
nodes = (
"815 0 LINE",
"897 101 OFFCURVE",
"938 214 OFFCURVE",
"938 338 CURVE SMOOTH",
"938 573 OFFCURVE",
"800 723 OFFCURVE",
"547 723 CURVE SMOOTH",
"439 723 OFFCURVE",
"341 693 OFFCURVE",
"254 633 CURVE",
"248 635 LINE",
"275 695 OFFCURVE",
"296 757 OFFCURVE",
"311 821 CURVE SMOOTH",
"362 1024 LINE",
"428 1012 OFFCURVE",
"500 1006 OFFCURVE",
"578 1006 CURVE SMOOTH",
"731 1006 OFFCURVE",
"856 1022 OFFCURVE",
"954 1055 CURVE",
"954 1214 LINE",
"847 1184 OFFCURVE",
"721 1169 OFFCURVE",
"578 1169 CURVE SMOOTH",
"457 1169 OFFCURVE",
"345 1184 OFFCURVE",
"240 1214 CURVE",
"72 545 LINE",
"238 446 LINE",
"336 524 OFFCURVE",
"438 563 OFFCURVE",
"543 563 CURVE SMOOTH",
"690 563 OFFCURVE",
"764 489 OFFCURVE",
"764 340 CURVE SMOOTH",
"764 220 OFFCURVE",
"713 107 OFFCURVE",
"612 0 CURVE"
);
}
);
width = 1108;
}
);
leftKerningGroup = uni1C01;
note = uni1C01;
unicode = 1C01;
},
{
glyphname = uni1C02;
lastChange = "2016-11-10 17:41:46 +0000";
layers = (
{
layerId = "950E4965-652C-4E49-8BA2-A8792AD091D1";
paths = (
{
closed = 1;
nodes = (
"762 -27 OFFCURVE",
"841 -8 OFFCURVE",
"910 30 CURVE SMOOTH",
"1046 105 OFFCURVE",
"1120 237 OFFCURVE",
"1120 393 CURVE SMOOTH",
"1120 502 OFFCURVE",
"1089 572 OFFCURVE",
"1026 692 CURVE SMOOTH",
"971 796 OFFCURVE",
"946 853 OFFCURVE",
"946 930 CURVE SMOOTH",
"946 1011 OFFCURVE",
"983 1051 OFFCURVE",
"1057 1051 CURVE SMOOTH",
"1106 1051 OFFCURVE",
"1145 1029 OFFCURVE",
"1202 969 CURVE",
"1315 1094 LINE",
"1238 1173 OFFCURVE",
"1167 1214 OFFCURVE",
"1063 1214 CURVE SMOOTH",
"886 1214 OFFCURVE",
"770 1103 OFFCURVE",
"770 928 CURVE SMOOTH",
"770 824 OFFCURVE",
"801 748 OFFCURVE",
"864 631 CURVE SMOOTH",
"919 535 OFFCURVE",
"946 473 OFFCURVE",
"946 393 CURVE SMOOTH",
"946 237 OFFCURVE",
"851 141 OFFCURVE",
"674 141 CURVE SMOOTH",
"437 141 OFFCURVE",
"307 269 OFFCURVE",
"307 520 CURVE SMOOTH",
"307 731 OFFCURVE",
"370 910 OFFCURVE",
"561 1194 CURVE",
"365 1194 LINE",
"204 941 OFFCURVE",
"137 739 OFFCURVE",
"137 520 CURVE SMOOTH",
"137 173 OFFCURVE",
"344 -27 OFFCURVE",
"672 -27 CURVE SMOOTH"
);
}
);
width = 1327;
}
);
leftKerningGroup = uni1C02;
note = uni1C02;
unicode = 1C02;
},
{
glyphname = uni1C03;
lastChange = "2016-11-10 17:41:46 +0000";
layers = (
{
layerId = "950E4965-652C-4E49-8BA2-A8792AD091D1";
paths = (
{
closed = 1;
nodes = (
"769 -25 OFFCURVE",
"890 63 OFFCURVE",
"950 240 CURVE",
"958 240 LINE",
"1019 63 OFFCURVE",
"1141 -25 OFFCURVE",
"1325 -25 CURVE SMOOTH",
"1596 -25 OFFCURVE",
"1767 167 OFFCURVE",
"1767 498 CURVE SMOOTH",
"1767 834 OFFCURVE",
"1596 1090 OFFCURVE",
"1255 1243 CURVE",
"1186 1085 LINE",
"1465 957 OFFCURVE",
"1591 778 OFFCURVE",
"1591 502 CURVE SMOOTH",
"1591 261 OFFCURVE",
"1498 141 OFFCURVE",
"1311 141 CURVE SMOOTH",
"1129 141 OFFCURVE",
"1039 313 OFFCURVE",
"1040 657 CURVE",
"868 657 LINE",
"869 472 OFFCURVE",
"847 339 OFFCURVE",
"800 260 CURVE SMOOTH",
"753 181 OFFCURVE",
"686 141 OFFCURVE",
"600 141 CURVE SMOOTH",
"411 141 OFFCURVE",
"317 261 OFFCURVE",
"317 502 CURVE SMOOTH",
"317 778 OFFCURVE",
"444 957 OFFCURVE",
"725 1085 CURVE",
"651 1243 LINE",
"312 1089 OFFCURVE",
"143 841 OFFCURVE",
"143 498 CURVE SMOOTH",
"143 167 OFFCURVE",
"315 -25 OFFCURVE",
"586 -25 CURVE SMOOTH"
);
}
);
width = 1911;
}
);
leftKerningGroup = uni1C13;
note = uni1C03;
rightKerningGroup = uni1C13;
unicode = 1C03;
},
{
glyphname = uni1C04;
lastChange = "2016-11-10 17:41:46 +0000";
layers = (
{
layerId = "950E4965-652C-4E49-8BA2-A8792AD091D1";
paths = (
{
closed = 1;
nodes = (
"769 -25 OFFCURVE",
"890 63 OFFCURVE",
"950 240 CURVE",
"958 240 LINE",
"1019 63 OFFCURVE",
"1141 -25 OFFCURVE",
"1325 -25 CURVE SMOOTH",
"1596 -25 OFFCURVE",
"1767 167 OFFCURVE",
"1767 498 CURVE SMOOTH",
"1767 531 OFFCURVE",
"1766 555 OFFCURVE",
"1765 571 CURVE",
"1855 571 LINE",
"1855 725 LINE",
"1739 725 LINE",
"1674 953 OFFCURVE",
"1513 1126 OFFCURVE",
"1255 1243 CURVE",
"1186 1085 LINE",
"1380 995 OFFCURVE",
"1503 875 OFFCURVE",
"1556 725 CURVE",
"352 725 LINE",
"405 875 OFFCURVE",
"530 995 OFFCURVE",
"725 1085 CURVE",
"651 1243 LINE",
"394 1126 OFFCURVE",
"235 953 OFFCURVE",
"172 725 CURVE",
"55 725 LINE",
"55 571 LINE",
"145 571 LINE",
"144 555 OFFCURVE",
"143 531 OFFCURVE",
"143 498 CURVE SMOOTH",
"143 167 OFFCURVE",
"315 -25 OFFCURVE",
"586 -25 CURVE SMOOTH"
);
},
{
closed = 1;
nodes = (
"411 141 OFFCURVE",
"317 261 OFFCURVE",
"317 502 CURVE SMOOTH",
"317 533 OFFCURVE",
"318 556 OFFCURVE",
"319 571 CURVE",
"866 571 LINE",
"855 284 OFFCURVE",
"767 141 OFFCURVE",
"600 141 CURVE SMOOTH"
);
},
{
closed = 1;
nodes = (
"1144 141 OFFCURVE",
"1055 284 OFFCURVE",
"1042 571 CURVE",
"1589 571 LINE",
"1590 556 OFFCURVE",
"1591 533 OFFCURVE",
"1591 502 CURVE SMOOTH",
"1591 261 OFFCURVE",
"1498 141 OFFCURVE",
"1311 141 CURVE SMOOTH"
);
}
);
width = 1911;
}
);
note = uni1C04;
unicode = 1C04;
},
{
glyphname = uni1C05;
lastChange = "2016-11-10 17:41:46 +0000";
layers = (
{
layerId = "950E4965-652C-4E49-8BA2-A8792AD091D1";
paths = (
{
closed = 1;
nodes = (
"651 0 LINE",
"528 148 OFFCURVE",
"475 284 OFFCURVE",
"475 461 CURVE SMOOTH",
"475 664 OFFCURVE",
"582 863 OFFCURVE",
"797 1057 CURVE",
"797 1214 LINE",
"667 1184 OFFCURVE",
"541 1169 OFFCURVE",
"418 1169 CURVE SMOOTH",
"275 1169 OFFCURVE",
"149 1184 OFFCURVE",
"41 1214 CURVE",
"41 1055 LINE",
"139 1022 OFFCURVE",
"265 1006 OFFCURVE",
"418 1006 CURVE SMOOTH",
"464 1006 OFFCURVE",
"504 1009 OFFCURVE",
"539 1014 CURVE",
"380 835 OFFCURVE",
"301 650 OFFCURVE",
"301 461 CURVE SMOOTH",
"301 280 OFFCURVE",
"352 127 OFFCURVE",
"455 0 CURVE"
);
}
);
width = 879;
}
);
leftKerningGroup = uni1C05;
note = uni1C05;
unicode = 1C05;
},
{
glyphname = uni1C06;
lastChange = "2016-11-10 17:41:46 +0000";
layers = (
{
layerId = "950E4965-652C-4E49-8BA2-A8792AD091D1";
paths = (
{
closed = 1;
nodes = (
"854 -29 OFFCURVE",
"934 0 OFFCURVE",
"1007 57 CURVE SMOOTH",
"1153 172 OFFCURVE",
"1243 375 OFFCURVE",
"1243 602 CURVE SMOOTH",
"1243 715 OFFCURVE",
"1222 820 OFFCURVE",
"1180 917 CURVE SMOOTH",
"1095 1109 OFFCURVE",
"940 1231 OFFCURVE",
"768 1231 CURVE SMOOTH",
"689 1231 OFFCURVE",
"615 1207 OFFCURVE",
"547 1159 CURVE SMOOTH",
"410 1063 OFFCURVE",
"316 889 OFFCURVE",
"297 686 CURVE",
"47 686 LINE",
"47 520 LINE",
"297 520 LINE",
"306 419 OFFCURVE",
"333 327 OFFCURVE",
"378 243 CURVE SMOOTH",
"466 75 OFFCURVE",
"609 -29 OFFCURVE",
"768 -29 CURVE SMOOTH"
);
},
{
closed = 1;
nodes = (
"716 139 OFFCURVE",
"667 160 OFFCURVE",
"620 203 CURVE SMOOTH",
"526 287 OFFCURVE",
"465 441 OFFCURVE",
"465 602 CURVE SMOOTH",
"465 683 OFFCURVE",
"479 759 OFFCURVE",
"507 831 CURVE SMOOTH",
"563 974 OFFCURVE",
"664 1065 OFFCURVE",
"768 1065 CURVE SMOOTH",
"820 1065 OFFCURVE",
"870 1044 OFFCURVE",
"917 1002 CURVE SMOOTH",
"1011 917 OFFCURVE",
"1071 763 OFFCURVE",
"1071 602 CURVE SMOOTH",
"1071 521 OFFCURVE",
"1057 445 OFFCURVE",
"1029 374 CURVE SMOOTH",
"973 230 OFFCURVE",
"872 139 OFFCURVE",
"768 139 CURVE SMOOTH"
);
}
);
width = 1386;
}
);
note = uni1C06;
rightKerningGroup = uni1C13;
unicode = 1C06;
},
{
glyphname = uni1C07;
lastChange = "2016-11-10 17:41:46 +0000";
layers = (
{
layerId = "950E4965-652C-4E49-8BA2-A8792AD091D1";
paths = (
{
closed = 1;
nodes = (
"404 31 OFFCURVE",
"549 51 OFFCURVE",
"713 51 CURVE SMOOTH",
"877 51 OFFCURVE",
"1019 31 OFFCURVE",
"1251 -37 CURVE",
"1368 145 LINE",
"1177 369 OFFCURVE",
"1044 542 OFFCURVE",
"969 663 CURVE SMOOTH",
"894 784 OFFCURVE",
"856 875 OFFCURVE",
"856 936 CURVE SMOOTH",
"856 1029 OFFCURVE",
"913 1075 OFFCURVE",
"1028 1075 CURVE SMOOTH",
"1110 1075 OFFCURVE",
"1193 1058 OFFCURVE",
"1276 1024 CURVE",
"1276 1196 LINE",
"1194 1226 OFFCURVE",
"1109 1241 OFFCURVE",
"1022 1241 CURVE SMOOTH",
"863 1241 OFFCURVE",
"759 1171 OFFCURVE",
"715 1059 CURVE",
"709 1059 LINE",
"665 1171 OFFCURVE",
"560 1241 OFFCURVE",
"401 1241 CURVE SMOOTH",
"315 1241 OFFCURVE",
"231 1226 OFFCURVE",
"150 1196 CURVE",
"150 1022 LINE",
"229 1057 OFFCURVE",
"310 1075 OFFCURVE",
"395 1075 CURVE SMOOTH",
"510 1075 OFFCURVE",
"567 1029 OFFCURVE",
"567 936 CURVE SMOOTH",
"567 875 OFFCURVE",
"530 784 OFFCURVE",
"455 663 CURVE SMOOTH",
"380 542 OFFCURVE",
"247 369 OFFCURVE",
"57 145 CURVE",
"172 -37 LINE"
);
},
{
closed = 1;
nodes = (
"260 152 LINE",
"514 453 OFFCURVE",
"664 681 OFFCURVE",
"709 834 CURVE",
"715 834 LINE",
"760 679 OFFCURVE",
"910 452 OFFCURVE",
"1165 152 CURVE",
"1165 143 LINE",
"1004 194 OFFCURVE",
"854 219 OFFCURVE",
"713 219 CURVE SMOOTH",
"567 219 OFFCURVE",
"416 194 OFFCURVE",
"260 143 CURVE"
);
}
);
width = 1423;
}
);
note = uni1C07;
unicode = 1C07;
},
{
glyphname = uni1C08;
lastChange = "2016-11-10 17:41:46 +0000";
layers = (
{
layerId = "950E4965-652C-4E49-8BA2-A8792AD091D1";
paths = (
{
closed = 1;
nodes = (
"420 0 LINE",
"351 180 OFFCURVE",
"317 357 OFFCURVE",
"317 530 CURVE SMOOTH",
"317 883 OFFCURVE",
"474 1055 OFFCURVE",
"705 1055 CURVE SMOOTH",
"730 1055 OFFCURVE",
"753 1053 OFFCURVE",
"774 1049 CURVE",
"774 1040 LINE",
"661 943 OFFCURVE",
"604 821 OFFCURVE",
"604 672 CURVE SMOOTH",
"604 443 OFFCURVE",
"738 287 OFFCURVE",
"975 287 CURVE SMOOTH",
"1212 287 OFFCURVE",
"1346 443 OFFCURVE",
"1346 672 CURVE SMOOTH",
"1346 817 OFFCURVE",
"1296 939 OFFCURVE",
"1196 1038 CURVE",
"1196 1047 LINE",
"1217 1052 OFFCURVE",
"1241 1055 OFFCURVE",
"1270 1055 CURVE SMOOTH",
"1335 1055 OFFCURVE",
"1392 1047 OFFCURVE",
"1440 1032 CURVE",
"1440 1198 LINE",
"1392 1213 OFFCURVE",
"1331 1221 OFFCURVE",
"1257 1221 CURVE SMOOTH",
"1156 1221 OFFCURVE",
"1066 1200 OFFCURVE",
"985 1157 CURVE",
"908 1200 OFFCURVE",
"817 1221 OFFCURVE",
"711 1221 CURVE SMOOTH",
"602 1221 OFFCURVE",
"504 1195 OFFCURVE",
"419 1143 CURVE SMOOTH",
"248 1039 OFFCURVE",
"143 830 OFFCURVE",
"143 526 CURVE SMOOTH",
"143 338 OFFCURVE",
"174 163 OFFCURVE",
"236 0 CURVE"
);
},
{
closed = 1;
nodes = (
"847 453 OFFCURVE",
"776 535 OFFCURVE",
"776 670 CURVE SMOOTH",
"776 824 OFFCURVE",
"844 933 OFFCURVE",
"979 997 CURVE",
"1109 933 OFFCURVE",
"1174 824 OFFCURVE",
"1174 670 CURVE SMOOTH",
"1174 535 OFFCURVE",
"1103 453 OFFCURVE",
"975 453 CURVE SMOOTH"
);
}
);
width = 1460;
}
);
leftKerningGroup = uni1C08;
note = uni1C08;
unicode = 1C08;
},
{
glyphname = uni1C09;
lastChange = "2016-11-10 17:41:46 +0000";
layers = (
{
layerId = "950E4965-652C-4E49-8BA2-A8792AD091D1";
paths = (
{
closed = 1;
nodes = (
"686 0 LINE",
"602 245 OFFCURVE",
"490 412 OFFCURVE",
"307 575 CURVE",
"573 858 LINE",
"708 681 OFFCURVE",
"866 525 OFFCURVE",
"1047 391 CURVE",
"1147 530 LINE",
"964 663 OFFCURVE",
"809 814 OFFCURVE",
"684 985 CURVE",
"841 990 OFFCURVE",
"983 1014 OFFCURVE",
"1110 1055 CURVE",
"1110 1214 LINE",
"971 1171 OFFCURVE",
"799 1149 OFFCURVE",
"596 1149 CURVE SMOOTH",
"394 1149 OFFCURVE",
"223 1171 OFFCURVE",
"82 1214 CURVE",
"82 1055 LINE",
"193 1018 OFFCURVE",
"319 995 OFFCURVE",
"461 987 CURVE",
"66 569 LINE",
"311 373 OFFCURVE",
"427 224 OFFCURVE",
"502 0 CURVE"
);
}
);
width = 1249;
}
);
note = uni1C09;
unicode = 1C09;
},
{
glyphname = uni1C0A;
lastChange = "2016-11-10 17:41:46 +0000";
layers = (
{
layerId = "950E4965-652C-4E49-8BA2-A8792AD091D1";
paths = (
{
closed = 1;
nodes = (
"715 92 LINE",
"272 516 LINE",
"449 694 LINE",
"717 432 LINE SMOOTH",
"804 348 OFFCURVE",
"861 319 OFFCURVE",
"956 319 CURVE SMOOTH",
"1011 319 OFFCURVE",
"1061 332 OFFCURVE",
"1107 358 CURVE SMOOTH",
"1199 410 OFFCURVE",
"1257 505 OFFCURVE",
"1257 614 CURVE SMOOTH",
"1257 705 OFFCURVE",
"1227 768 OFFCURVE",
"1135 860 CURVE SMOOTH",
"739 1239 LINE",
"621 1114 LINE",
"1012 739 LINE SMOOTH",
"1072 684 OFFCURVE",
"1085 656 OFFCURVE",
"1085 612 CURVE SMOOTH",
"1085 539 OFFCURVE",
"1036 489 OFFCURVE",
"956 489 CURVE SMOOTH",
"913 489 OFFCURVE",
"890 504 OFFCURVE",
"838 553 CURVE SMOOTH",
"444 934 LINE",
"31 510 LINE",
"596 -33 LINE"
);
}
);
width = 1309;
}
);
leftKerningGroup = uni1C0A;
note = uni1C0A;
unicode = 1C0A;
},
{
glyphname = uni1C0B;
lastChange = "2016-11-10 17:41:46 +0000";
layers = (
{
layerId = "950E4965-652C-4E49-8BA2-A8792AD091D1";
paths = (
{
closed = 1;
nodes = (
"623 0 LINE",
"600 127 OFFCURVE",
"588 250 OFFCURVE",
"588 371 CURVE SMOOTH",
"588 393 LINE",
"622 389 OFFCURVE",
"659 387 OFFCURVE",
"700 387 CURVE SMOOTH",
"825 387 OFFCURVE",
"931 407 OFFCURVE",
"1020 448 CURVE SMOOTH",
"1197 528 OFFCURVE",
"1292 677 OFFCURVE",
"1292 862 CURVE SMOOTH",
"1292 1073 OFFCURVE",
"1172 1214 OFFCURVE",
"940 1214 CURVE SMOOTH",
"680 1214 OFFCURVE",
"487 993 OFFCURVE",
"432 608 CURVE",
"308 677 OFFCURVE",
"246 802 OFFCURVE",
"246 985 CURVE SMOOTH",
"246 1059 OFFCURVE",
"260 1129 OFFCURVE",
"287 1194 CURVE",
"113 1194 LINE",
"86 1133 OFFCURVE",
"72 1063 OFFCURVE",
"72 985 CURVE SMOOTH",
"72 720 OFFCURVE",
"191 522 OFFCURVE",
"418 434 CURVE",
"416 371 LINE SMOOTH",
"416 240 OFFCURVE",
"426 116 OFFCURVE",
"446 0 CURVE"
);
},
{
closed = 1;
nodes = (
"663 553 OFFCURVE",
"629 555 OFFCURVE",
"596 559 CURVE",
"625 882 OFFCURVE",
"747 1049 OFFCURVE",
"940 1049 CURVE SMOOTH",
"1063 1049 OFFCURVE",
"1122 977 OFFCURVE",
"1122 862 CURVE SMOOTH",
"1122 671 OFFCURVE",
"981 553 OFFCURVE",
"700 553 CURVE SMOOTH"
);
}
);
width = 1364;
}
);
note = uni1C0B;
unicode = 1C0B;
},
{
glyphname = uni1C0C;
lastChange = "2016-11-10 17:41:46 +0000";
layers = (
{
layerId = "950E4965-652C-4E49-8BA2-A8792AD091D1";
paths = (
{
closed = 1;
nodes = (
"234 345 OFFCURVE",
"414 385 OFFCURVE",
"621 385 CURVE SMOOTH",
"828 385 OFFCURVE",
"1009 345 OFFCURVE",
"1163 266 CURVE",
"1163 430 LINE",
"1032 497 OFFCURVE",
"880 536 OFFCURVE",
"707 547 CURVE",
"707 985 LINE",
"883 992 OFFCURVE",
"1035 1015 OFFCURVE",
"1163 1055 CURVE",
"1163 1214 LINE",
"1016 1171 OFFCURVE",
"835 1149 OFFCURVE",
"621 1149 CURVE SMOOTH",
"408 1149 OFFCURVE",
"227 1171 OFFCURVE",
"80 1214 CURVE",
"80 1055 LINE",
"208 1015 OFFCURVE",
"360 992 OFFCURVE",
"537 985 CURVE",
"537 547 LINE",
"362 536 OFFCURVE",
"209 497 OFFCURVE",
"80 430 CURVE",
"80 266 LINE"
);
}
);
width = 1243;
}
);
leftKerningGroup = uni1C0C;
note = uni1C0C;
unicode = 1C0C;
},
{
glyphname = uni1C0D;
lastChange = "2016-11-10 17:41:46 +0000";
layers = (
{
layerId = "950E4965-652C-4E49-8BA2-A8792AD091D1";
paths = (
{
closed = 1;
nodes = (
"391 0 LINE",
"342 129 OFFCURVE",
"317 262 OFFCURVE",
"317 399 CURVE SMOOTH",
"317 548 OFFCURVE",
"339 672 OFFCURVE",
"384 769 CURVE SMOOTH",
"473 964 OFFCURVE",
"628 1055 OFFCURVE",
"821 1055 CURVE SMOOTH",
"1068 1055 OFFCURVE",
"1196 906 OFFCURVE",
"1196 682 CURVE SMOOTH",
"1196 539 OFFCURVE",
"1123 453 OFFCURVE",
"991 453 CURVE SMOOTH",
"879 453 OFFCURVE",
"813 512 OFFCURVE",
"813 621 CURVE SMOOTH",
"813 672 OFFCURVE",
"823 719 OFFCURVE",
"842 760 CURVE",
"664 760 LINE",
"646 725 OFFCURVE",
"637 677 OFFCURVE",
"637 616 CURVE SMOOTH",
"637 415 OFFCURVE",
"773 287 OFFCURVE",
"989 287 CURVE SMOOTH",
"1232 287 OFFCURVE",
"1372 449 OFFCURVE",
"1372 684 CURVE SMOOTH",
"1372 782 OFFCURVE",
"1352 872 OFFCURVE",
"1312 953 CURVE SMOOTH",
"1231 1116 OFFCURVE",
"1066 1221 OFFCURVE",
"827 1221 CURVE SMOOTH",
"696 1221 OFFCURVE",
"580 1190 OFFCURVE",
"477 1129 CURVE SMOOTH",
"271 1005 OFFCURVE",
"143 754 OFFCURVE",
"143 395 CURVE SMOOTH",
"143 258 OFFCURVE",
"165 127 OFFCURVE",
"209 0 CURVE"
);
}
);
width = 1495;
}
);
note = uni1C0D;
unicode = 1C0D;
},
{
glyphname = uni1C0E;
lastChange = "2016-11-10 17:41:46 +0000";
layers = (
{
layerId = "950E4965-652C-4E49-8BA2-A8792AD091D1";
paths = (
{
closed = 1;
nodes = (
"313 0 LINE",
"284 85 OFFCURVE",
"270 158 OFFCURVE",
"270 221 CURVE SMOOTH",
"270 338 OFFCURVE",
"313 387 OFFCURVE",
"406 387 CURVE SMOOTH",
"433 387 OFFCURVE",
"466 379 OFFCURVE",
"511 363 CURVE SMOOTH",
"534 354 OFFCURVE",
"549 349 OFFCURVE",
"557 346 CURVE SMOOTH",
"652 307 OFFCURVE",
"733 287 OFFCURVE",
"799 287 CURVE SMOOTH",
"987 287 OFFCURVE",
"1102 395 OFFCURVE",
"1102 592 CURVE SMOOTH",
"1102 725 OFFCURVE",
"1062 830 OFFCURVE",
"926 1006 CURVE",
"1003 1019 OFFCURVE",
"1073 1036 OFFCURVE",
"1135 1055 CURVE",
"1135 1214 LINE",
"996 1171 OFFCURVE",
"825 1149 OFFCURVE",
"623 1149 CURVE SMOOTH",
"420 1149 OFFCURVE",
"250 1171 OFFCURVE",
"111 1214 CURVE",
"111 1055 LINE",
"258 1007 OFFCURVE",
"429 983 OFFCURVE",
"623 983 CURVE SMOOTH",
"669 983 OFFCURVE",
"704 984 OFFCURVE",
"727 985 CURVE",
"886 802 OFFCURVE",
"926 705 OFFCURVE",
"926 588 CURVE SMOOTH",
"926 498 OFFCURVE",
"882 453 OFFCURVE",
"795 453 CURVE SMOOTH",
"751 453 OFFCURVE",
"688 469 OFFCURVE",
"606 502 CURVE SMOOTH",
"514 537 OFFCURVE",
"471 553 OFFCURVE",
"406 553 CURVE SMOOTH",
"219 553 OFFCURVE",
"96 432 OFFCURVE",
"96 221 CURVE SMOOTH",
"96 152 OFFCURVE",
"109 78 OFFCURVE",
"135 0 CURVE"
);
}
);
width = 1231;
}
);
leftKerningGroup = uni1C0E;
note = uni1C0E;
unicode = 1C0E;
},
{
glyphname = uni1C0F;
lastChange = "2016-11-10 17:41:46 +0000";
layers = (
{
layerId = "950E4965-652C-4E49-8BA2-A8792AD091D1";
paths = (
{
closed = 1;
nodes = (
"1096 0 LINE",
"1122 78 OFFCURVE",
"1135 152 OFFCURVE",
"1135 221 CURVE SMOOTH",
"1135 432 OFFCURVE",
"1012 553 OFFCURVE",
"825 553 CURVE SMOOTH",
"760 553 OFFCURVE",
"717 537 OFFCURVE",
"625 502 CURVE SMOOTH",
"543 469 OFFCURVE",
"480 453 OFFCURVE",
"436 453 CURVE SMOOTH",
"349 453 OFFCURVE",
"305 498 OFFCURVE",
"305 588 CURVE SMOOTH",
"305 705 OFFCURVE",
"345 802 OFFCURVE",
"504 985 CURVE",
"527 984 OFFCURVE",
"562 983 OFFCURVE",
"608 983 CURVE SMOOTH",
"802 983 OFFCURVE",
"973 1007 OFFCURVE",
"1120 1055 CURVE",
"1120 1214 LINE",
"981 1171 OFFCURVE",
"810 1149 OFFCURVE",
"608 1149 CURVE SMOOTH",
"406 1149 OFFCURVE",
"235 1171 OFFCURVE",
"96 1214 CURVE",
"96 1055 LINE",
"157 1036 OFFCURVE",
"227 1019 OFFCURVE",
"305 1006 CURVE",
"169 830 OFFCURVE",
"129 725 OFFCURVE",
"129 592 CURVE SMOOTH",
"129 395 OFFCURVE",
"244 287 OFFCURVE",
"432 287 CURVE SMOOTH",
"497 287 OFFCURVE",
"578 307 OFFCURVE",
"674 346 CURVE SMOOTH",
"682 349 OFFCURVE",
"694 353 OFFCURVE",
"709 359 CURVE SMOOTH",
"739 370 OFFCURVE",
"790 387 OFFCURVE",
"825 387 CURVE SMOOTH",
"918 387 OFFCURVE",
"961 338 OFFCURVE",
"961 221 CURVE SMOOTH",
"961 158 OFFCURVE",
"947 85 OFFCURVE",
"918 0 CURVE"
);
}
);
width = 1231;
}
);
leftKerningGroup = uni1C0F;
note = uni1C0F;
unicode = 1C0F;
},
{
glyphname = uni1C10;
lastChange = "2016-11-10 17:41:46 +0000";
layers = (
{
layerId = "950E4965-652C-4E49-8BA2-A8792AD091D1";
paths = (
{
closed = 1;
nodes = (
"313 0 LINE",
"284 85 OFFCURVE",
"270 158 OFFCURVE",
"270 221 CURVE SMOOTH",
"270 338 OFFCURVE",
"313 387 OFFCURVE",
"406 387 CURVE SMOOTH",
"433 387 OFFCURVE",
"466 379 OFFCURVE",
"511 363 CURVE SMOOTH",
"534 354 OFFCURVE",
"549 349 OFFCURVE",
"557 346 CURVE SMOOTH",
"652 307 OFFCURVE",
"733 287 OFFCURVE",
"799 287 CURVE SMOOTH",
"987 287 OFFCURVE",
"1102 395 OFFCURVE",
"1102 592 CURVE SMOOTH",
"1102 725 OFFCURVE",
"1062 830 OFFCURVE",
"926 1006 CURVE",
"1003 1019 OFFCURVE",
"1073 1036 OFFCURVE",
"1135 1055 CURVE",
"1135 1214 LINE",
"996 1171 OFFCURVE",
"825 1149 OFFCURVE",
"623 1149 CURVE SMOOTH",
"420 1149 OFFCURVE",
"250 1171 OFFCURVE",
"111 1214 CURVE",
"111 1055 LINE",
"126 1050 OFFCURVE",
"156 1041 OFFCURVE",
"203 1028 CURVE",
"143 912 OFFCURVE",
"113 799 OFFCURVE",
"113 688 CURVE SMOOTH",
"113 595 OFFCURVE",
"127 511 OFFCURVE",
"156 434 CURVE",
"116 379 OFFCURVE",
"96 308 OFFCURVE",
"96 221 CURVE SMOOTH",
"96 152 OFFCURVE",
"109 78 OFFCURVE",
"135 0 CURVE"
);
},
{
closed = 1;
nodes = (
"751 453 OFFCURVE",
"688 469 OFFCURVE",
"606 502 CURVE SMOOTH",
"514 537 OFFCURVE",
"471 553 OFFCURVE",
"406 553 CURVE SMOOTH",
"369 553 OFFCURVE",
"332 548 OFFCURVE",
"297 537 CURVE",
"286 584 OFFCURVE",
"281 635 OFFCURVE",
"281 688 CURVE SMOOTH",
"281 797 OFFCURVE",
"308 901 OFFCURVE",
"362 999 CURVE",
"450 988 OFFCURVE",
"537 983 OFFCURVE",
"623 983 CURVE SMOOTH",
"669 983 OFFCURVE",
"704 984 OFFCURVE",
"727 985 CURVE",
"886 802 OFFCURVE",
"926 705 OFFCURVE",
"926 588 CURVE SMOOTH",
"926 498 OFFCURVE",
"882 453 OFFCURVE",
"795 453 CURVE SMOOTH"
);
}
);
width = 1231;
}
);
leftKerningGroup = uni1C0E;
note = uni1C10;
unicode = 1C10;
},
{
glyphname = uni1C11;
lastChange = "2016-11-10 17:41:46 +0000";
layers = (
{
layerId = "950E4965-652C-4E49-8BA2-A8792AD091D1";
paths = (
{
closed = 1;
nodes = (
"991 -6 OFFCURVE",
"1106 103 OFFCURVE",
"1106 299 CURVE SMOOTH",
"1106 385 OFFCURVE",
"1081 467 OFFCURVE",
"1030 545 CURVE",
"1074 553 OFFCURVE",
"1118 563 OFFCURVE",
"1161 575 CURVE",
"1161 739 LINE",
"1023 701 OFFCURVE",
"864 682 OFFCURVE",
"684 682 CURVE SMOOTH",
"551 682 OFFCURVE",
"435 690 OFFCURVE",
"336 707 CURVE",
"357 814 OFFCURVE",
"395 919 OFFCURVE",
"451 1020 CURVE",
"516 1011 OFFCURVE",
"591 1006 OFFCURVE",
"676 1006 CURVE SMOOTH",
"825 1006 OFFCURVE",
"947 1022 OFFCURVE",
"1044 1055 CURVE",
"1044 1214 LINE",
"939 1184 OFFCURVE",
"818 1169 OFFCURVE",
"680 1169 CURVE SMOOTH",
"551 1169 OFFCURVE",
"438 1181 OFFCURVE",
"340 1206 CURVE",
"195 930 OFFCURVE",
"143 735 OFFCURVE",
"143 500 CURVE SMOOTH",
"143 391 OFFCURVE",
"162 299 OFFCURVE",
"199 225 CURVE",
"147 182 OFFCURVE",
"121 120 OFFCURVE",
"121 39 CURVE SMOOTH",
"121 26 OFFCURVE",
"122 13 OFFCURVE",
"125 0 CURVE",
"299 0 LINE",
"296 13 OFFCURVE",
"295 26 OFFCURVE",
"295 39 CURVE SMOOTH",
"295 92 OFFCURVE",
"322 119 OFFCURVE",
"375 119 CURVE SMOOTH",
"406 119 OFFCURVE",
"462 102 OFFCURVE",
"541 68 CURVE SMOOTH",
"648 19 OFFCURVE",
"715 -6 OFFCURVE",
"803 -6 CURVE SMOOTH"
);
},
{
closed = 1;
nodes = (
"734 160 OFFCURVE",
"685 180 OFFCURVE",
"592 221 CURVE SMOOTH",
"499 265 OFFCURVE",
"446 285 OFFCURVE",
"375 285 CURVE SMOOTH",
"360 285 LINE",
"330 336 OFFCURVE",
"315 411 OFFCURVE",
"315 508 CURVE SMOOTH",
"315 549 LINE",
"438 528 OFFCURVE",
"562 518 OFFCURVE",
"686 518 CURVE SMOOTH",
"747 518 OFFCURVE",
"805 520 OFFCURVE",
"860 524 CURVE",
"907 448 OFFCURVE",
"930 372 OFFCURVE",
"930 295 CURVE SMOOTH",
"930 205 OFFCURVE",
"886 160 OFFCURVE",
"799 160 CURVE SMOOTH"
);
}
);
width = 1290;
}
);
note = uni1C11;
unicode = 1C11;
},
{
glyphname = uni1C12;
lastChange = "2016-11-10 17:41:46 +0000";
layers = (
{
layerId = "950E4965-652C-4E49-8BA2-A8792AD091D1";
paths = (
{
closed = 1;
nodes = (
"773 -23 OFFCURVE",
"821 -16 OFFCURVE",
"858 -2 CURVE",
"858 168 LINE",
"821 154 OFFCURVE",
"777 147 OFFCURVE",
"725 147 CURVE SMOOTH",
"474 147 OFFCURVE",
"317 305 OFFCURVE",
"317 594 CURVE SMOOTH",
"317 778 OFFCURVE",
"389 909 OFFCURVE",
"532 987 CURVE",
"1427 -23 LINE",
"1708 118 OFFCURVE",
"1849 327 OFFCURVE",
"1849 604 CURVE SMOOTH",
"1849 729 OFFCURVE",
"1825 837 OFFCURVE",
"1778 930 CURVE SMOOTH",
"1682 1115 OFFCURVE",
"1504 1219 OFFCURVE",
"1280 1219 CURVE SMOOTH",
"1220 1219 OFFCURVE",
"1172 1212 OFFCURVE",
"1135 1198 CURVE",
"1098 1119 OFFCURVE",
"1079 1037 OFFCURVE",
"1079 952 CURVE SMOOTH",
"1079 780 OFFCURVE",
"1202 653 OFFCURVE",
"1399 653 CURVE SMOOTH",
"1506 653 OFFCURVE",
"1594 682 OFFCURVE",
"1663 739 CURVE",
"1671 698 OFFCURVE",
"1675 653 OFFCURVE",
"1675 602 CURVE SMOOTH",
"1675 419 OFFCURVE",
"1605 289 OFFCURVE",
"1464 211 CURVE",
"565 1219 LINE",
"284 1078 OFFCURVE",
"143 869 OFFCURVE",
"143 592 CURVE SMOOTH",
"143 468 OFFCURVE",
"167 360 OFFCURVE",
"215 267 CURVE SMOOTH",
"311 81 OFFCURVE",
"489 -23 OFFCURVE",
"713 -23 CURVE SMOOTH"
);
},
{
closed = 1;
nodes = (
"1290 788 OFFCURVE",
"1221 855 OFFCURVE",
"1221 952 CURVE SMOOTH",
"1221 985 OFFCURVE",
"1225 1017 OFFCURVE",
"1233 1049 CURVE",
"1268 1049 LINE SMOOTH",
"1426 1049 OFFCURVE",
"1541 991 OFFCURVE",
"1612 874 CURVE",
"1560 817 OFFCURVE",
"1489 788 OFFCURVE",
"1399 788 CURVE SMOOTH"
);
}
);
width = 1997;
}
);
leftKerningGroup = uni1C13;
note = uni1C12;
rightKerningGroup = uni1C13;
unicode = 1C12;
},
{
glyphname = uni1C13;
lastChange = "2016-11-10 17:41:46 +0000";
layers = (
{
layerId = "950E4965-652C-4E49-8BA2-A8792AD091D1";
paths = (
{
closed = 1;
nodes = (
"776 -27 OFFCURVE",
"869 -4 OFFCURVE",
"948 43 CURVE SMOOTH",
"1107 136 OFFCURVE",
"1196 304 OFFCURVE",
"1196 496 CURVE SMOOTH",
"1196 807 OFFCURVE",
"1043 1026 OFFCURVE",
"670 1223 CURVE",
"293 1028 OFFCURVE",
"143 807 OFFCURVE",
"143 496 CURVE SMOOTH",
"143 400 OFFCURVE",
"164 312 OFFCURVE",
"207 233 CURVE SMOOTH",
"291 73 OFFCURVE",
"457 -27 OFFCURVE",
"670 -27 CURVE SMOOTH"
);
},
{
closed = 1;
nodes = (
"451 141 OFFCURVE",
"317 291 OFFCURVE",
"317 496 CURVE SMOOTH",
"317 717 OFFCURVE",
"415 872 OFFCURVE",
"670 1028 CURVE",
"923 875 OFFCURVE",
"1020 720 OFFCURVE",
"1020 496 CURVE SMOOTH",
"1020 430 OFFCURVE",
"1006 370 OFFCURVE",
"978 317 CURVE SMOOTH",
"922 209 OFFCURVE",
"814 141 OFFCURVE",
"670 141 CURVE SMOOTH"
);
}
);
width = 1339;
}
);
leftKerningGroup = uni1C13;
note = uni1C13;
rightKerningGroup = uni1C13;
unicode = 1C13;
},
{
glyphname = uni1C14;
lastChange = "2016-11-10 17:41:46 +0000";
layers = (
{
layerId = "950E4965-652C-4E49-8BA2-A8792AD091D1";
paths = (
{
closed = 1;
nodes = (
"725 113 LINE",
"446 241 OFFCURVE",
"319 420 OFFCURVE",
"319 696 CURVE SMOOTH",
"319 937 OFFCURVE",
"413 1057 OFFCURVE",
"600 1057 CURVE SMOOTH",
"781 1057 OFFCURVE",
"871 885 OFFCURVE",
"870 541 CURVE",
"1042 541 LINE",
"1039 912 OFFCURVE",
"1139 1057 OFFCURVE",
"1311 1057 CURVE SMOOTH",
"1499 1057 OFFCURVE",
"1593 937 OFFCURVE",
"1593 696 CURVE SMOOTH",
"1593 420 OFFCURVE",
"1467 241 OFFCURVE",
"1186 113 CURVE",
"1260 -45 LINE",
"1598 109 OFFCURVE",
"1767 357 OFFCURVE",
"1767 700 CURVE SMOOTH",
"1767 1031 OFFCURVE",
"1596 1223 OFFCURVE",
"1325 1223 CURVE SMOOTH",
"1142 1223 OFFCURVE",
"1021 1135 OFFCURVE",
"961 958 CURVE",
"952 958 LINE",
"892 1135 OFFCURVE",
"770 1223 OFFCURVE",
"586 1223 CURVE SMOOTH",
"315 1223 OFFCURVE",
"143 1031 OFFCURVE",
"143 700 CURVE SMOOTH",
"143 365 OFFCURVE",
"314 108 OFFCURVE",
"655 -45 CURVE"
);
}
);
width = 1911;
}
);
leftKerningGroup = uni1C13;
note = uni1C14;
rightKerningGroup = uni1C13;
unicode = 1C14;
},
{
glyphname = uni1C15;
lastChange = "2016-11-10 17:41:46 +0000";
layers = (
{
layerId = "950E4965-652C-4E49-8BA2-A8792AD091D1";
paths = (
{
closed = 1;
nodes = (
"1232 -29 OFFCURVE",
"1374 121 OFFCURVE",
"1374 340 CURVE SMOOTH",
"1374 577 OFFCURVE",
"1187 751 OFFCURVE",
"848 770 CURVE",
"889 843 OFFCURVE",
"948 918 OFFCURVE",
"1026 995 CURVE",
"1141 1008 OFFCURVE",
"1249 1028 OFFCURVE",
"1352 1055 CURVE",
"1352 1214 LINE",
"1189 1171 OFFCURVE",
"992 1149 OFFCURVE",
"760 1149 CURVE SMOOTH",
"522 1149 OFFCURVE",
"324 1171 OFFCURVE",
"166 1214 CURVE",
"166 1053 LINE",
"337 1006 OFFCURVE",
"535 983 OFFCURVE",
"760 983 CURVE SMOOTH",
"803 983 LINE",
"747 915 OFFCURVE",
"702 843 OFFCURVE",
"668 766 CURVE",
"337 733 OFFCURVE",
"143 538 OFFCURVE",
"143 197 CURVE SMOOTH",
"143 127 OFFCURVE",
"153 61 OFFCURVE",
"172 0 CURVE",
"348 0 LINE",
"329 61 OFFCURVE",
"319 126 OFFCURVE",
"319 193 CURVE SMOOTH",
"319 418 OFFCURVE",
"417 551 OFFCURVE",
"612 592 CURVE",
"601 540 OFFCURVE",
"596 487 OFFCURVE",
"596 434 CURVE SMOOTH",
"596 137 OFFCURVE",
"756 -29 OFFCURVE",
"999 -29 CURVE SMOOTH"
);
},
{
closed = 1;
nodes = (
"853 137 OFFCURVE",
"758 236 OFFCURVE",
"758 440 CURVE SMOOTH",
"758 495 OFFCURVE",
"765 551 OFFCURVE",
"780 608 CURVE",
"1059 607 OFFCURVE",
"1198 514 OFFCURVE",
"1198 330 CURVE SMOOTH",
"1198 201 OFFCURVE",
"1134 137 OFFCURVE",
"1006 137 CURVE SMOOTH"
);
}
);
width = 1518;
}
);
note = uni1C15;
unicode = 1C15;
},
{
glyphname = uni1C16;
lastChange = "2016-11-10 17:41:46 +0000";
layers = (
{
layerId = "950E4965-652C-4E49-8BA2-A8792AD091D1";
paths = (
{
closed = 1;
nodes = (
"761 -29 OFFCURVE",
"922 137 OFFCURVE",
"922 434 CURVE SMOOTH",
"922 487 OFFCURVE",
"916 540 OFFCURVE",
"905 592 CURVE",
"1100 551 OFFCURVE",
"1198 418 OFFCURVE",
"1198 193 CURVE SMOOTH",
"1198 126 OFFCURVE",
"1188 61 OFFCURVE",
"1169 0 CURVE",
"1346 0 LINE",
"1365 61 OFFCURVE",
"1374 127 OFFCURVE",
"1374 197 CURVE SMOOTH",
"1374 538 OFFCURVE",
"1181 733 OFFCURVE",
"850 766 CURVE",
"816 843 OFFCURVE",
"771 915 OFFCURVE",
"715 983 CURVE",
"758 983 LINE SMOOTH",
"983 983 OFFCURVE",
"1181 1006 OFFCURVE",
"1352 1053 CURVE",
"1352 1214 LINE",
"1193 1171 OFFCURVE",
"995 1149 OFFCURVE",
"758 1149 CURVE SMOOTH",
"526 1149 OFFCURVE",
"329 1171 OFFCURVE",
"166 1214 CURVE",
"166 1055 LINE",
"268 1028 OFFCURVE",
"377 1008 OFFCURVE",
"492 995 CURVE",
"569 918 OFFCURVE",
"629 843 OFFCURVE",
"670 770 CURVE",
"331 751 OFFCURVE",
"143 577 OFFCURVE",
"143 340 CURVE SMOOTH",
"143 121 OFFCURVE",
"286 -29 OFFCURVE",
"518 -29 CURVE SMOOTH"
);
},
{
closed = 1;
nodes = (
"383 137 OFFCURVE",
"319 201 OFFCURVE",
"319 330 CURVE SMOOTH",
"319 514 OFFCURVE",
"458 607 OFFCURVE",
"737 608 CURVE",
"752 551 OFFCURVE",
"760 495 OFFCURVE",
"760 440 CURVE SMOOTH",
"760 236 OFFCURVE",
"665 137 OFFCURVE",
"512 137 CURVE SMOOTH"
);
}
);
width = 1518;
}
);
leftKerningGroup = uni1C16;
note = uni1C16;
unicode = 1C16;
},
{
glyphname = uni1C17;
lastChange = "2016-11-10 17:41:46 +0000";
layers = (
{
layerId = "950E4965-652C-4E49-8BA2-A8792AD091D1";
paths = (
{
closed = 1;
nodes = (
"970 -25 OFFCURVE",
"1167 167 OFFCURVE",
"1167 498 CURVE SMOOTH",
"1167 673 OFFCURVE",
"1114 824 OFFCURVE",
"989 1016 CURVE",
"1064 1025 OFFCURVE",
"1137 1041 OFFCURVE",
"1208 1063 CURVE",
"1208 1223 LINE",
"1057 1179 OFFCURVE",
"872 1157 OFFCURVE",
"655 1157 CURVE SMOOTH",
"436 1157 OFFCURVE",
"251 1179 OFFCURVE",
"102 1223 CURVE",
"102 1063 LINE",
"169 1042 OFFCURVE",
"243 1026 OFFCURVE",
"322 1014 CURVE",
"195 825 OFFCURVE",
"143 673 OFFCURVE",
"143 498 CURVE SMOOTH",
"143 167 OFFCURVE",
"342 -25 OFFCURVE",
"655 -25 CURVE SMOOTH"
);
},
{
closed = 1;
nodes = (
"430 143 OFFCURVE",
"317 261 OFFCURVE",
"317 498 CURVE SMOOTH",
"317 665 OFFCURVE",
"367 799 OFFCURVE",
"510 995 CURVE",
"573 992 OFFCURVE",
"621 991 OFFCURVE",
"655 991 CURVE SMOOTH",
"690 991 OFFCURVE",
"738 992 OFFCURVE",
"801 995 CURVE",
"942 799 OFFCURVE",
"993 665 OFFCURVE",
"993 498 CURVE SMOOTH",
"993 261 OFFCURVE",
"880 143 OFFCURVE",
"655 143 CURVE SMOOTH"
);
}
);
width = 1311;
}
);
note = uni1C17;
unicode = 1C17;
},
{
glyphname = uni1C18;
lastChange = "2016-11-10 17:41:46 +0000";
layers = (
{
layerId = "950E4965-652C-4E49-8BA2-A8792AD091D1";
paths = (
{
closed = 1;
nodes = (
"795 -25 OFFCURVE",
"941 106 OFFCURVE",
"977 305 CURVE",
"985 305 LINE",
"1036 208 OFFCURVE",
"1140 160 OFFCURVE",
"1298 160 CURVE SMOOTH",
"1410 160 OFFCURVE",
"1511 192 OFFCURVE",
"1602 256 CURVE",
"1677 223 OFFCURVE",
"1769 207 OFFCURVE",
"1878 207 CURVE SMOOTH",
"1943 207 OFFCURVE",
"2000 214 OFFCURVE",
"2048 229 CURVE",
"2048 395 LINE",
"2000 380 OFFCURVE",
"1943 373 OFFCURVE",
"1878 373 CURVE SMOOTH",
"1829 373 OFFCURVE",
"1786 376 OFFCURVE",
"1749 381 CURVE",
"1834 479 OFFCURVE",
"1876 588 OFFCURVE",
"1876 709 CURVE SMOOTH",
"1876 913 OFFCURVE",
"1755 1055 OFFCURVE",
"1542 1055 CURVE SMOOTH",
"1329 1055 OFFCURVE",
"1208 913 OFFCURVE",
"1208 709 CURVE SMOOTH",
"1208 560 OFFCURVE",
"1277 439 OFFCURVE",
"1415 346 CURVE",
"1415 338 LINE",
"1377 330 OFFCURVE",
"1338 326 OFFCURVE",
"1298 326 CURVE SMOOTH",
"1234 326 OFFCURVE",
"1183 337 OFFCURVE",
"1144 358 CURVE SMOOTH",
"1066 400 OFFCURVE",
"1026 500 OFFCURVE",
"1026 688 CURVE",
"852 688 LINE",
"852 500 LINE SMOOTH",
"852 251 OFFCURVE",
"761 145 OFFCURVE",
"586 145 CURVE SMOOTH",
"407 145 OFFCURVE",
"317 277 OFFCURVE",
"317 541 CURVE SMOOTH",
"317 868 OFFCURVE",
"459 1049 OFFCURVE",
"727 1049 CURVE SMOOTH",
"771 1049 OFFCURVE",
"815 1043 OFFCURVE",
"858 1030 CURVE",
"858 1196 LINE",
"819 1208 OFFCURVE",
"770 1214 OFFCURVE",
"713 1214 CURVE SMOOTH",
"596 1214 OFFCURVE",
"494 1187 OFFCURVE",
"409 1132 CURVE SMOOTH",
"238 1022 OFFCURVE",
"143 812 OFFCURVE",
"143 543 CURVE SMOOTH",
"143 179 OFFCURVE",
"307 -25 OFFCURVE",
"571 -25 CURVE SMOOTH"
);
},
{
closed = 1;
nodes = (
"1450 485 OFFCURVE",
"1384 580 OFFCURVE",
"1384 711 CURVE SMOOTH",
"1384 820 OFFCURVE",
"1441 889 OFFCURVE",
"1542 889 CURVE SMOOTH",
"1643 889 OFFCURVE",
"1700 820 OFFCURVE",
"1700 711 CURVE SMOOTH",
"1700 594 OFFCURVE",
"1660 499 OFFCURVE",
"1581 426 CURVE"
);
}
);
width = 2109;
}
);
leftKerningGroup = uni1C13;
note = uni1C18;
unicode = 1C18;
},
{
glyphname = uni1C19;
lastChange = "2016-11-10 17:41:46 +0000";
layers = (
{
layerId = "950E4965-652C-4E49-8BA2-A8792AD091D1";
paths = (
{
closed = 1;
nodes = (
"537 0 LINE",
"433 172 OFFCURVE",
"387 347 OFFCURVE",
"387 592 CURVE SMOOTH",
"387 631 OFFCURVE",
"388 661 OFFCURVE",
"389 682 CURVE",
"725 682 LINE",
"724 661 OFFCURVE",
"723 631 OFFCURVE",
"723 592 CURVE SMOOTH",
"723 361 OFFCURVE",
"769 164 OFFCURVE",
"862 0 CURVE",
"1047 0 LINE",
"943 172 OFFCURVE",
"899 347 OFFCURVE",
"899 592 CURVE SMOOTH",
"899 631 OFFCURVE",
"900 661 OFFCURVE",
"901 682 CURVE",
"1141 682 LINE",
"1141 836 LINE",
"920 836 LINE",
"941 961 OFFCURVE",
"980 1081 OFFCURVE",
"1036 1194 CURVE",
"858 1194 LINE",
"805 1086 OFFCURVE",
"766 967 OFFCURVE",
"743 836 CURVE",
"408 836 LINE",
"429 961 OFFCURVE",
"468 1081 OFFCURVE",
"524 1194 CURVE",
"348 1194 LINE",
"295 1086 OFFCURVE",
"256 967 OFFCURVE",
"233 836 CURVE",
"72 836 LINE",
"72 682 LINE",
"215 682 LINE",
"214 661 OFFCURVE",
"213 631 OFFCURVE",
"213 592 CURVE SMOOTH",
"213 361 OFFCURVE",
"259 164 OFFCURVE",
"352 0 CURVE"
);
}
);
width = 1212;
}
);
note = uni1C19;
unicode = 1C19;
},
{
glyphname = uni1C1A;
lastChange = "2016-11-10 17:41:46 +0000";
layers = (
{
layerId = "950E4965-652C-4E49-8BA2-A8792AD091D1";
paths = (
{
closed = 1;
nodes = (
"724 -29 OFFCURVE",
"854 -3 OFFCURVE",
"967 49 CURVE",
"897 205 LINE",
"803 158 OFFCURVE",
"697 135 OFFCURVE",
"578 135 CURVE SMOOTH",
"404 135 OFFCURVE",
"317 192 OFFCURVE",
"317 305 CURVE SMOOTH",
"317 526 OFFCURVE",
"661 548 OFFCURVE",
"854 569 CURVE",
"854 741 LINE",
"753 718 OFFCURVE",
"658 707 OFFCURVE",
"569 707 CURVE SMOOTH",
"426 707 OFFCURVE",
"354 764 OFFCURVE",
"354 879 CURVE SMOOTH",
"354 994 OFFCURVE",
"437 1051 OFFCURVE",
"602 1051 CURVE SMOOTH",
"696 1051 OFFCURVE",
"788 1039 OFFCURVE",
"879 1016 CURVE",
"879 1188 LINE",
"794 1205 OFFCURVE",
"702 1214 OFFCURVE",
"602 1214 CURVE SMOOTH",
"341 1214 OFFCURVE",
"180 1088 OFFCURVE",
"180 879 CURVE SMOOTH",
"180 730 OFFCURVE",
"254 639 OFFCURVE",
"403 608 CURVE",
"403 600 LINE",
"231 556 OFFCURVE",
"143 448 OFFCURVE",
"143 305 CURVE SMOOTH",
"143 81 OFFCURVE",
"277 -29 OFFCURVE",
"578 -29 CURVE SMOOTH"
);
}
);
width = 1077;
}
);
note = uni1C1A;
unicode = 1C1A;
},
{
glyphname = uni1C1B;
lastChange = "2016-11-10 17:41:46 +0000";
layers = (
{
layerId = "950E4965-652C-4E49-8BA2-A8792AD091D1";
paths = (
{
closed = 1;
nodes = (
"711 0 LINE",
"756 83 OFFCURVE",
"778 182 OFFCURVE",
"778 297 CURVE SMOOTH",
"778 578 OFFCURVE",
"600 821 OFFCURVE",
"244 1026 CURVE",
"244 1034 LINE",
"329 1009 OFFCURVE",
"428 997 OFFCURVE",
"543 997 CURVE SMOOTH",
"730 997 OFFCURVE",
"882 1016 OFFCURVE",
"1001 1055 CURVE",
"1001 1214 LINE",
"866 1179 OFFCURVE",
"714 1161 OFFCURVE",
"543 1161 CURVE SMOOTH",
"397 1161 OFFCURVE",
"243 1179 OFFCURVE",
"82 1214 CURVE",
"82 981 LINE",
"430 757 OFFCURVE",
"604 529 OFFCURVE",
"604 297 CURVE SMOOTH",
"604 185 OFFCURVE",
"578 86 OFFCURVE",
"526 0 CURVE"
);
}
);
width = 1042;
}
);
leftKerningGroup = uni1C1B;
note = uni1C1B;
unicode = 1C1B;
},
{
glyphname = uni1C1C;
lastChange = "2016-11-10 17:41:46 +0000";
layers = (
{
layerId = "950E4965-652C-4E49-8BA2-A8792AD091D1";
paths = (
{
closed = 1;
nodes = (
"773 -23 OFFCURVE",
"821 -16 OFFCURVE",
"858 -2 CURVE",
"858 168 LINE",
"820 154 OFFCURVE",
"776 147 OFFCURVE",
"725 147 CURVE SMOOTH",
"474 147 OFFCURVE",
"317 305 OFFCURVE",
"317 594 CURVE SMOOTH",
"317 778 OFFCURVE",
"389 909 OFFCURVE",
"532 987 CURVE",
"1427 -23 LINE",
"1708 118 OFFCURVE",
"1849 327 OFFCURVE",
"1849 604 CURVE SMOOTH",
"1849 729 OFFCURVE",
"1825 837 OFFCURVE",
"1778 930 CURVE SMOOTH",
"1682 1115 OFFCURVE",
"1504 1219 OFFCURVE",
"1280 1219 CURVE SMOOTH",
"1220 1219 OFFCURVE",
"1172 1212 OFFCURVE",
"1135 1198 CURVE",
"1135 1028 LINE",
"1173 1042 OFFCURVE",
"1217 1049 OFFCURVE",
"1268 1049 CURVE SMOOTH",
"1519 1049 OFFCURVE",
"1675 891 OFFCURVE",
"1675 602 CURVE SMOOTH",
"1675 419 OFFCURVE",
"1605 289 OFFCURVE",
"1464 211 CURVE",
"565 1219 LINE",
"284 1078 OFFCURVE",
"143 869 OFFCURVE",
"143 592 CURVE SMOOTH",
"143 468 OFFCURVE",
"167 360 OFFCURVE",
"215 267 CURVE SMOOTH",
"311 81 OFFCURVE",
"489 -23 OFFCURVE",
"713 -23 CURVE SMOOTH"
);
}
);
width = 1997;
}
);
leftKerningGroup = uni1C13;
note = uni1C1C;
rightKerningGroup = uni1C13;
unicode = 1C1C;
},
{
glyphname = uni1C1D;
lastChange = "2016-11-10 17:41:46 +0000";
layers = (
{
layerId = "950E4965-652C-4E49-8BA2-A8792AD091D1";
paths = (
{
closed = 1;
nodes = (
"982 -29 OFFCURVE",
"1133 143 OFFCURVE",
"1133 408 CURVE SMOOTH",
"1133 563 LINE",
"1382 563 LINE",
"1382 717 LINE",
"1133 717 LINE",
"1133 846 LINE SMOOTH",
"1133 987 OFFCURVE",
"1177 1049 OFFCURVE",
"1276 1049 CURVE SMOOTH",
"1307 1049 OFFCURVE",
"1343 1040 OFFCURVE",
"1382 1022 CURVE",
"1382 1196 LINE",
"1352 1208 OFFCURVE",
"1316 1214 OFFCURVE",
"1274 1214 CURVE SMOOTH",
"1074 1214 OFFCURVE",
"961 1078 OFFCURVE",
"961 846 CURVE SMOOTH",
"961 717 LINE",
"496 717 LINE",
"496 846 LINE SMOOTH",
"496 1075 OFFCURVE",
"379 1214 OFFCURVE",
"182 1214 CURVE SMOOTH",
"140 1214 OFFCURVE",
"103 1208 OFFCURVE",
"72 1196 CURVE",
"72 1024 LINE",
"111 1041 OFFCURVE",
"147 1049 OFFCURVE",
"180 1049 CURVE SMOOTH",
"279 1049 OFFCURVE",
"324 987 OFFCURVE",
"324 846 CURVE SMOOTH",
"324 717 LINE",
"72 717 LINE",
"72 563 LINE",
"324 563 LINE",
"324 408 LINE SMOOTH",
"324 143 OFFCURVE",
"476 -29 OFFCURVE",
"727 -29 CURVE SMOOTH"
);
},
{
closed = 1;
nodes = (
"573 137 OFFCURVE",
"496 227 OFFCURVE",
"496 408 CURVE SMOOTH",
"496 563 LINE",
"961 563 LINE",
"961 408 LINE SMOOTH",
"961 227 OFFCURVE",
"883 137 OFFCURVE",
"727 137 CURVE SMOOTH"
);
}
);
width = 1454;
}
);
note = uni1C1D;
unicode = 1C1D;
},
{
glyphname = uni1C1E;
lastChange = "2016-11-10 17:41:46 +0000";
layers = (
{
layerId = "950E4965-652C-4E49-8BA2-A8792AD091D1";
paths = (
{
closed = 1;
nodes = (
"604 467 LINE",
"1018 -29 LINE",
"1147 80 LINE",
"715 598 LINE",
"1147 1114 LINE",
"1018 1223 LINE",
"604 727 LINE",
"190 1223 LINE",
"61 1114 LINE",
"494 598 LINE",
"61 80 LINE",
"190 -29 LINE"
);
}
);
width = 1208;
}
);
leftKerningGroup = uni1C1E;
note = uni1C1E;
unicode = 1C1E;
},
{
glyphname = uni1C1F;
lastChange = "2016-11-10 17:41:46 +0000";
layers = (
{
layerId = "950E4965-652C-4E49-8BA2-A8792AD091D1";
paths = (
{
closed = 1;
nodes = (
"776 -27 OFFCURVE",
"869 -4 OFFCURVE",
"948 43 CURVE SMOOTH",
"1107 136 OFFCURVE",
"1196 304 OFFCURVE",
"1196 496 CURVE SMOOTH",
"1196 807 OFFCURVE",
"1043 1026 OFFCURVE",
"670 1223 CURVE",
"293 1028 OFFCURVE",
"143 807 OFFCURVE",
"143 496 CURVE SMOOTH",
"143 400 OFFCURVE",
"164 312 OFFCURVE",
"207 233 CURVE SMOOTH",
"291 73 OFFCURVE",
"457 -27 OFFCURVE",
"670 -27 CURVE SMOOTH"
);
},
{
closed = 1;
nodes = (
"454 141 OFFCURVE",
"320 288 OFFCURVE",
"317 489 CURVE",
"1020 489 LINE",
"1017 288 OFFCURVE",
"882 141 OFFCURVE",
"670 141 CURVE SMOOTH"
);
},
{
closed = 1;
nodes = (
"367 783 OFFCURVE",
"470 905 OFFCURVE",
"670 1028 CURVE",
"871 905 OFFCURVE",
"973 783 OFFCURVE",
"1006 631 CURVE",
"332 631 LINE"
);
}
);
width = 1339;
}
);
leftKerningGroup = uni1C13;
note = uni1C1F;
rightKerningGroup = uni1C13;
unicode = 1C1F;
},
{
glyphname = uni1C20;
lastChange = "2016-11-10 17:41:46 +0000";
layers = (
{
layerId = "950E4965-652C-4E49-8BA2-A8792AD091D1";
paths = (
{
closed = 1;
nodes = (
"785 -14 OFFCURVE",
"914 93 OFFCURVE",
"954 268 CURVE",
"963 268 LINE",
"996 193 OFFCURVE",
"1058 156 OFFCURVE",
"1149 156 CURVE SMOOTH",
"1297 156 OFFCURVE",
"1411 248 OFFCURVE",
"1427 389 CURVE",
"1436 389 LINE",
"1475 295 OFFCURVE",
"1550 248 OFFCURVE",
"1661 248 CURVE SMOOTH",
"1860 248 OFFCURVE",
"1987 397 OFFCURVE",
"1987 686 CURVE SMOOTH",
"1987 756 OFFCURVE",
"1979 826 OFFCURVE",
"1962 895 CURVE",
"1790 895 LINE",
"1805 820 OFFCURVE",
"1812 750 OFFCURVE",
"1812 686 CURVE SMOOTH",
"1812 495 OFFCURVE",
"1756 418 OFFCURVE",
"1647 418 CURVE SMOOTH",
"1548 418 OFFCURVE",
"1505 473 OFFCURVE",
"1505 590 CURVE SMOOTH",
"1505 784 LINE",
"1331 784 LINE",
"1331 616 LINE SMOOTH",
"1331 409 OFFCURVE",
"1272 326 OFFCURVE",
"1155 326 CURVE SMOOTH",
"1064 326 OFFCURVE",
"1026 377 OFFCURVE",
"1026 500 CURVE SMOOTH",
"1026 668 LINE",
"852 668 LINE",
"852 526 LINE SMOOTH",
"852 279 OFFCURVE",
"767 156 OFFCURVE",
"598 156 CURVE SMOOTH",
"418 156 OFFCURVE",
"317 268 OFFCURVE",
"317 541 CURVE SMOOTH",
"317 868 OFFCURVE",
"459 1049 OFFCURVE",
"727 1049 CURVE SMOOTH",
"771 1049 OFFCURVE",
"815 1043 OFFCURVE",
"858 1030 CURVE",
"858 1196 LINE",
"819 1208 OFFCURVE",
"770 1214 OFFCURVE",
"713 1214 CURVE SMOOTH",
"596 1214 OFFCURVE",
"494 1187 OFFCURVE",
"409 1132 CURVE SMOOTH",
"238 1022 OFFCURVE",
"143 812 OFFCURVE",
"143 543 CURVE SMOOTH",
"143 184 OFFCURVE",
"311 -14 OFFCURVE",
"584 -14 CURVE SMOOTH"
);
}
);
width = 2068;
}
);
leftKerningGroup = uni1C13;
note = uni1C20;
unicode = 1C20;
},
{
glyphname = uni1C21;
lastChange = "2016-11-10 17:41:46 +0000";
layers = (
{
layerId = "950E4965-652C-4E49-8BA2-A8792AD091D1";
paths = (
{
closed = 1;
nodes = (
"769 -14 OFFCURVE",
"859 7 OFFCURVE",
"934 49 CURVE",
"872 207 LINE",
"811 173 OFFCURVE",
"742 156 OFFCURVE",
"666 156 CURVE SMOOTH",
"463 156 OFFCURVE",
"349 262 OFFCURVE",
"324 475 CURVE",
"330 477 LINE",
"364 402 OFFCURVE",
"427 365 OFFCURVE",
"520 365 CURVE SMOOTH",
"645 365 OFFCURVE",
"747 437 OFFCURVE",
"776 549 CURVE",
"784 549 LINE",
"825 455 OFFCURVE",
"900 408 OFFCURVE",
"1008 408 CURVE SMOOTH",
"1188 408 OFFCURVE",
"1300 520 OFFCURVE",
"1300 741 CURVE SMOOTH",
"1300 808 OFFCURVE",
"1292 869 OFFCURVE",
"1276 922 CURVE",
"1104 922 LINE",
"1119 866 OFFCURVE",
"1126 806 OFFCURVE",
"1126 741 CURVE SMOOTH",
"1126 632 OFFCURVE",
"1082 578 OFFCURVE",
"993 578 CURVE SMOOTH",
"901 578 OFFCURVE",
"860 635 OFFCURVE",
"860 752 CURVE SMOOTH",
"860 815 LINE",
"686 815 LINE",
"686 752 LINE SMOOTH",
"686 596 OFFCURVE",
"625 535 OFFCURVE",
"508 535 CURVE SMOOTH",
"422 535 OFFCURVE",
"361 585 OFFCURVE",
"324 684 CURVE",
"353 921 OFFCURVE",
"484 1049 OFFCURVE",
"705 1049 CURVE SMOOTH",
"750 1049 OFFCURVE",
"793 1043 OFFCURVE",
"836 1030 CURVE",
"836 1196 LINE",
"797 1208 OFFCURVE",
"749 1214 OFFCURVE",
"690 1214 CURVE SMOOTH",
"578 1214 OFFCURVE",
"481 1188 OFFCURVE",
"398 1136 CURVE SMOOTH",
"233 1031 OFFCURVE",
"143 835 OFFCURVE",
"143 582 CURVE SMOOTH",
"143 197 OFFCURVE",
"341 -14 OFFCURVE",
"666 -14 CURVE SMOOTH"
);
}
);
width = 1382;
}
);
leftKerningGroup = uni1C13;
note = uni1C21;
unicode = 1C21;
},
{
glyphname = uni1C22;
lastChange = "2016-11-10 17:41:46 +0000";
layers = (
{
layerId = "950E4965-652C-4E49-8BA2-A8792AD091D1";
paths = (
{
closed = 1;
nodes = (
"422 0 LINE",
"352 179 OFFCURVE",
"317 355 OFFCURVE",
"317 530 CURVE SMOOTH",
"317 883 OFFCURVE",
"474 1055 OFFCURVE",
"705 1055 CURVE SMOOTH",
"729 1055 OFFCURVE",
"751 1053 OFFCURVE",
"770 1049 CURVE",
"770 1042 LINE",
"646 944 OFFCURVE",
"584 821 OFFCURVE",
"584 672 CURVE SMOOTH",
"584 459 OFFCURVE",
"704 315 OFFCURVE",
"913 315 CURVE SMOOTH",
"1121 315 OFFCURVE",
"1239 459 OFFCURVE",
"1239 672 CURVE SMOOTH",
"1239 819 OFFCURVE",
"1191 941 OFFCURVE",
"1096 1036 CURVE",
"1155 1049 OFFCURVE",
"1223 1055 OFFCURVE",
"1300 1055 CURVE SMOOTH",
"1373 1055 OFFCURVE",
"1442 1047 OFFCURVE",
"1509 1032 CURVE",
"1411 938 OFFCURVE",
"1362 818 OFFCURVE",
"1362 672 CURVE SMOOTH",
"1362 459 OFFCURVE",
"1487 315 OFFCURVE",
"1708 315 CURVE SMOOTH",
"1908 315 OFFCURVE",
"2017 459 OFFCURVE",
"2017 672 CURVE SMOOTH",
"2017 817 OFFCURVE",
"1958 938 OFFCURVE",
"1841 1036 CURVE",
"1841 1040 LINE",
"1878 1050 OFFCURVE",
"1919 1055 OFFCURVE",
"1966 1055 CURVE SMOOTH",
"2043 1055 OFFCURVE",
"2105 1047 OFFCURVE",
"2152 1032 CURVE",
"2152 1198 LINE",
"2105 1213 OFFCURVE",
"2048 1221 OFFCURVE",
"1982 1221 CURVE SMOOTH",
"1863 1221 OFFCURVE",
"1758 1194 OFFCURVE",
"1665 1141 CURVE",
"1558 1194 OFFCURVE",
"1437 1221 OFFCURVE",
"1300 1221 CURVE SMOOTH",
"1171 1221 OFFCURVE",
"1058 1197 OFFCURVE",
"963 1149 CURVE",
"892 1197 OFFCURVE",
"808 1221 OFFCURVE",
"711 1221 CURVE SMOOTH",
"602 1221 OFFCURVE",
"504 1195 OFFCURVE",
"419 1143 CURVE SMOOTH",
"248 1039 OFFCURVE",
"143 830 OFFCURVE",
"143 526 CURVE SMOOTH",
"143 338 OFFCURVE",
"174 163 OFFCURVE",
"236 0 CURVE"
);
},
{
closed = 1;
nodes = (
"813 481 OFFCURVE",
"756 553 OFFCURVE",
"756 668 CURVE SMOOTH",
"756 811 OFFCURVE",
"819 916 OFFCURVE",
"946 983 CURVE",
"1031 918 OFFCURVE",
"1071 801 OFFCURVE",
"1071 676 CURVE SMOOTH",
"1071 553 OFFCURVE",
"1014 481 OFFCURVE",
"913 481 CURVE SMOOTH"
);
},
{
closed = 1;
nodes = (
"1587 481 OFFCURVE",
"1530 555 OFFCURVE",
"1530 672 CURVE SMOOTH",
"1530 805 OFFCURVE",
"1578 907 OFFCURVE",
"1673 977 CURVE",
"1788 908 OFFCURVE",
"1845 806 OFFCURVE",
"1845 670 CURVE SMOOTH",
"1845 553 OFFCURVE",
"1791 481 OFFCURVE",
"1688 481 CURVE SMOOTH"
);
}
);
width = 2193;
}
);
note = uni1C22;
unicode = 1C22;
},
{
glyphname = uni1C23;
lastChange = "2016-11-10 17:41:46 +0000";
layers = (
{
layerId = "950E4965-652C-4E49-8BA2-A8792AD091D1";
paths = (
{
closed = 1;
nodes = (
"744 -27 OFFCURVE",
"936 40 OFFCURVE",
"1165 201 CURVE",
"1077 340 LINE",
"985 279 LINE",
"725 618 LINE",
"921 703 OFFCURVE",
"987 789 OFFCURVE",
"987 918 CURVE SMOOTH",
"987 1101 OFFCURVE",
"858 1214 OFFCURVE",
"598 1214 CURVE SMOOTH",
"437 1214 OFFCURVE",
"275 1164 OFFCURVE",
"113 1063 CURVE",
"186 920 LINE",
"192 924 OFFCURVE",
"219 940 OFFCURVE",
"266 967 CURVE",
"481 682 LINE",
"262 606 OFFCURVE",
"125 513 OFFCURVE",
"125 305 CURVE SMOOTH",
"125 98 OFFCURVE",
"275 -27 OFFCURVE",
"543 -27 CURVE SMOOTH"
);
},
{
closed = 1;
nodes = (
"374 131 OFFCURVE",
"289 192 OFFCURVE",
"289 315 CURVE SMOOTH",
"289 359 OFFCURVE",
"300 395 OFFCURVE",
"321 424 CURVE SMOOTH",
"363 481 OFFCURVE",
"434 514 OFFCURVE",
"573 563 CURVE",
"848 203 LINE",
"747 155 OFFCURVE",
"645 131 OFFCURVE",
"543 131 CURVE SMOOTH"
);
},
{
closed = 1;
nodes = (
"414 1030 LINE",
"471 1048 OFFCURVE",
"534 1057 OFFCURVE",
"602 1057 CURVE SMOOTH",
"749 1057 OFFCURVE",
"823 1009 OFFCURVE",
"823 913 CURVE SMOOTH",
"823 840 OFFCURVE",
"788 797 OFFCURVE",
"637 737 CURVE"
);
}
);
width = 1247;
}
);
note = uni1C23;
unicode = 1C23;
},
{
glyphname = uni1C4D;
lastChange = "2016-11-10 17:41:46 +0000";
layers = (
{
layerId = "950E4965-652C-4E49-8BA2-A8792AD091D1";
paths = (
{
closed = 1;
nodes = (
"750 0 LINE",
"844 153 OFFCURVE",
"894 334 OFFCURVE",
"901 543 CURVE",
"1073 543 LINE",
"1073 696 LINE",
"901 696 LINE",
"889 877 OFFCURVE",
"845 1049 OFFCURVE",
"768 1214 CURVE",
"652 1184 OFFCURVE",
"540 1169 OFFCURVE",
"432 1169 CURVE SMOOTH",
"303 1169 OFFCURVE",
"191 1184 OFFCURVE",
"96 1214 CURVE",
"96 1055 LINE",
"183 1022 OFFCURVE",
"295 1006 OFFCURVE",
"432 1006 CURVE SMOOTH",
"514 1006 OFFCURVE",
"583 1011 OFFCURVE",
"639 1022 CURVE",
"686 918 OFFCURVE",
"714 809 OFFCURVE",
"725 696 CURVE",
"172 696 LINE",
"172 543 LINE",
"727 543 LINE",
"719 340 OFFCURVE",
"665 177 OFFCURVE",
"553 0 CURVE"
);
}
);
width = 1155;
}
);
note = uni1C4D;
unicode = 1C4D;
},
{
glyphname = uni1C4E;
lastChange = "2016-11-10 17:41:46 +0000";
layers = (
{
layerId = "950E4965-652C-4E49-8BA2-A8792AD091D1";
paths = (
{
closed = 1;
nodes = (
"750 0 LINE",
"822 116 OFFCURVE",
"868 246 OFFCURVE",
"889 389 CURVE",
"1073 389 LINE",
"1073 532 LINE",
"901 532 LINE",
"903 604 LINE SMOOTH",
"903 641 OFFCURVE",
"902 668 OFFCURVE",
"901 686 CURVE",
"1073 686 LINE",
"1073 829 LINE",
"885 829 LINE",
"864 963 OFFCURVE",
"825 1091 OFFCURVE",
"768 1214 CURVE",
"652 1184 OFFCURVE",
"540 1169 OFFCURVE",
"432 1169 CURVE SMOOTH",
"303 1169 OFFCURVE",
"191 1184 OFFCURVE",
"96 1214 CURVE",
"96 1055 LINE",
"183 1022 OFFCURVE",
"295 1006 OFFCURVE",
"432 1006 CURVE SMOOTH",
"514 1006 OFFCURVE",
"583 1011 OFFCURVE",
"639 1022 CURVE",
"669 953 OFFCURVE",
"691 888 OFFCURVE",
"705 829 CURVE",
"172 829 LINE",
"172 686 LINE",
"725 686 LINE",
"728 651 OFFCURVE",
"729 623 OFFCURVE",
"729 604 CURVE SMOOTH",
"729 571 OFFCURVE",
"728 547 OFFCURVE",
"727 532 CURVE",
"172 532 LINE",
"172 389 LINE",
"711 389 LINE",
"686 255 OFFCURVE",
"634 125 OFFCURVE",
"553 0 CURVE"
);
}
);
width = 1155;
}
);
note = uni1C4E;
unicode = 1C4E;
},
{
glyphname = uni1C4F;
lastChange = "2016-11-10 17:41:46 +0000";
layers = (
{
layerId = "950E4965-652C-4E49-8BA2-A8792AD091D1";
paths = (
{
closed = 1;
nodes = (
"1051 0 LINE",
"1153 165 OFFCURVE",
"1204 367 OFFCURVE",
"1204 604 CURVE SMOOTH",
"1204 817 OFFCURVE",
"1158 1021 OFFCURVE",
"1065 1214 CURVE",
"923 1171 OFFCURVE",
"785 1146 OFFCURVE",
"651 1141 CURVE",
"666 1174 OFFCURVE",
"690 1212 OFFCURVE",
"721 1257 CURVE",
"524 1257 LINE",
"494 1208 OFFCURVE",
"474 1170 OFFCURVE",
"463 1143 CURVE",
"322 1151 OFFCURVE",
"200 1175 OFFCURVE",
"96 1214 CURVE",
"96 1055 LINE",
"181 1019 OFFCURVE",
"287 994 OFFCURVE",
"416 981 CURVE",
"406 917 OFFCURVE",
"401 856 OFFCURVE",
"401 799 CURVE SMOOTH",
"401 666 OFFCURVE",
"439 537 OFFCURVE",
"514 410 CURVE",
"487 415 OFFCURVE",
"455 418 OFFCURVE",
"420 418 CURVE SMOOTH",
"289 418 OFFCURVE",
"181 402 OFFCURVE",
"96 369 CURVE",
"96 209 LINE",
"189 239 OFFCURVE",
"297 254 OFFCURVE",
"420 254 CURVE SMOOTH",
"525 254 OFFCURVE",
"633 239 OFFCURVE",
"743 209 CURVE",
"743 367 LINE",
"631 508 OFFCURVE",
"575 652 OFFCURVE",
"575 799 CURVE SMOOTH",
"575 862 OFFCURVE",
"581 920 OFFCURVE",
"594 975 CURVE",
"725 975 OFFCURVE",
"842 988 OFFCURVE",
"944 1014 CURVE",
"1001 879 OFFCURVE",
"1030 742 OFFCURVE",
"1030 604 CURVE SMOOTH",
"1030 372 OFFCURVE",
"977 193 OFFCURVE",
"854 0 CURVE"
);
}
);
width = 1358;
}
);
note = uni1C4F;
unicode = 1C4F;
},
{
glyphname = uni1C40;
lastChange = "2016-11-10 17:41:46 +0000";
layers = (
{
layerId = "950E4965-652C-4E49-8BA2-A8792AD091D1";
paths = (
{
closed = 1;
nodes = (
"750 -29 OFFCURVE",
"891 197 OFFCURVE",
"891 596 CURVE SMOOTH",
"891 997 OFFCURVE",
"750 1223 OFFCURVE",
"502 1223 CURVE SMOOTH",
"253 1223 OFFCURVE",
"113 997 OFFCURVE",
"113 596 CURVE SMOOTH",
"113 197 OFFCURVE",
"253 -29 OFFCURVE",
"502 -29 CURVE SMOOTH"
);
},
{
closed = 1;
nodes = (
"433 135 OFFCURVE",
"381 175 OFFCURVE",
"344 255 CURVE SMOOTH",
"307 335 OFFCURVE",
"289 449 OFFCURVE",
"289 596 CURVE SMOOTH",
"289 743 OFFCURVE",
"307 857 OFFCURVE",
"344 938 CURVE SMOOTH",
"381 1019 OFFCURVE",
"433 1059 OFFCURVE",
"502 1059 CURVE SMOOTH",
"570 1059 OFFCURVE",
"623 1019 OFFCURVE",
"660 938 CURVE SMOOTH",
"697 857 OFFCURVE",
"715 743 OFFCURVE",
"715 596 CURVE SMOOTH",
"715 449 OFFCURVE",
"697 335 OFFCURVE",
"660 255 CURVE SMOOTH",
"623 175 OFFCURVE",
"570 135 OFFCURVE",
"502 135 CURVE SMOOTH"
);
}
);
width = 1004;
}
);
note = uni1C40;
unicode = 1C40;
},
{
glyphname = uni1C41;
lastChange = "2016-11-10 17:41:46 +0000";
layers = (
{
layerId = "950E4965-652C-4E49-8BA2-A8792AD091D1";
paths = (
{
closed = 1;
nodes = (
"757 154 OFFCURVE",
"836 376 OFFCURVE",
"836 635 CURVE SMOOTH",
"836 763 OFFCURVE",
"820 872 OFFCURVE",
"787 961 CURVE SMOOTH",
"721 1139 OFFCURVE",
"607 1223 OFFCURVE",
"471 1223 CURVE SMOOTH",
"408 1223 OFFCURVE",
"351 1205 OFFCURVE",
"300 1169 CURVE SMOOTH",
"197 1096 OFFCURVE",
"133 959 OFFCURVE",
"133 784 CURVE SMOOTH",
"133 698 OFFCURVE",
"148 623 OFFCURVE",
"178 558 CURVE SMOOTH",
"238 429 OFFCURVE",
"344 354 OFFCURVE",
"469 354 CURVE SMOOTH",
"560 354 OFFCURVE",
"641 419 OFFCURVE",
"680 504 CURVE",
"688 504 LINE",
"669 349 OFFCURVE",
"598 200 OFFCURVE",
"475 57 CURVE",
"600 -29 LINE"
);
},
{
closed = 1;
nodes = (
"444 510 OFFCURVE",
"417 521 OFFCURVE",
"390 542 CURVE SMOOTH",
"337 584 OFFCURVE",
"301 669 OFFCURVE",
"301 784 CURVE SMOOTH",
"301 841 OFFCURVE",
"309 891 OFFCURVE",
"326 933 CURVE SMOOTH",
"358 1016 OFFCURVE",
"416 1059 OFFCURVE",
"471 1059 CURVE SMOOTH",
"498 1059 OFFCURVE",
"525 1048 OFFCURVE",
"552 1027 CURVE SMOOTH",
"605 984 OFFCURVE",
"641 899 OFFCURVE",
"641 784 CURVE SMOOTH",
"641 727 OFFCURVE",
"633 677 OFFCURVE",
"617 636 CURVE SMOOTH",
"584 552 OFFCURVE",
"526 510 OFFCURVE",
"471 510 CURVE SMOOTH"
);
}
);
width = 1004;
}
);
note = uni1C41;
unicode = 1C41;
},
{
glyphname = uni1C42;
lastChange = "2016-11-10 17:41:46 +0000";
layers = (
{
layerId = "950E4965-652C-4E49-8BA2-A8792AD091D1";
paths = (
{
closed = 1;
nodes = (
"838 123 LINE",
"395 459 LINE",
"399 465 LINE",
"529 465 OFFCURVE",
"643 481 OFFCURVE",
"741 514 CURVE SMOOTH",
"936 579 OFFCURVE",
"1042 696 OFFCURVE",
"1042 836 CURVE SMOOTH",
"1042 908 OFFCURVE",
"1015 971 OFFCURVE",
"960 1024 CURVE SMOOTH",
"850 1131 OFFCURVE",
"652 1188 OFFCURVE",
"428 1188 CURVE SMOOTH",
"308 1188 OFFCURVE",
"199 1169 OFFCURVE",
"102 1130 CURVE",
"150 979 LINE",
"234 1009 OFFCURVE",
"327 1024 OFFCURVE",
"430 1024 CURVE SMOOTH",
"512 1024 OFFCURVE",
"587 1015 OFFCURVE",
"654 998 CURVE SMOOTH",
"788 962 OFFCURVE",
"866 897 OFFCURVE",
"866 825 CURVE SMOOTH",
"866 787 OFFCURVE",
"846 752 OFFCURVE",
"805 719 CURVE SMOOTH",
"723 654 OFFCURVE",
"566 608 OFFCURVE",
"373 608 CURVE SMOOTH",
"325 608 OFFCURVE",
"279 611 OFFCURVE",
"236 618 CURVE",
"137 496 LINE",
"739 2 LINE"
);
}
);
width = 1149;
}
);
note = uni1C42;
unicode = 1C42;
},
{
glyphname = uni1C43;
lastChange = "2016-11-10 17:41:46 +0000";
layers = (
{
layerId = "950E4965-652C-4E49-8BA2-A8792AD091D1";
paths = (
{
closed = 1;
nodes = (
"774 92 LINE",
"485 262 LINE",
"487 268 LINE",
"504 265 OFFCURVE",
"522 264 OFFCURVE",
"543 264 CURVE SMOOTH",
"630 264 OFFCURVE",
"710 275 OFFCURVE",
"782 298 CURVE SMOOTH",
"925 343 OFFCURVE",
"1016 426 OFFCURVE",
"1016 526 CURVE SMOOTH",
"1016 612 OFFCURVE",
"963 681 OFFCURVE",
"858 733 CURVE",
"963 785 OFFCURVE",
"1016 849 OFFCURVE",
"1016 924 CURVE SMOOTH",
"1016 1104 OFFCURVE",
"814 1223 OFFCURVE",
"451 1223 CURVE SMOOTH",
"333 1223 OFFCURVE",
"227 1206 OFFCURVE",
"133 1171 CURVE",
"182 1020 LINE",
"256 1046 OFFCURVE",
"346 1059 OFFCURVE",
"451 1059 CURVE SMOOTH",
"570 1059 OFFCURVE",
"665 1046 OFFCURVE",
"737 1020 CURVE SMOOTH",
"808 994 OFFCURVE",
"844 962 OFFCURVE",
"844 924 CURVE SMOOTH",
"844 877 OFFCURVE",
"791 837 OFFCURVE",
"686 803 CURVE",
"612 822 OFFCURVE",
"534 831 OFFCURVE",
"451 831 CURVE SMOOTH",
"333 831 OFFCURVE",
"227 814 OFFCURVE",
"133 780 CURVE",
"182 629 LINE",
"256 655 OFFCURVE",
"346 668 OFFCURVE",
"451 668 CURVE SMOOTH",
"574 668 OFFCURVE",
"670 654 OFFCURVE",
"740 627 CURVE SMOOTH",
"809 600 OFFCURVE",
"844 566 OFFCURVE",
"844 526 CURVE SMOOTH",
"844 491 OFFCURVE",
"811 460 OFFCURVE",
"745 435 CURVE SMOOTH",
"678 410 OFFCURVE",
"591 397 OFFCURVE",
"483 397 CURVE SMOOTH",
"426 397 OFFCURVE",
"373 403 OFFCURVE",
"324 414 CURVE",
"229 272 LINE",
"688 -37 LINE"
);
}
);
width = 1180;
}
);
note = uni1C43;
unicode = 1C43;
},
{
glyphname = uni1C44;
lastChange = "2016-11-10 17:41:46 +0000";
layers = (
{
layerId = "950E4965-652C-4E49-8BA2-A8792AD091D1";
paths = (
{
closed = 1;
nodes = (
"970 279 OFFCURVE",
"1133 307 OFFCURVE",
"1276 362 CURVE",
"1223 522 LINE",
"1094 470 OFFCURVE",
"946 444 OFFCURVE",
"778 444 CURVE SMOOTH",
"609 444 OFFCURVE",
"458 470 OFFCURVE",
"326 522 CURVE",
"428 801 LINE",
"535 768 OFFCURVE",
"653 752 OFFCURVE",
"782 752 CURVE SMOOTH",
"928 752 OFFCURVE",
"1061 774 OFFCURVE",
"1180 817 CURVE",
"1130 977 LINE",
"1027 938 OFFCURVE",
"909 918 OFFCURVE",
"776 918 CURVE SMOOTH",
"621 918 OFFCURVE",
"471 947 OFFCURVE",
"326 1004 CURVE",
"113 434 LINE",
"311 331 OFFCURVE",
"536 279 OFFCURVE",
"788 279 CURVE SMOOTH"
);
}
);
width = 1389;
}
);
note = uni1C44;
unicode = 1C44;
},
{
glyphname = uni1C45;
lastChange = "2016-11-10 17:41:46 +0000";
layers = (
{
layerId = "950E4965-652C-4E49-8BA2-A8792AD091D1";
paths = (
{
closed = 1;
nodes = (
"1270 137 LINE",
"1169 282 OFFCURVE",
"1120 416 OFFCURVE",
"1120 580 CURVE SMOOTH",
"1120 768 OFFCURVE",
"1159 892 OFFCURVE",
"1251 1028 CURVE",
"1139 1141 LINE",
"573 596 LINE SMOOTH",
"501 527 OFFCURVE",
"436 454 OFFCURVE",
"379 377 CURVE",
"373 381 LINE",
"400 450 OFFCURVE",
"414 538 OFFCURVE",
"414 643 CURVE SMOOTH",
"414 830 OFFCURVE",
"361 998 OFFCURVE",
"256 1147 CURVE",
"113 1057 LINE",
"213 912 OFFCURVE",
"262 778 OFFCURVE",
"262 614 CURVE SMOOTH",
"262 426 OFFCURVE",
"224 302 OFFCURVE",
"131 166 CURVE",
"244 53 LINE",
"809 598 LINE SMOOTH",
"882 667 OFFCURVE",
"947 740 OFFCURVE",
"1004 817 CURVE",
"1010 813 LINE",
"983 744 OFFCURVE",
"969 656 OFFCURVE",
"969 551 CURVE SMOOTH",
"969 364 OFFCURVE",
"1021 196 OFFCURVE",
"1126 47 CURVE"
);
}
);
width = 1382;
}
);
note = uni1C45;
unicode = 1C45;
},
{
glyphname = uni1C46;
lastChange = "2016-11-10 17:41:46 +0000";
layers = (
{
layerId = "950E4965-652C-4E49-8BA2-A8792AD091D1";
paths = (
{
closed = 1;
nodes = (
"939 -16 OFFCURVE",
"1067 108 OFFCURVE",
"1067 307 CURVE SMOOTH",
"1067 492 OFFCURVE",
"970 638 OFFCURVE",
"678 805 CURVE",
"780 997 LINE",
"1014 881 LINE",
"1087 1032 LINE",
"705 1221 LINE",
"453 739 LINE",
"573 676 OFFCURVE",
"665 620 OFFCURVE",
"728 571 CURVE SMOOTH",
"855 471 OFFCURVE",
"891 398 OFFCURVE",
"891 307 CURVE SMOOTH",
"891 206 OFFCURVE",
"831 147 OFFCURVE",
"719 147 CURVE SMOOTH",
"531 147 OFFCURVE",
"364 233 OFFCURVE",
"160 418 CURVE",
"51 287 LINE",
"286 79 OFFCURVE",
"475 -16 OFFCURVE",
"715 -16 CURVE SMOOTH"
);
}
);
width = 1210;
}
);
note = uni1C46;
unicode = 1C46;
},
{
glyphname = uni1C47;
lastChange = "2016-11-10 17:41:46 +0000";
layers = (
{
layerId = "950E4965-652C-4E49-8BA2-A8792AD091D1";
paths = (
{
closed = 1;
nodes = (
"727 257 OFFCURVE",
"821 443 OFFCURVE",
"821 672 CURVE SMOOTH",
"821 873 OFFCURVE",
"750 1029 OFFCURVE",
"569 1206 CURVE",
"436 1096 LINE",
"600 932 OFFCURVE",
"657 804 OFFCURVE",
"657 651 CURVE SMOOTH",
"657 487 OFFCURVE",
"592 346 OFFCURVE",
"428 182 CURVE",
"422 186 LINE",
"444 248 OFFCURVE",
"455 309 OFFCURVE",
"455 369 CURVE SMOOTH",
"455 562 OFFCURVE",
"385 729 OFFCURVE",
"205 934 CURVE",
"72 823 LINE",
"239 630 OFFCURVE",
"297 507 OFFCURVE",
"297 338 CURVE SMOOTH",
"297 264 OFFCURVE",
"283 187 OFFCURVE",
"254 106 CURVE",
"455 -12 LINE"
);
}
);
width = 965;
}
);
note = uni1C47;
unicode = 1C47;
},
{
glyphname = uni1C48;
lastChange = "2016-11-10 17:41:46 +0000";
layers = (
{
layerId = "950E4965-652C-4E49-8BA2-A8792AD091D1";
paths = (
{
closed = 1;
nodes = (
"1024 199 LINE",
"836 324 OFFCURVE",
"612 377 OFFCURVE",
"291 377 CURVE",
"312 756 OFFCURVE",
"462 946 OFFCURVE",
"741 946 CURVE SMOOTH",
"820 946 OFFCURVE",
"897 933 OFFCURVE",
"971 907 CURVE",
"971 1081 LINE",
"898 1100 OFFCURVE",
"822 1110 OFFCURVE",
"741 1110 CURVE SMOOTH",
"318 1110 OFFCURVE",
"113 792 OFFCURVE",
"113 211 CURVE",
"268 211 LINE SMOOTH",
"580 211 OFFCURVE",
"773 162 OFFCURVE",
"940 53 CURVE"
);
}
);
width = 1116;
}
);
note = uni1C48;
unicode = 1C48;
},
{
glyphname = uni1C49;
lastChange = "2016-11-10 17:41:46 +0000";
layers = (
{
layerId = "950E4965-652C-4E49-8BA2-A8792AD091D1";
paths = (
{
closed = 1;
nodes = (
"606 104 LINE",
"407 283 OFFCURVE",
"311 468 OFFCURVE",
"311 715 CURVE SMOOTH",
"311 944 OFFCURVE",
"380 1059 OFFCURVE",
"518 1059 CURVE SMOOTH",
"638 1059 OFFCURVE",
"707 978 OFFCURVE",
"707 834 CURVE SMOOTH",
"707 715 OFFCURVE",
"667 638 OFFCURVE",
"571 543 CURVE",
"809 338 LINE",
"920 469 LINE",
"795 575 LINE",
"848 648 OFFCURVE",
"874 735 OFFCURVE",
"874 838 CURVE SMOOTH",
"874 1070 OFFCURVE",
"747 1223 OFFCURVE",
"526 1223 CURVE SMOOTH",
"289 1223 OFFCURVE",
"143 1041 OFFCURVE",
"143 702 CURVE SMOOTH",
"143 425 OFFCURVE",
"259 185 OFFCURVE",
"492 -18 CURVE"
);
}
);
width = 1032;
}
);
note = uni1C49;
unicode = 1C49;
},
{
glyphname = uni1C3B;
lastChange = "2016-11-10 17:41:46 +0000";
layers = (
{
layerId = "950E4965-652C-4E49-8BA2-A8792AD091D1";
paths = (
{
closed = 1;
nodes = (
"317 0 LINE",
"348 1194 LINE",
"164 1194 LINE",
"195 0 LINE"
);
}
);
width = 512;
}
);
note = uni1C3B;
unicode = 1C3B;
},
{
glyphname = uni1C3D;
lastChange = "2016-11-10 17:41:46 +0000";
layers = (
{
layerId = "950E4965-652C-4E49-8BA2-A8792AD091D1";
paths = (
{
closed = 1;
nodes = (
"537 483 LINE",
"866 119 LINE",
"991 231 LINE",
"651 608 LINE",
"991 985 LINE",
"866 1100 LINE",
"537 735 LINE",
"207 1100 LINE",
"82 985 LINE",
"422 608 LINE",
"82 231 LINE",
"207 119 LINE"
);
}
);
width = 1073;
}
);
note = uni1C3D;
unicode = 1C3D;
},
{
glyphname = uni1C3F;
lastChange = "2016-11-10 17:41:46 +0000";
layers = (
{
layerId = "950E4965-652C-4E49-8BA2-A8792AD091D1";
paths = (
{
closed = 1;
nodes = (
"1122 0 LINE",
"995 180 OFFCURVE",
"932 377 OFFCURVE",
"932 592 CURVE SMOOTH",
"932 797 OFFCURVE",
"995 987 OFFCURVE",
"1122 1163 CURVE",
"1006 1243 LINE",
"842 1030 OFFCURVE",
"772 833 OFFCURVE",
"772 580 CURVE SMOOTH",
"772 333 OFFCURVE",
"840 107 OFFCURVE",
"975 -98 CURVE"
);
},
{
closed = 1;
nodes = (
"664 111 OFFCURVE",
"709 152 OFFCURVE",
"709 225 CURVE SMOOTH",
"709 302 OFFCURVE",
"664 340 OFFCURVE",
"604 340 CURVE SMOOTH",
"539 340 OFFCURVE",
"496 302 OFFCURVE",
"496 225 CURVE SMOOTH",
"496 152 OFFCURVE",
"539 111 OFFCURVE",
"604 111 CURVE SMOOTH"
);
},
{
closed = 1;
nodes = (
"363 114 OFFCURVE",
"432 312 OFFCURVE",
"432 565 CURVE SMOOTH",
"432 812 OFFCURVE",
"364 1038 OFFCURVE",
"229 1243 CURVE",
"82 1145 LINE",
"209 964 OFFCURVE",
"272 767 OFFCURVE",
"272 553 CURVE SMOOTH",
"272 348 OFFCURVE",
"209 158 OFFCURVE",
"82 -18 CURVE",
"199 -98 LINE"
);
},
{
closed = 1;
nodes = (
"664 827 OFFCURVE",
"709 869 OFFCURVE",
"709 942 CURVE SMOOTH",
"709 1018 OFFCURVE",
"664 1057 OFFCURVE",
"604 1057 CURVE SMOOTH",
"539 1057 OFFCURVE",
"496 1018 OFFCURVE",
"496 942 CURVE SMOOTH",
"496 869 OFFCURVE",
"539 827 OFFCURVE",
"604 827 CURVE SMOOTH"
);
}
);
width = 1204;
}
);
note = uni1C3F;
unicode = 1C3F;
},
{
glyphname = .notdef;
lastChange = "2016-11-10 17:41:46 +0000";
layers = (
{
layerId = "950E4965-652C-4E49-8BA2-A8792AD091D1";
paths = (
{
closed = 1;
nodes = (
"1034 0 LINE",
"1034 1462 LINE",
"193 1462 LINE",
"193 0 LINE"
);
},
{
closed = 1;
nodes = (
"297 1358 LINE",
"930 1358 LINE",
"930 104 LINE",
"297 104 LINE"
);
}
);
width = 1229;
}
);
note = .notdef;
},
{
glyphname = uni25CC;
lastChange = "2016-11-10 17:41:46 +0000";
layers = (
{
layerId = "950E4965-652C-4E49-8BA2-A8792AD091D1";
paths = (
{
closed = 1;
nodes = (
"826 813 OFFCURVE",
"846 833 OFFCURVE",
"846 872 CURVE SMOOTH",
"846 912 OFFCURVE",
"826 932 OFFCURVE",
"786 932 CURVE SMOOTH",
"747 932 OFFCURVE",
"727 912 OFFCURVE",
"727 872 CURVE SMOOTH",
"727 833 OFFCURVE",
"747 813 OFFCURVE",
"786 813 CURVE SMOOTH"
);
},
{
closed = 1;
nodes = (
"295 303 OFFCURVE",
"315 323 OFFCURVE",
"315 362 CURVE SMOOTH",
"315 402 OFFCURVE",
"295 422 OFFCURVE",
"256 422 CURVE SMOOTH",
"218 422 OFFCURVE",
"199 402 OFFCURVE",
"199 362 CURVE SMOOTH",
"199 323 OFFCURVE",
"218 303 OFFCURVE",
"256 303 CURVE SMOOTH"
);
},
{
closed = 1;
nodes = (
"204 559 OFFCURVE",
"223 579 OFFCURVE",
"223 618 CURVE SMOOTH",
"223 657 OFFCURVE",
"204 676 OFFCURVE",
"166 676 CURVE SMOOTH",
"126 676 OFFCURVE",
"106 657 OFFCURVE",
"106 618 CURVE SMOOTH",
"106 579 OFFCURVE",
"126 559 OFFCURVE",
"166 559 CURVE SMOOTH"
);
},
{
closed = 1;
nodes = (
"561 201 OFFCURVE",
"582 221 OFFCURVE",
"582 260 CURVE SMOOTH",
"582 299 OFFCURVE",
"561 319 OFFCURVE",
"520 319 CURVE SMOOTH",
"482 319 OFFCURVE",
"463 299 OFFCURVE",
"463 260 CURVE SMOOTH",
"463 221 OFFCURVE",
"482 201 OFFCURVE",
"520 201 CURVE SMOOTH"
);
},
{
closed = 1;
nodes = (
"295 813 OFFCURVE",
"315 833 OFFCURVE",
"315 872 CURVE SMOOTH",
"315 912 OFFCURVE",
"295 932 OFFCURVE",
"256 932 CURVE SMOOTH",
"218 932 OFFCURVE",
"199 912 OFFCURVE",
"199 872 CURVE SMOOTH",
"199 833 OFFCURVE",
"218 813 OFFCURVE",
"256 813 CURVE SMOOTH"
);
},
{
closed = 1;
nodes = (
"826 303 OFFCURVE",
"846 323 OFFCURVE",
"846 362 CURVE SMOOTH",
"846 402 OFFCURVE",
"826 422 OFFCURVE",
"786 422 CURVE SMOOTH",
"747 422 OFFCURVE",
"727 402 OFFCURVE",
"727 362 CURVE SMOOTH",
"727 323 OFFCURVE",
"747 303 OFFCURVE",
"786 303 CURVE SMOOTH"
);
},
{
closed = 1;
nodes = (
"561 915 OFFCURVE",
"582 935 OFFCURVE",
"582 975 CURVE SMOOTH",
"582 1013 OFFCURVE",
"561 1032 OFFCURVE",
"520 1032 CURVE SMOOTH",
"482 1032 OFFCURVE",
"463 1013 OFFCURVE",
"463 975 CURVE SMOOTH",
"463 935 OFFCURVE",
"482 915 OFFCURVE",
"520 915 CURVE SMOOTH"
);
},
{
closed = 1;
nodes = (
"918 559 OFFCURVE",
"938 579 OFFCURVE",
"938 618 CURVE SMOOTH",
"938 657 OFFCURVE",
"918 676 OFFCURVE",
"879 676 CURVE SMOOTH",
"839 676 OFFCURVE",
"819 657 OFFCURVE",
"819 618 CURVE SMOOTH",
"819 579 OFFCURVE",
"839 559 OFFCURVE",
"879 559 CURVE SMOOTH"
);
}
);
width = 1044;
}
);
note = uni25CC;
unicode = 25CC;
},
{
glyphname = uni1C2D;
lastChange = "2016-11-10 17:41:46 +0000";
layers = (
{
layerId = "950E4965-652C-4E49-8BA2-A8792AD091D1";
paths = (
{
closed = 1;
nodes = (
"64 1300 OFFCURVE",
"109 1340 OFFCURVE",
"109 1411 CURVE SMOOTH",
"109 1456 OFFCURVE",
"91 1488 OFFCURVE",
"55 1507 CURVE",
"38 1517 OFFCURVE",
"29 1527 OFFCURVE",
"29 1536 CURVE SMOOTH",
"29 1558 OFFCURVE",
"51 1589 OFFCURVE",
"96 1630 CURVE",
"20 1700 LINE",
"-61 1626 OFFCURVE",
"-102 1538 OFFCURVE",
"-102 1436 CURVE SMOOTH",
"-102 1345 OFFCURVE",
"-67 1300 OFFCURVE",
"4 1300 CURVE SMOOTH"
);
}
);
width = 0;
}
);
note = uni1C2D;
unicode = 1C2D;
},
{
glyphname = uni1C2E;
lastChange = "2016-11-10 17:41:46 +0000";
layers = (
{
layerId = "950E4965-652C-4E49-8BA2-A8792AD091D1";
paths = (
{
closed = 1;
nodes = (
"238 1300 OFFCURVE",
"283 1342 OFFCURVE",
"283 1415 CURVE SMOOTH",
"283 1492 OFFCURVE",
"238 1530 OFFCURVE",
"178 1530 CURVE SMOOTH",
"115 1530 OFFCURVE",
"72 1492 OFFCURVE",
"72 1415 CURVE SMOOTH",
"72 1342 OFFCURVE",
"115 1300 OFFCURVE",
"178 1300 CURVE SMOOTH"
);
},
{
closed = 1;
nodes = (
"-112 1300 OFFCURVE",
"-68 1342 OFFCURVE",
"-68 1415 CURVE SMOOTH",
"-68 1492 OFFCURVE",
"-112 1530 OFFCURVE",
"-172 1530 CURVE SMOOTH",
"-235 1530 OFFCURVE",
"-279 1492 OFFCURVE",
"-279 1415 CURVE SMOOTH",
"-279 1342 OFFCURVE",
"-235 1300 OFFCURVE",
"-172 1300 CURVE SMOOTH"
);
}
);
width = 0;
}
);
note = uni1C2E;
unicode = 1C2E;
},
{
glyphname = uni1C2F;
lastChange = "2016-11-10 17:41:46 +0000";
layers = (
{
layerId = "950E4965-652C-4E49-8BA2-A8792AD091D1";
paths = (
{
closed = 1;
nodes = (
"-140 1300 OFFCURVE",
"-98 1338 OFFCURVE",
"-98 1403 CURVE SMOOTH",
"-98 1471 OFFCURVE",
"-140 1503 OFFCURVE",
"-195 1503 CURVE SMOOTH",
"-259 1503 OFFCURVE",
"-291 1470 OFFCURVE",
"-291 1403 CURVE SMOOTH",
"-291 1338 OFFCURVE",
"-252 1300 OFFCURVE",
"-195 1300 CURVE SMOOTH"
);
},
{
closed = 1;
nodes = (
"250 1300 OFFCURVE",
"291 1338 OFFCURVE",
"291 1403 CURVE SMOOTH",
"291 1471 OFFCURVE",
"250 1503 OFFCURVE",
"195 1503 CURVE SMOOTH",
"140 1503 OFFCURVE",
"100 1471 OFFCURVE",
"100 1403 CURVE SMOOTH",
"100 1338 OFFCURVE",
"140 1300 OFFCURVE",
"195 1300 CURVE SMOOTH"
);
},
{
closed = 1;
nodes = (
"57 1518 OFFCURVE",
"98 1555 OFFCURVE",
"98 1620 CURVE SMOOTH",
"98 1688 OFFCURVE",
"57 1720 OFFCURVE",
"2 1720 CURVE SMOOTH",
"-62 1720 OFFCURVE",
"-94 1687 OFFCURVE",
"-94 1620 CURVE SMOOTH",
"-94 1555 OFFCURVE",
"-55 1518 OFFCURVE",
"2 1518 CURVE SMOOTH"
);
}
);
width = 0;
}
);
note = uni1C2F;
unicode = 1C2F;
},
{
glyphname = uni1C30;
lastChange = "2016-11-10 17:37:31 +0000";
layers = (
{
layerId = "950E4965-652C-4E49-8BA2-A8792AD091D1";
paths = (
{
closed = 1;
nodes = (
"-160 1409 OFFCURVE",
"-106 1490 OFFCURVE",
"-60 1534 CURVE SMOOTH",
"-15 1577 OFFCURVE",
"35 1599 OFFCURVE",
"90 1599 CURVE SMOOTH",
"153 1599 OFFCURVE",
"197 1563 OFFCURVE",
"197 1511 CURVE SMOOTH",
"197 1448 OFFCURVE",
"149 1411 OFFCURVE",
"78 1411 CURVE SMOOTH",
"29 1411 OFFCURVE",
"-11 1423 OFFCURVE",
"-41 1448 CURVE",
"-41 1327 LINE",
"-11 1309 OFFCURVE",
"29 1300 OFFCURVE",
"78 1300 CURVE SMOOTH",
"219 1300 OFFCURVE",
"317 1382 OFFCURVE",
"317 1513 CURVE SMOOTH",
"317 1640 OFFCURVE",
"221 1720 OFFCURVE",
"90 1720 CURVE SMOOTH",
"-71 1720 OFFCURVE",
"-185 1623 OFFCURVE",
"-330 1356 CURVE",
"-221 1290 LINE"
);
}
);
width = 0;
}
);
note = uni1C30;
unicode = 1C30;
},
{
glyphname = uni1C31;
lastChange = "2016-11-10 17:41:46 +0000";
layers = (
{
layerId = "950E4965-652C-4E49-8BA2-A8792AD091D1";
paths = (
{
closed = 1;
nodes = (
"131 1300 OFFCURVE",
"225 1383 OFFCURVE",
"225 1520 CURVE SMOOTH",
"225 1651 OFFCURVE",
"129 1733 OFFCURVE",
"-2 1733 CURVE SMOOTH",
"-135 1733 OFFCURVE",
"-225 1651 OFFCURVE",
"-225 1518 CURVE SMOOTH",
"-225 1381 OFFCURVE",
"-135 1300 OFFCURVE",
"-2 1300 CURVE SMOOTH"
);
},
{
closed = 1;
nodes = (
"-75 1403 OFFCURVE",
"-117 1446 OFFCURVE",
"-117 1518 CURVE SMOOTH",
"-117 1589 OFFCURVE",
"-70 1632 OFFCURVE",
"-2 1632 CURVE SMOOTH",
"66 1632 OFFCURVE",
"113 1589 OFFCURVE",
"113 1518 CURVE SMOOTH",
"113 1446 OFFCURVE",
"66 1403 OFFCURVE",
"-2 1403 CURVE SMOOTH"
);
}
);
width = 0;
}
);
note = uni1C31;
unicode = 1C31;
},
{
glyphname = uni1C32;
lastChange = "2016-11-10 17:41:46 +0000";
layers = (
{
layerId = "950E4965-652C-4E49-8BA2-A8792AD091D1";
paths = (
{
closed = 1;
nodes = (
"-272 1303 LINE",
"-272 1409 OFFCURVE",
"-235 1462 OFFCURVE",
"-160 1462 CURVE SMOOTH",
"-113 1462 OFFCURVE",
"-77 1437 OFFCURVE",
"-20 1389 CURVE SMOOTH",
"45 1334 OFFCURVE",
"88 1305 OFFCURVE",
"152 1305 CURVE SMOOTH",
"291 1305 OFFCURVE",
"377 1416 OFFCURVE",
"377 1608 CURVE",
"272 1608 LINE",
"272 1501 OFFCURVE",
"235 1448 OFFCURVE",
"160 1448 CURVE SMOOTH",
"116 1448 OFFCURVE",
"87 1469 OFFCURVE",
"27 1518 CURVE SMOOTH",
"-40 1575 OFFCURVE",
"-83 1606 OFFCURVE",
"-152 1606 CURVE SMOOTH",
"-291 1606 OFFCURVE",
"-377 1494 OFFCURVE",
"-377 1303 CURVE"
);
}
);
width = 0;
}
);
note = uni1C32;
unicode = 1C32;
},
{
glyphname = uni1C33;
lastChange = "2016-11-10 17:41:46 +0000";
layers = (
{
layerId = "950E4965-652C-4E49-8BA2-A8792AD091D1";
paths = (
{
closed = 1;
nodes = (
"305 1323 LINE",
"305 1468 LINE",
"-305 1468 LINE",
"-305 1323 LINE"
);
}
);
width = 0;
}
);
note = uni1C33;
unicode = 1C33;
},
{
glyphname = uni1C36;
lastChange = "2016-11-10 17:41:46 +0000";
layers = (
{
layerId = "950E4965-652C-4E49-8BA2-A8792AD091D1";
paths = (
{
closed = 1;
nodes = (
"-143 1382 LINE",
"-76 1331 OFFCURVE",
"-3 1305 OFFCURVE",
"78 1305 CURVE SMOOTH",
"161 1305 OFFCURVE",
"243 1331 OFFCURVE",
"324 1384 CURVE",
"258 1518 LINE",
"198 1477 OFFCURVE",
"138 1456 OFFCURVE",
"78 1456 CURVE SMOOTH",
"1 1456 OFFCURVE",
"-74 1490 OFFCURVE",
"-147 1559 CURVE",
"-324 1370 LINE",
"-233 1284 LINE"
);
}
);
width = 0;
}
);
note = uni1C36;
unicode = 1C36;
},
{
glyphname = uni1C37;
lastChange = "2016-11-10 17:41:46 +0000";
layers = (
{
layerId = "950E4965-652C-4E49-8BA2-A8792AD091D1";
paths = (
{
closed = 1;
nodes = (
"62 -412 OFFCURVE",
"106 -370 OFFCURVE",
"106 -297 CURVE SMOOTH",
"106 -221 OFFCURVE",
"62 -182 OFFCURVE",
"2 -182 CURVE SMOOTH",
"-63 -182 OFFCURVE",
"-106 -221 OFFCURVE",
"-106 -297 CURVE SMOOTH",
"-106 -370 OFFCURVE",
"-63 -412 OFFCURVE",
"2 -412 CURVE SMOOTH"
);
}
);
width = 0;
}
);
note = uni1C37;
unicode = 1C37;
},
{
glyphname = uni1C2C;
lastChange = "2016-11-10 17:41:46 +0000";
layers = (
{
layerId = "950E4965-652C-4E49-8BA2-A8792AD091D1";
paths = (
{
closed = 1;
nodes = (
"354 -319 LINE",
"277 -284 OFFCURVE",
"191 -266 OFFCURVE",
"98 -266 CURVE SMOOTH",
"-5 -266 OFFCURVE",
"-95 -291 OFFCURVE",
"-172 -342 CURVE",
"-176 -338 LINE",
"-51 -168 LINE",
"-166 -94 LINE",
"-354 -391 LINE",
"-223 -475 LINE",
"-147 -437 OFFCURVE",
"-60 -418 OFFCURVE",
"39 -418 CURVE SMOOTH",
"137 -418 OFFCURVE",
"222 -438 OFFCURVE",
"295 -479 CURVE"
);
}
);
width = 0;
}
);
note = uni1C2C;
unicode = 1C2C;
},
{
glyphname = uni1C26;
lastChange = "2016-11-10 17:41:46 +0000";
layers = (
{
layerId = "950E4965-652C-4E49-8BA2-A8792AD091D1";
paths = (
{
closed = 1;
nodes = (
"436 16 LINE",
"277 195 OFFCURVE",
"201 395 OFFCURVE",
"201 590 CURVE SMOOTH",
"201 757 OFFCURVE",
"253 915 OFFCURVE",
"356 1065 CURVE",
"365 1065 LINE",
"386 914 OFFCURVE",
"454 759 OFFCURVE",
"555 639 CURVE",
"684 739 LINE",
"583 854 OFFCURVE",
"506 1028 OFFCURVE",
"489 1192 CURVE",
"279 1192 LINE",
"112 995 OFFCURVE",
"41 813 OFFCURVE",
"41 578 CURVE SMOOTH",
"41 333 OFFCURVE",
"129 107 OFFCURVE",
"305 -100 CURVE"
);
}
);
width = 725;
}
);
note = uni1C26;
unicode = 1C26;
},
{
glyphname = uni1C27;
lastChange = "2016-11-10 17:41:46 +0000";
layers = (
{
layerId = "950E4965-652C-4E49-8BA2-A8792AD091D1";
paths = (
{
closed = 1;
nodes = (
"287 -360 OFFCURVE",
"363 -337 OFFCURVE",
"430 -292 CURVE SMOOTH",
"563 -202 OFFCURVE",
"645 -24 OFFCURVE",
"645 227 CURVE SMOOTH",
"645 568 OFFCURVE",
"504 885 OFFCURVE",
"223 1178 CURVE",
"385 1360 LINE",
"618 1163 LINE",
"723 1292 LINE",
"369 1589 LINE",
"-2 1178 LINE",
"316 894 OFFCURVE",
"475 576 OFFCURVE",
"475 223 CURVE SMOOTH",
"475 -56 OFFCURVE",
"370 -199 OFFCURVE",
"209 -199 CURVE SMOOTH",
"172 -199 OFFCURVE",
"140 -189 OFFCURVE",
"111 -170 CURVE",
"37 -311 LINE",
"80 -344 OFFCURVE",
"135 -360 OFFCURVE",
"201 -360 CURVE SMOOTH"
);
}
);
width = 723;
}
);
note = uni1C27;
rightKerningGroup = uni1C27;
unicode = 1C27;
},
{
glyphname = uni1C35;
lastChange = "2016-11-10 17:41:46 +0000";
layers = (
{
layerId = "950E4965-652C-4E49-8BA2-A8792AD091D1";
paths = (
{
closed = 1;
nodes = (
"358 276 LINE",
"295 380 OFFCURVE",
"274 464 OFFCURVE",
"274 575 CURVE SMOOTH",
"274 671 OFFCURVE",
"302 762 OFFCURVE",
"358 848 CURVE",
"227 924 LINE",
"151 831 OFFCURVE",
"113 714 OFFCURVE",
"113 573 CURVE SMOOTH",
"113 424 OFFCURVE",
"138 328 OFFCURVE",
"203 203 CURVE"
);
}
);
width = 369;
}
);
note = uni1C35;
unicode = 1C35;
},
{
glyphname = uni1C34;
lastChange = "2016-11-10 17:41:46 +0000";
layers = (
{
layerId = "950E4965-652C-4E49-8BA2-A8792AD091D1";
paths = (
{
closed = 1;
nodes = (
"657 114 OFFCURVE",
"727 312 OFFCURVE",
"727 565 CURVE SMOOTH",
"727 814 OFFCURVE",
"660 1040 OFFCURVE",
"526 1243 CURVE",
"377 1145 LINE",
"504 964 OFFCURVE",
"567 767 OFFCURVE",
"567 553 CURVE SMOOTH",
"567 348 OFFCURVE",
"504 158 OFFCURVE",
"377 -18 CURVE",
"494 -98 LINE"
);
},
{
closed = 1;
nodes = (
"358 276 LINE",
"295 380 OFFCURVE",
"274 464 OFFCURVE",
"274 575 CURVE SMOOTH",
"274 671 OFFCURVE",
"302 762 OFFCURVE",
"358 848 CURVE",
"227 924 LINE",
"151 831 OFFCURVE",
"113 714 OFFCURVE",
"113 573 CURVE SMOOTH",
"113 424 OFFCURVE",
"138 328 OFFCURVE",
"203 203 CURVE"
);
}
);
width = 788;
}
);
note = uni1C34;
rightKerningGroup = uni1C34;
unicode = 1C34;
},
{
glyphname = uni1C28;
lastChange = "2016-11-10 17:41:46 +0000";
layers = (
{
layerId = "950E4965-652C-4E49-8BA2-A8792AD091D1";
paths = (
{
closed = 1;
nodes = (
"494 0 LINE",
"367 180 OFFCURVE",
"303 377 OFFCURVE",
"303 592 CURVE SMOOTH",
"303 797 OFFCURVE",
"367 987 OFFCURVE",
"494 1163 CURVE",
"377 1243 LINE",
"213 1030 OFFCURVE",
"143 833 OFFCURVE",
"143 580 CURVE SMOOTH",
"143 331 OFFCURVE",
"210 105 OFFCURVE",
"344 -98 CURVE"
);
}
);
width = 514;
}
);
note = uni1C28;
rightKerningGroup = uni1C28;
unicode = 1C28;
},
{
glyphname = uni1C29;
lastChange = "2016-11-10 17:41:46 +0000";
layers = (
{
layerId = "950E4965-652C-4E49-8BA2-A8792AD091D1";
paths = (
{
closed = 1;
nodes = (
"440 -14 LINE",
"323 187 OFFCURVE",
"274 365 OFFCURVE",
"274 610 CURVE SMOOTH",
"274 920 OFFCURVE",
"362 1192 OFFCURVE",
"539 1427 CURVE",
"671 1403 OFFCURVE",
"808 1391 OFFCURVE",
"950 1391 CURVE SMOOTH",
"1248 1391 OFFCURVE",
"1491 1422 OFFCURVE",
"1679 1485 CURVE",
"1679 1647 LINE",
"1480 1586 OFFCURVE",
"1237 1556 OFFCURVE",
"950 1556 CURVE SMOOTH",
"793 1556 OFFCURVE",
"630 1570 OFFCURVE",
"459 1599 CURVE",
"224 1288 OFFCURVE",
"113 987 OFFCURVE",
"113 596 CURVE SMOOTH",
"113 325 OFFCURVE",
"170 111 OFFCURVE",
"293 -98 CURVE"
);
}
);
width = 410;
}
);
note = uni1C29;
rightKerningGroup = uni1C29;
unicode = 1C29;
},
{
glyphname = uni1C25;
lastChange = "2016-11-10 17:41:46 +0000";
layers = (
{
layerId = "950E4965-652C-4E49-8BA2-A8792AD091D1";
paths = (
{
closed = 1;
nodes = (
"316 289 OFFCURVE",
"373 472 OFFCURVE",
"373 651 CURVE SMOOTH",
"373 811 OFFCURVE",
"329 959 OFFCURVE",
"242 1096 CURVE",
"102 1018 LINE",
"179 890 OFFCURVE",
"209 784 OFFCURVE",
"209 647 CURVE SMOOTH",
"209 489 OFFCURVE",
"167 329 OFFCURVE",
"82 168 CURVE",
"203 102 LINE"
);
}
);
width = 471;
}
);
note = uni1C25;
unicode = 1C25;
},
{
glyphname = uni1C2A;
lastChange = "2016-11-10 17:41:46 +0000";
layers = (
{
layerId = "950E4965-652C-4E49-8BA2-A8792AD091D1";
paths = (
{
closed = 1;
nodes = (
"12 -360 OFFCURVE",
"97 -331 OFFCURVE",
"174 -273 CURVE SMOOTH",
"327 -157 OFFCURVE",
"418 64 OFFCURVE",
"418 348 CURVE SMOOTH",
"418 706 OFFCURVE",
"333 1005 OFFCURVE",
"164 1245 CURVE",
"16 1161 LINE",
"171 930 OFFCURVE",
"248 661 OFFCURVE",
"248 354 CURVE SMOOTH",
"248 241 OFFCURVE",
"234 142 OFFCURVE",
"207 59 CURVE SMOOTH",
"152 -108 OFFCURVE",
"51 -199 OFFCURVE",
"-74 -199 CURVE SMOOTH",
"-111 -199 OFFCURVE",
"-143 -189 OFFCURVE",
"-172 -170 CURVE",
"-246 -311 LINE",
"-202 -344 OFFCURVE",
"-147 -360 OFFCURVE",
"-82 -360 CURVE SMOOTH"
);
}
);
width = 571;
}
);
leftKerningGroup = uni1C2A;
note = uni1C2A;
rightKerningGroup = g42;
unicode = 1C2A;
},
{
glyphname = uni1C2B;
lastChange = "2016-11-10 17:41:46 +0000";
layers = (
{
layerId = "950E4965-652C-4E49-8BA2-A8792AD091D1";
paths = (
{
closed = 1;
nodes = (
"216 -360 OFFCURVE",
"298 -341 OFFCURVE",
"371 -303 CURVE SMOOTH",
"515 -227 OFFCURVE",
"602 -71 OFFCURVE",
"602 150 CURVE SMOOTH",
"602 313 OFFCURVE",
"552 508 OFFCURVE",
"465 657 CURVE",
"550 743 OFFCURVE",
"592 836 OFFCURVE",
"592 936 CURVE SMOOTH",
"592 1103 OFFCURVE",
"491 1221 OFFCURVE",
"311 1221 CURVE SMOOTH",
"198 1221 OFFCURVE",
"95 1184 OFFCURVE",
"4 1110 CURVE",
"96 971 LINE",
"169 1028 OFFCURVE",
"240 1057 OFFCURVE",
"311 1057 CURVE SMOOTH",
"385 1057 OFFCURVE",
"422 1017 OFFCURVE",
"422 936 CURVE SMOOTH",
"422 895 OFFCURVE",
"411 857 OFFCURVE",
"389 822 CURVE SMOOTH",
"345 753 OFFCURVE",
"253 680 OFFCURVE",
"70 573 CURVE",
"158 428 LINE",
"223 469 OFFCURVE",
"281 508 OFFCURVE",
"330 545 CURVE",
"398 423 OFFCURVE",
"432 291 OFFCURVE",
"432 150 CURVE SMOOTH",
"432 -86 OFFCURVE",
"316 -199 OFFCURVE",
"131 -199 CURVE SMOOTH",
"94 -199 OFFCURVE",
"62 -189 OFFCURVE",
"33 -170 CURVE",
"-41 -311 LINE",
"3 -344 OFFCURVE",
"58 -360 OFFCURVE",
"123 -360 CURVE SMOOTH"
);
}
);
width = 756;
}
);
leftKerningGroup = uni1C2B;
note = uni1C2B;
unicode = 1C2B;
},
{
glyphname = uni1C24;
lastChange = "2016-11-10 17:41:46 +0000";
layers = (
{
layerId = "950E4965-652C-4E49-8BA2-A8792AD091D1";
paths = (
{
closed = 1;
nodes = (
"557 447 OFFCURVE",
"616 597 OFFCURVE",
"616 797 CURVE SMOOTH",
"616 888 OFFCURVE",
"601 979 OFFCURVE",
"571 1069 CURVE",
"403 1012 LINE",
"436 925 OFFCURVE",
"453 839 OFFCURVE",
"453 754 CURVE SMOOTH",
"453 643 OFFCURVE",
"424 533 OFFCURVE",
"365 424 CURVE",
"358 426 LINE",
"318 661 OFFCURVE",
"231 850 OFFCURVE",
"59 1038 CURVE",
"-61 920 LINE",
"116 736 OFFCURVE",
"195 564 OFFCURVE",
"252 299 CURVE",
"410 248 LINE"
);
}
);
width = 709;
}
);
note = uni1C24;
unicode = 1C24;
},
{
glyphname = g5;
lastChange = "2016-11-10 17:41:46 +0000";
layers = (
{
layerId = "950E4965-652C-4E49-8BA2-A8792AD091D1";
paths = (
{
closed = 1;
nodes = (
"1113 -27 OFFCURVE",
"1305 40 OFFCURVE",
"1534 201 CURVE",
"1446 340 LINE",
"1354 279 LINE",
"1094 618 LINE",
"1290 703 OFFCURVE",
"1356 789 OFFCURVE",
"1356 918 CURVE SMOOTH",
"1356 1101 OFFCURVE",
"1227 1214 OFFCURVE",
"967 1214 CURVE SMOOTH",
"806 1214 OFFCURVE",
"644 1164 OFFCURVE",
"482 1063 CURVE",
"555 920 LINE",
"561 924 OFFCURVE",
"588 940 OFFCURVE",
"635 967 CURVE",
"850 682 LINE",
"631 606 OFFCURVE",
"494 513 OFFCURVE",
"494 305 CURVE SMOOTH",
"494 98 OFFCURVE",
"644 -27 OFFCURVE",
"912 -27 CURVE SMOOTH"
);
},
{
closed = 1;
nodes = (
"358 276 LINE",
"295 380 OFFCURVE",
"274 464 OFFCURVE",
"274 575 CURVE SMOOTH",
"274 671 OFFCURVE",
"302 762 OFFCURVE",
"358 848 CURVE",
"227 924 LINE",
"151 831 OFFCURVE",
"113 714 OFFCURVE",
"113 573 CURVE SMOOTH",
"113 424 OFFCURVE",
"138 328 OFFCURVE",
"203 203 CURVE"
);
},
{
closed = 1;
nodes = (
"743 131 OFFCURVE",
"658 192 OFFCURVE",
"658 315 CURVE SMOOTH",
"658 359 OFFCURVE",
"669 395 OFFCURVE",
"690 424 CURVE SMOOTH",
"732 481 OFFCURVE",
"803 514 OFFCURVE",
"942 563 CURVE",
"1217 203 LINE",
"1116 155 OFFCURVE",
"1014 131 OFFCURVE",
"912 131 CURVE SMOOTH"
);
},
{
closed = 1;
nodes = (
"783 1030 LINE",
"840 1048 OFFCURVE",
"903 1057 OFFCURVE",
"971 1057 CURVE SMOOTH",
"1118 1057 OFFCURVE",
"1192 1009 OFFCURVE",
"1192 913 CURVE SMOOTH",
"1192 840 OFFCURVE",
"1157 797 OFFCURVE",
"1006 737 CURVE"
);
}
);
width = 1616;
}
);
note = g5;
},
{
glyphname = g6;
lastChange = "2016-11-10 17:41:46 +0000";
layers = (
{
layerId = "950E4965-652C-4E49-8BA2-A8792AD091D1";
paths = (
{
closed = 1;
nodes = (
"1532 -27 OFFCURVE",
"1724 40 OFFCURVE",
"1953 201 CURVE",
"1865 340 LINE",
"1773 279 LINE",
"1513 618 LINE",
"1709 703 OFFCURVE",
"1775 789 OFFCURVE",
"1775 918 CURVE SMOOTH",
"1775 1101 OFFCURVE",
"1646 1214 OFFCURVE",
"1386 1214 CURVE SMOOTH",
"1225 1214 OFFCURVE",
"1063 1164 OFFCURVE",
"901 1063 CURVE",
"974 920 LINE",
"980 924 OFFCURVE",
"1007 940 OFFCURVE",
"1054 967 CURVE",
"1269 682 LINE",
"1050 606 OFFCURVE",
"913 513 OFFCURVE",
"913 305 CURVE SMOOTH",
"913 98 OFFCURVE",
"1063 -27 OFFCURVE",
"1331 -27 CURVE SMOOTH"
);
},
{
closed = 1;
nodes = (
"358 276 LINE",
"295 380 OFFCURVE",
"274 464 OFFCURVE",
"274 575 CURVE SMOOTH",
"274 671 OFFCURVE",
"302 762 OFFCURVE",
"358 848 CURVE",
"227 924 LINE",
"151 831 OFFCURVE",
"113 714 OFFCURVE",
"113 573 CURVE SMOOTH",
"113 424 OFFCURVE",
"138 328 OFFCURVE",
"203 203 CURVE"
);
},
{
closed = 1;
nodes = (
"657 114 OFFCURVE",
"727 312 OFFCURVE",
"727 565 CURVE SMOOTH",
"727 814 OFFCURVE",
"660 1040 OFFCURVE",
"526 1243 CURVE",
"377 1145 LINE",
"504 964 OFFCURVE",
"567 767 OFFCURVE",
"567 553 CURVE SMOOTH",
"567 348 OFFCURVE",
"504 158 OFFCURVE",
"377 -18 CURVE",
"494 -98 LINE"
);
},
{
closed = 1;
nodes = (
"1162 131 OFFCURVE",
"1077 192 OFFCURVE",
"1077 315 CURVE SMOOTH",
"1077 359 OFFCURVE",
"1088 395 OFFCURVE",
"1109 424 CURVE SMOOTH",
"1151 481 OFFCURVE",
"1222 514 OFFCURVE",
"1361 563 CURVE",
"1636 203 LINE",
"1535 155 OFFCURVE",
"1433 131 OFFCURVE",
"1331 131 CURVE SMOOTH"
);
},
{
closed = 1;
nodes = (
"1202 1030 LINE",
"1259 1048 OFFCURVE",
"1322 1057 OFFCURVE",
"1390 1057 CURVE SMOOTH",
"1537 1057 OFFCURVE",
"1611 1009 OFFCURVE",
"1611 913 CURVE SMOOTH",
"1611 840 OFFCURVE",
"1576 797 OFFCURVE",
"1425 737 CURVE"
);
}
);
width = 2036;
}
);
note = g6;
},
{
glyphname = g7;
lastChange = "2016-11-10 17:41:46 +0000";
layers = (
{
layerId = "950E4965-652C-4E49-8BA2-A8792AD091D1";
paths = (
{
closed = 1;
nodes = (
"734 -27 OFFCURVE",
"913 35 OFFCURVE",
"1130 176 CURVE",
"1042 315 LINE",
"977 274 LINE",
"717 616 LINE",
"849 671 OFFCURVE",
"932 734 OFFCURVE",
"965 805 CURVE",
"1021 696 OFFCURVE",
"1066 569 OFFCURVE",
"1100 424 CURVE",
"1257 373 LINE",
"1405 572 OFFCURVE",
"1464 722 OFFCURVE",
"1464 922 CURVE SMOOTH",
"1464 1013 OFFCURVE",
"1449 1104 OFFCURVE",
"1419 1194 CURVE",
"1251 1137 LINE",
"1284 1050 OFFCURVE",
"1300 964 OFFCURVE",
"1300 879 CURVE SMOOTH",
"1300 768 OFFCURVE",
"1271 658 OFFCURVE",
"1212 549 CURVE",
"1206 551 LINE",
"1143 797 OFFCURVE",
"1054 978 OFFCURVE",
"938 1094 CURVE SMOOTH",
"857 1175 OFFCURVE",
"758 1214 OFFCURVE",
"602 1214 CURVE SMOOTH",
"438 1214 OFFCURVE",
"275 1164 OFFCURVE",
"113 1063 CURVE",
"186 920 LINE",
"211 936 OFFCURVE",
"235 950 OFFCURVE",
"260 963 CURVE",
"473 680 LINE",
"260 604 OFFCURVE",
"125 510 OFFCURVE",
"125 305 CURVE SMOOTH",
"125 98 OFFCURVE",
"275 -27 OFFCURVE",
"543 -27 CURVE SMOOTH"
);
},
{
closed = 1;
nodes = (
"374 131 OFFCURVE",
"289 192 OFFCURVE",
"289 315 CURVE SMOOTH",
"289 359 OFFCURVE",
"299 395 OFFCURVE",
"320 423 CURVE SMOOTH",
"360 479 OFFCURVE",
"432 512 OFFCURVE",
"565 559 CURVE",
"840 199 LINE",
"737 154 OFFCURVE",
"638 131 OFFCURVE",
"543 131 CURVE SMOOTH"
);
},
{
closed = 1;
nodes = (
"406 1028 LINE",
"471 1047 OFFCURVE",
"537 1057 OFFCURVE",
"602 1057 CURVE SMOOTH",
"749 1057 OFFCURVE",
"823 1009 OFFCURVE",
"823 913 CURVE SMOOTH",
"823 876 OFFCURVE",
"810 845 OFFCURVE",
"784 819 CURVE SMOOTH",
"758 793 OFFCURVE",
"706 764 OFFCURVE",
"629 733 CURVE"
);
}
);
width = 1556;
}
);
note = g7;
rightKerningGroup = g7;
},
{
glyphname = g8;
lastChange = "2016-11-10 17:41:46 +0000";
layers = (
{
layerId = "950E4965-652C-4E49-8BA2-A8792AD091D1";
paths = (
{
closed = 1;
nodes = (
"1103 -27 OFFCURVE",
"1282 35 OFFCURVE",
"1499 176 CURVE",
"1411 315 LINE",
"1346 274 LINE",
"1086 616 LINE",
"1218 671 OFFCURVE",
"1301 734 OFFCURVE",
"1334 805 CURVE",
"1390 696 OFFCURVE",
"1435 569 OFFCURVE",
"1469 424 CURVE",
"1626 373 LINE",
"1774 572 OFFCURVE",
"1833 722 OFFCURVE",
"1833 922 CURVE SMOOTH",
"1833 1013 OFFCURVE",
"1818 1104 OFFCURVE",
"1788 1194 CURVE",
"1620 1137 LINE",
"1653 1050 OFFCURVE",
"1669 964 OFFCURVE",
"1669 879 CURVE SMOOTH",
"1669 768 OFFCURVE",
"1640 658 OFFCURVE",
"1581 549 CURVE",
"1575 551 LINE",
"1512 797 OFFCURVE",
"1423 978 OFFCURVE",
"1307 1094 CURVE SMOOTH",
"1226 1175 OFFCURVE",
"1127 1214 OFFCURVE",
"971 1214 CURVE SMOOTH",
"807 1214 OFFCURVE",
"644 1164 OFFCURVE",
"482 1063 CURVE",
"555 920 LINE",
"580 936 OFFCURVE",
"604 950 OFFCURVE",
"629 963 CURVE",
"842 680 LINE",
"629 604 OFFCURVE",
"494 510 OFFCURVE",
"494 305 CURVE SMOOTH",
"494 98 OFFCURVE",
"644 -27 OFFCURVE",
"912 -27 CURVE SMOOTH"
);
},
{
closed = 1;
nodes = (
"358 276 LINE",
"295 380 OFFCURVE",
"274 464 OFFCURVE",
"274 575 CURVE SMOOTH",
"274 671 OFFCURVE",
"302 762 OFFCURVE",
"358 848 CURVE",
"227 924 LINE",
"151 831 OFFCURVE",
"113 714 OFFCURVE",
"113 573 CURVE SMOOTH",
"113 424 OFFCURVE",
"138 328 OFFCURVE",
"203 203 CURVE"
);
},
{
closed = 1;
nodes = (
"743 131 OFFCURVE",
"658 192 OFFCURVE",
"658 315 CURVE SMOOTH",
"658 359 OFFCURVE",
"668 395 OFFCURVE",
"689 423 CURVE SMOOTH",
"729 479 OFFCURVE",
"801 512 OFFCURVE",
"934 559 CURVE",
"1209 199 LINE",
"1106 154 OFFCURVE",
"1007 131 OFFCURVE",
"912 131 CURVE SMOOTH"
);
},
{
closed = 1;
nodes = (
"775 1028 LINE",
"840 1047 OFFCURVE",
"906 1057 OFFCURVE",
"971 1057 CURVE SMOOTH",
"1118 1057 OFFCURVE",
"1192 1009 OFFCURVE",
"1192 913 CURVE SMOOTH",
"1192 876 OFFCURVE",
"1179 845 OFFCURVE",
"1153 819 CURVE SMOOTH",
"1127 793 OFFCURVE",
"1075 764 OFFCURVE",
"998 733 CURVE"
);
}
);
width = 1925;
}
);
note = g8;
},
{
glyphname = g9;
lastChange = "2016-11-10 17:41:46 +0000";
layers = (
{
layerId = "950E4965-652C-4E49-8BA2-A8792AD091D1";
paths = (
{
closed = 1;
nodes = (
"1522 -27 OFFCURVE",
"1701 35 OFFCURVE",
"1918 176 CURVE",
"1830 315 LINE",
"1765 274 LINE",
"1505 616 LINE",
"1637 671 OFFCURVE",
"1720 734 OFFCURVE",
"1753 805 CURVE",
"1809 696 OFFCURVE",
"1854 569 OFFCURVE",
"1888 424 CURVE",
"2045 373 LINE",
"2193 572 OFFCURVE",
"2252 722 OFFCURVE",
"2252 922 CURVE SMOOTH",
"2252 1013 OFFCURVE",
"2237 1104 OFFCURVE",
"2207 1194 CURVE",
"2039 1137 LINE",
"2072 1050 OFFCURVE",
"2088 964 OFFCURVE",
"2088 879 CURVE SMOOTH",
"2088 768 OFFCURVE",
"2059 658 OFFCURVE",
"2000 549 CURVE",
"1994 551 LINE",
"1931 797 OFFCURVE",
"1842 978 OFFCURVE",
"1726 1094 CURVE SMOOTH",
"1645 1175 OFFCURVE",
"1546 1214 OFFCURVE",
"1390 1214 CURVE SMOOTH",
"1226 1214 OFFCURVE",
"1063 1164 OFFCURVE",
"901 1063 CURVE",
"974 920 LINE",
"999 936 OFFCURVE",
"1023 950 OFFCURVE",
"1048 963 CURVE",
"1261 680 LINE",
"1048 604 OFFCURVE",
"913 510 OFFCURVE",
"913 305 CURVE SMOOTH",
"913 98 OFFCURVE",
"1063 -27 OFFCURVE",
"1331 -27 CURVE SMOOTH"
);
},
{
closed = 1;
nodes = (
"358 276 LINE",
"295 380 OFFCURVE",
"274 464 OFFCURVE",
"274 575 CURVE SMOOTH",
"274 671 OFFCURVE",
"302 762 OFFCURVE",
"358 848 CURVE",
"227 924 LINE",
"151 831 OFFCURVE",
"113 714 OFFCURVE",
"113 573 CURVE SMOOTH",
"113 424 OFFCURVE",
"138 328 OFFCURVE",
"203 203 CURVE"
);
},
{
closed = 1;
nodes = (
"657 114 OFFCURVE",
"727 312 OFFCURVE",
"727 565 CURVE SMOOTH",
"727 814 OFFCURVE",
"660 1040 OFFCURVE",
"526 1243 CURVE",
"377 1145 LINE",
"504 964 OFFCURVE",
"567 767 OFFCURVE",
"567 553 CURVE SMOOTH",
"567 348 OFFCURVE",
"504 158 OFFCURVE",
"377 -18 CURVE",
"494 -98 LINE"
);
},
{
closed = 1;
nodes = (
"1162 131 OFFCURVE",
"1077 192 OFFCURVE",
"1077 315 CURVE SMOOTH",
"1077 359 OFFCURVE",
"1087 395 OFFCURVE",
"1108 423 CURVE SMOOTH",
"1148 479 OFFCURVE",
"1220 512 OFFCURVE",
"1353 559 CURVE",
"1628 199 LINE",
"1525 154 OFFCURVE",
"1426 131 OFFCURVE",
"1331 131 CURVE SMOOTH"
);
},
{
closed = 1;
nodes = (
"1194 1028 LINE",
"1259 1047 OFFCURVE",
"1325 1057 OFFCURVE",
"1390 1057 CURVE SMOOTH",
"1537 1057 OFFCURVE",
"1611 1009 OFFCURVE",
"1611 913 CURVE SMOOTH",
"1611 876 OFFCURVE",
"1598 845 OFFCURVE",
"1572 819 CURVE SMOOTH",
"1546 793 OFFCURVE",
"1494 764 OFFCURVE",
"1417 733 CURVE"
);
}
);
width = 2345;
}
);
note = g9;
},
{
glyphname = g10;
lastChange = "2016-11-10 17:41:46 +0000";
layers = (
{
layerId = "950E4965-652C-4E49-8BA2-A8792AD091D1";
paths = (
{
closed = 1;
nodes = (
"734 -27 OFFCURVE",
"913 35 OFFCURVE",
"1130 176 CURVE",
"1042 315 LINE",
"977 274 LINE",
"717 616 LINE",
"849 671 OFFCURVE",
"932 734 OFFCURVE",
"965 805 CURVE",
"1021 696 OFFCURVE",
"1066 569 OFFCURVE",
"1100 424 CURVE",
"1257 373 LINE",
"1405 572 OFFCURVE",
"1464 722 OFFCURVE",
"1464 922 CURVE SMOOTH",
"1464 1013 OFFCURVE",
"1449 1104 OFFCURVE",
"1419 1194 CURVE",
"1251 1137 LINE",
"1284 1050 OFFCURVE",
"1300 964 OFFCURVE",
"1300 879 CURVE SMOOTH",
"1300 768 OFFCURVE",
"1271 658 OFFCURVE",
"1212 549 CURVE",
"1206 551 LINE",
"1143 797 OFFCURVE",
"1054 978 OFFCURVE",
"938 1094 CURVE SMOOTH",
"857 1175 OFFCURVE",
"758 1214 OFFCURVE",
"602 1214 CURVE SMOOTH",
"438 1214 OFFCURVE",
"275 1164 OFFCURVE",
"113 1063 CURVE",
"186 920 LINE",
"211 936 OFFCURVE",
"235 950 OFFCURVE",
"260 963 CURVE",
"473 680 LINE",
"260 604 OFFCURVE",
"125 510 OFFCURVE",
"125 305 CURVE SMOOTH",
"125 98 OFFCURVE",
"275 -27 OFFCURVE",
"543 -27 CURVE SMOOTH"
);
},
{
closed = 1;
nodes = (
"374 131 OFFCURVE",
"289 192 OFFCURVE",
"289 315 CURVE SMOOTH",
"289 359 OFFCURVE",
"299 395 OFFCURVE",
"320 423 CURVE SMOOTH",
"360 479 OFFCURVE",
"432 512 OFFCURVE",
"565 559 CURVE",
"840 199 LINE",
"737 154 OFFCURVE",
"638 131 OFFCURVE",
"543 131 CURVE SMOOTH"
);
},
{
closed = 1;
nodes = (
"406 1028 LINE",
"471 1047 OFFCURVE",
"537 1057 OFFCURVE",
"602 1057 CURVE SMOOTH",
"749 1057 OFFCURVE",
"823 1009 OFFCURVE",
"823 913 CURVE SMOOTH",
"823 876 OFFCURVE",
"810 845 OFFCURVE",
"784 819 CURVE SMOOTH",
"758 793 OFFCURVE",
"706 764 OFFCURVE",
"629 733 CURVE"
);
},
{
closed = 1;
nodes = (
"1992 16 LINE",
"1833 195 OFFCURVE",
"1757 395 OFFCURVE",
"1757 590 CURVE SMOOTH",
"1757 757 OFFCURVE",
"1809 915 OFFCURVE",
"1912 1065 CURVE",
"1921 1065 LINE",
"1942 914 OFFCURVE",
"2010 759 OFFCURVE",
"2111 639 CURVE",
"2240 739 LINE",
"2139 854 OFFCURVE",
"2062 1028 OFFCURVE",
"2045 1192 CURVE",
"1835 1192 LINE",
"1668 995 OFFCURVE",
"1597 813 OFFCURVE",
"1597 578 CURVE SMOOTH",
"1597 333 OFFCURVE",
"1685 107 OFFCURVE",
"1861 -100 CURVE"
);
}
);
width = 2281;
}
);
note = g10;
},
{
glyphname = g11;
lastChange = "2016-11-10 17:41:46 +0000";
layers = (
{
layerId = "950E4965-652C-4E49-8BA2-A8792AD091D1";
paths = (
{
closed = 1;
nodes = (
"1103 -27 OFFCURVE",
"1282 35 OFFCURVE",
"1499 176 CURVE",
"1411 315 LINE",
"1346 274 LINE",
"1086 616 LINE",
"1218 671 OFFCURVE",
"1301 734 OFFCURVE",
"1334 805 CURVE",
"1390 696 OFFCURVE",
"1435 569 OFFCURVE",
"1469 424 CURVE",
"1626 373 LINE",
"1774 572 OFFCURVE",
"1833 722 OFFCURVE",
"1833 922 CURVE SMOOTH",
"1833 1013 OFFCURVE",
"1818 1104 OFFCURVE",
"1788 1194 CURVE",
"1620 1137 LINE",
"1653 1050 OFFCURVE",
"1669 964 OFFCURVE",
"1669 879 CURVE SMOOTH",
"1669 768 OFFCURVE",
"1640 658 OFFCURVE",
"1581 549 CURVE",
"1575 551 LINE",
"1512 797 OFFCURVE",
"1423 978 OFFCURVE",
"1307 1094 CURVE SMOOTH",
"1226 1175 OFFCURVE",
"1127 1214 OFFCURVE",
"971 1214 CURVE SMOOTH",
"807 1214 OFFCURVE",
"644 1164 OFFCURVE",
"482 1063 CURVE",
"555 920 LINE",
"580 936 OFFCURVE",
"604 950 OFFCURVE",
"629 963 CURVE",
"842 680 LINE",
"629 604 OFFCURVE",
"494 510 OFFCURVE",
"494 305 CURVE SMOOTH",
"494 98 OFFCURVE",
"644 -27 OFFCURVE",
"912 -27 CURVE SMOOTH"
);
},
{
closed = 1;
nodes = (
"358 276 LINE",
"295 380 OFFCURVE",
"274 464 OFFCURVE",
"274 575 CURVE SMOOTH",
"274 671 OFFCURVE",
"302 762 OFFCURVE",
"358 848 CURVE",
"227 924 LINE",
"151 831 OFFCURVE",
"113 714 OFFCURVE",
"113 573 CURVE SMOOTH",
"113 424 OFFCURVE",
"138 328 OFFCURVE",
"203 203 CURVE"
);
},
{
closed = 1;
nodes = (
"743 131 OFFCURVE",
"658 192 OFFCURVE",
"658 315 CURVE SMOOTH",
"658 359 OFFCURVE",
"668 395 OFFCURVE",
"689 423 CURVE SMOOTH",
"729 479 OFFCURVE",
"801 512 OFFCURVE",
"934 559 CURVE",
"1209 199 LINE",
"1106 154 OFFCURVE",
"1007 131 OFFCURVE",
"912 131 CURVE SMOOTH"
);
},
{
closed = 1;
nodes = (
"775 1028 LINE",
"840 1047 OFFCURVE",
"906 1057 OFFCURVE",
"971 1057 CURVE SMOOTH",
"1118 1057 OFFCURVE",
"1192 1009 OFFCURVE",
"1192 913 CURVE SMOOTH",
"1192 876 OFFCURVE",
"1179 845 OFFCURVE",
"1153 819 CURVE SMOOTH",
"1127 793 OFFCURVE",
"1075 764 OFFCURVE",
"998 733 CURVE"
);
},
{
closed = 1;
nodes = (
"2361 16 LINE",
"2202 195 OFFCURVE",
"2126 395 OFFCURVE",
"2126 590 CURVE SMOOTH",
"2126 757 OFFCURVE",
"2178 915 OFFCURVE",
"2281 1065 CURVE",
"2290 1065 LINE",
"2311 914 OFFCURVE",
"2379 759 OFFCURVE",
"2480 639 CURVE",
"2609 739 LINE",
"2508 854 OFFCURVE",
"2431 1028 OFFCURVE",
"2414 1192 CURVE",
"2204 1192 LINE",
"2037 995 OFFCURVE",
"1966 813 OFFCURVE",
"1966 578 CURVE SMOOTH",
"1966 333 OFFCURVE",
"2054 107 OFFCURVE",
"2230 -100 CURVE"
);
}
);
width = 2650;
}
);
note = g11;
},
{
glyphname = g12;
lastChange = "2016-11-10 17:41:46 +0000";
layers = (
{
layerId = "950E4965-652C-4E49-8BA2-A8792AD091D1";
paths = (
{
closed = 1;
nodes = (
"1103 -27 OFFCURVE",
"1282 35 OFFCURVE",
"1499 176 CURVE",
"1411 315 LINE",
"1346 274 LINE",
"1086 616 LINE",
"1218 671 OFFCURVE",
"1301 734 OFFCURVE",
"1334 805 CURVE",
"1390 696 OFFCURVE",
"1435 569 OFFCURVE",
"1469 424 CURVE",
"1626 373 LINE",
"1774 572 OFFCURVE",
"1833 722 OFFCURVE",
"1833 922 CURVE SMOOTH",
"1833 1013 OFFCURVE",
"1818 1104 OFFCURVE",
"1788 1194 CURVE",
"1620 1137 LINE",
"1653 1050 OFFCURVE",
"1669 964 OFFCURVE",
"1669 879 CURVE SMOOTH",
"1669 768 OFFCURVE",
"1640 658 OFFCURVE",
"1581 549 CURVE",
"1575 551 LINE",
"1512 797 OFFCURVE",
"1423 978 OFFCURVE",
"1307 1094 CURVE SMOOTH",
"1226 1175 OFFCURVE",
"1127 1214 OFFCURVE",
"971 1214 CURVE SMOOTH",
"807 1214 OFFCURVE",
"644 1164 OFFCURVE",
"482 1063 CURVE",
"555 920 LINE",
"580 936 OFFCURVE",
"604 950 OFFCURVE",
"629 963 CURVE",
"842 680 LINE",
"629 604 OFFCURVE",
"494 510 OFFCURVE",
"494 305 CURVE SMOOTH",
"494 98 OFFCURVE",
"644 -27 OFFCURVE",
"912 -27 CURVE SMOOTH"
);
},
{
closed = 1;
nodes = (
"1347 -319 LINE",
"1270 -284 OFFCURVE",
"1184 -266 OFFCURVE",
"1091 -266 CURVE SMOOTH",
"988 -266 OFFCURVE",
"898 -291 OFFCURVE",
"821 -342 CURVE",
"817 -338 LINE",
"942 -168 LINE",
"827 -94 LINE",
"639 -391 LINE",
"770 -475 LINE",
"846 -437 OFFCURVE",
"933 -418 OFFCURVE",
"1032 -418 CURVE SMOOTH",
"1130 -418 OFFCURVE",
"1215 -438 OFFCURVE",
"1288 -479 CURVE"
);
},
{
closed = 1;
nodes = (
"358 276 LINE",
"295 380 OFFCURVE",
"274 464 OFFCURVE",
"274 575 CURVE SMOOTH",
"274 671 OFFCURVE",
"302 762 OFFCURVE",
"358 848 CURVE",
"227 924 LINE",
"151 831 OFFCURVE",
"113 714 OFFCURVE",
"113 573 CURVE SMOOTH",
"113 424 OFFCURVE",
"138 328 OFFCURVE",
"203 203 CURVE"
);
},
{
closed = 1;
nodes = (
"743 131 OFFCURVE",
"658 192 OFFCURVE",
"658 315 CURVE SMOOTH",
"658 359 OFFCURVE",
"668 395 OFFCURVE",
"689 423 CURVE SMOOTH",
"729 479 OFFCURVE",
"801 512 OFFCURVE",
"934 559 CURVE",
"1209 199 LINE",
"1106 154 OFFCURVE",
"1007 131 OFFCURVE",
"912 131 CURVE SMOOTH"
);
},
{
closed = 1;
nodes = (
"775 1028 LINE",
"840 1047 OFFCURVE",
"906 1057 OFFCURVE",
"971 1057 CURVE SMOOTH",
"1118 1057 OFFCURVE",
"1192 1009 OFFCURVE",
"1192 913 CURVE SMOOTH",
"1192 876 OFFCURVE",
"1179 845 OFFCURVE",
"1153 819 CURVE SMOOTH",
"1127 793 OFFCURVE",
"1075 764 OFFCURVE",
"998 733 CURVE"
);
}
);
width = 1925;
}
);
note = g12;
},
{
glyphname = g13;
lastChange = "2016-11-10 17:41:46 +0000";
layers = (
{
layerId = "950E4965-652C-4E49-8BA2-A8792AD091D1";
paths = (
{
closed = 1;
nodes = (
"1457 -27 OFFCURVE",
"1636 35 OFFCURVE",
"1853 176 CURVE",
"1765 315 LINE",
"1700 274 LINE",
"1440 616 LINE",
"1572 671 OFFCURVE",
"1655 734 OFFCURVE",
"1688 805 CURVE",
"1744 696 OFFCURVE",
"1789 569 OFFCURVE",
"1823 424 CURVE",
"1980 373 LINE",
"2128 572 OFFCURVE",
"2187 722 OFFCURVE",
"2187 922 CURVE SMOOTH",
"2187 1013 OFFCURVE",
"2172 1104 OFFCURVE",
"2142 1194 CURVE",
"1974 1137 LINE",
"2007 1050 OFFCURVE",
"2023 964 OFFCURVE",
"2023 879 CURVE SMOOTH",
"2023 768 OFFCURVE",
"1994 658 OFFCURVE",
"1935 549 CURVE",
"1929 551 LINE",
"1866 797 OFFCURVE",
"1777 978 OFFCURVE",
"1661 1094 CURVE SMOOTH",
"1580 1175 OFFCURVE",
"1481 1214 OFFCURVE",
"1325 1214 CURVE SMOOTH",
"1161 1214 OFFCURVE",
"998 1164 OFFCURVE",
"836 1063 CURVE",
"909 920 LINE",
"934 936 OFFCURVE",
"958 950 OFFCURVE",
"983 963 CURVE",
"1196 680 LINE",
"983 604 OFFCURVE",
"848 510 OFFCURVE",
"848 305 CURVE SMOOTH",
"848 98 OFFCURVE",
"998 -27 OFFCURVE",
"1266 -27 CURVE SMOOTH"
);
},
{
closed = 1;
nodes = (
"287 -360 OFFCURVE",
"363 -337 OFFCURVE",
"430 -292 CURVE SMOOTH",
"563 -202 OFFCURVE",
"645 -24 OFFCURVE",
"645 227 CURVE SMOOTH",
"645 568 OFFCURVE",
"504 885 OFFCURVE",
"223 1178 CURVE",
"385 1360 LINE",
"618 1163 LINE",
"723 1292 LINE",
"369 1589 LINE",
"-2 1178 LINE",
"316 894 OFFCURVE",
"475 576 OFFCURVE",
"475 223 CURVE SMOOTH",
"475 -56 OFFCURVE",
"370 -199 OFFCURVE",
"209 -199 CURVE SMOOTH",
"172 -199 OFFCURVE",
"140 -189 OFFCURVE",
"111 -170 CURVE",
"37 -311 LINE",
"80 -344 OFFCURVE",
"135 -360 OFFCURVE",
"201 -360 CURVE SMOOTH"
);
},
{
closed = 1;
nodes = (
"1097 131 OFFCURVE",
"1012 192 OFFCURVE",
"1012 315 CURVE SMOOTH",
"1012 359 OFFCURVE",
"1022 395 OFFCURVE",
"1043 423 CURVE SMOOTH",
"1083 479 OFFCURVE",
"1155 512 OFFCURVE",
"1288 559 CURVE",
"1563 199 LINE",
"1460 154 OFFCURVE",
"1361 131 OFFCURVE",
"1266 131 CURVE SMOOTH"
);
},
{
closed = 1;
nodes = (
"1129 1028 LINE",
"1194 1047 OFFCURVE",
"1260 1057 OFFCURVE",
"1325 1057 CURVE SMOOTH",
"1472 1057 OFFCURVE",
"1546 1009 OFFCURVE",
"1546 913 CURVE SMOOTH",
"1546 876 OFFCURVE",
"1533 845 OFFCURVE",
"1507 819 CURVE SMOOTH",
"1481 793 OFFCURVE",
"1429 764 OFFCURVE",
"1352 733 CURVE"
);
}
);
width = 2279;
}
);
note = g13;
},
{
glyphname = g14;
lastChange = "2016-11-10 17:41:46 +0000";
layers = (
{
layerId = "950E4965-652C-4E49-8BA2-A8792AD091D1";
paths = (
{
closed = 1;
nodes = (
"1660 -27 OFFCURVE",
"1839 35 OFFCURVE",
"2056 176 CURVE",
"1968 315 LINE",
"1903 274 LINE",
"1643 616 LINE",
"1775 671 OFFCURVE",
"1858 734 OFFCURVE",
"1891 805 CURVE",
"1947 696 OFFCURVE",
"1992 569 OFFCURVE",
"2026 424 CURVE",
"2183 373 LINE",
"2331 572 OFFCURVE",
"2390 722 OFFCURVE",
"2390 922 CURVE SMOOTH",
"2390 1013 OFFCURVE",
"2375 1104 OFFCURVE",
"2345 1194 CURVE",
"2177 1137 LINE",
"2210 1050 OFFCURVE",
"2226 964 OFFCURVE",
"2226 879 CURVE SMOOTH",
"2226 768 OFFCURVE",
"2197 658 OFFCURVE",
"2138 549 CURVE",
"2132 551 LINE",
"2069 797 OFFCURVE",
"1980 978 OFFCURVE",
"1864 1094 CURVE SMOOTH",
"1783 1175 OFFCURVE",
"1684 1214 OFFCURVE",
"1528 1214 CURVE SMOOTH",
"1364 1214 OFFCURVE",
"1201 1164 OFFCURVE",
"1039 1063 CURVE",
"1112 920 LINE",
"1137 936 OFFCURVE",
"1161 950 OFFCURVE",
"1186 963 CURVE",
"1399 680 LINE",
"1186 604 OFFCURVE",
"1051 510 OFFCURVE",
"1051 305 CURVE SMOOTH",
"1051 98 OFFCURVE",
"1201 -27 OFFCURVE",
"1469 -27 CURVE SMOOTH"
);
},
{
closed = 1;
nodes = (
"358 88 LINE",
"295 192 OFFCURVE",
"274 276 OFFCURVE",
"274 387 CURVE SMOOTH",
"274 483 OFFCURVE",
"302 574 OFFCURVE",
"358 660 CURVE",
"227 736 LINE",
"151 643 OFFCURVE",
"113 526 OFFCURVE",
"113 385 CURVE SMOOTH",
"113 236 OFFCURVE",
"138 140 OFFCURVE",
"203 15 CURVE"
);
},
{
closed = 1;
nodes = (
"490 -360 OFFCURVE",
"566 -337 OFFCURVE",
"633 -292 CURVE SMOOTH",
"766 -202 OFFCURVE",
"848 -24 OFFCURVE",
"848 227 CURVE SMOOTH",
"848 568 OFFCURVE",
"707 885 OFFCURVE",
"426 1178 CURVE",
"588 1360 LINE",
"821 1163 LINE",
"926 1292 LINE",
"572 1589 LINE",
"201 1178 LINE",
"519 894 OFFCURVE",
"678 576 OFFCURVE",
"678 223 CURVE SMOOTH",
"678 -56 OFFCURVE",
"573 -199 OFFCURVE",
"412 -199 CURVE SMOOTH",
"375 -199 OFFCURVE",
"343 -189 OFFCURVE",
"314 -170 CURVE",
"240 -311 LINE",
"283 -344 OFFCURVE",
"338 -360 OFFCURVE",
"404 -360 CURVE SMOOTH"
);
},
{
closed = 1;
nodes = (
"1300 131 OFFCURVE",
"1215 192 OFFCURVE",
"1215 315 CURVE SMOOTH",
"1215 359 OFFCURVE",
"1225 395 OFFCURVE",
"1246 423 CURVE SMOOTH",
"1286 479 OFFCURVE",
"1358 512 OFFCURVE",
"1491 559 CURVE",
"1766 199 LINE",
"1663 154 OFFCURVE",
"1564 131 OFFCURVE",
"1469 131 CURVE SMOOTH"
);
},
{
closed = 1;
nodes = (
"1332 1028 LINE",
"1397 1047 OFFCURVE",
"1463 1057 OFFCURVE",
"1528 1057 CURVE SMOOTH",
"1675 1057 OFFCURVE",
"1749 1009 OFFCURVE",
"1749 913 CURVE SMOOTH",
"1749 876 OFFCURVE",
"1736 845 OFFCURVE",
"1710 819 CURVE SMOOTH",
"1684 793 OFFCURVE",
"1632 764 OFFCURVE",
"1555 733 CURVE"
);
}
);
width = 2482;
}
);
note = g14;
},
{
glyphname = g15;
lastChange = "2016-11-10 17:41:46 +0000";
layers = (
{
layerId = "950E4965-652C-4E49-8BA2-A8792AD091D1";
paths = (
{
closed = 1;
nodes = (
"1248 -27 OFFCURVE",
"1427 35 OFFCURVE",
"1644 176 CURVE",
"1556 315 LINE",
"1491 274 LINE",
"1231 616 LINE",
"1363 671 OFFCURVE",
"1446 734 OFFCURVE",
"1479 805 CURVE",
"1535 696 OFFCURVE",
"1580 569 OFFCURVE",
"1614 424 CURVE",
"1771 373 LINE",
"1919 572 OFFCURVE",
"1978 722 OFFCURVE",
"1978 922 CURVE SMOOTH",
"1978 1013 OFFCURVE",
"1963 1104 OFFCURVE",
"1933 1194 CURVE",
"1765 1137 LINE",
"1798 1050 OFFCURVE",
"1814 964 OFFCURVE",
"1814 879 CURVE SMOOTH",
"1814 768 OFFCURVE",
"1785 658 OFFCURVE",
"1726 549 CURVE",
"1720 551 LINE",
"1657 797 OFFCURVE",
"1568 978 OFFCURVE",
"1452 1094 CURVE SMOOTH",
"1371 1175 OFFCURVE",
"1272 1214 OFFCURVE",
"1116 1214 CURVE SMOOTH",
"952 1214 OFFCURVE",
"789 1164 OFFCURVE",
"627 1063 CURVE",
"700 920 LINE",
"725 936 OFFCURVE",
"749 950 OFFCURVE",
"774 963 CURVE",
"987 680 LINE",
"774 604 OFFCURVE",
"639 510 OFFCURVE",
"639 305 CURVE SMOOTH",
"639 98 OFFCURVE",
"789 -27 OFFCURVE",
"1057 -27 CURVE SMOOTH"
);
},
{
closed = 1;
nodes = (
"494 0 LINE",
"367 180 OFFCURVE",
"303 377 OFFCURVE",
"303 592 CURVE SMOOTH",
"303 797 OFFCURVE",
"367 987 OFFCURVE",
"494 1163 CURVE",
"377 1243 LINE",
"213 1030 OFFCURVE",
"143 833 OFFCURVE",
"143 580 CURVE SMOOTH",
"143 331 OFFCURVE",
"210 105 OFFCURVE",
"344 -98 CURVE"
);
},
{
closed = 1;
nodes = (
"888 131 OFFCURVE",
"803 192 OFFCURVE",
"803 315 CURVE SMOOTH",
"803 359 OFFCURVE",
"813 395 OFFCURVE",
"834 423 CURVE SMOOTH",
"874 479 OFFCURVE",
"946 512 OFFCURVE",
"1079 559 CURVE",
"1354 199 LINE",
"1251 154 OFFCURVE",
"1152 131 OFFCURVE",
"1057 131 CURVE SMOOTH"
);
},
{
closed = 1;
nodes = (
"920 1028 LINE",
"985 1047 OFFCURVE",
"1051 1057 OFFCURVE",
"1116 1057 CURVE SMOOTH",
"1263 1057 OFFCURVE",
"1337 1009 OFFCURVE",
"1337 913 CURVE SMOOTH",
"1337 876 OFFCURVE",
"1324 845 OFFCURVE",
"1298 819 CURVE SMOOTH",
"1272 793 OFFCURVE",
"1220 764 OFFCURVE",
"1143 733 CURVE"
);
}
);
width = 2071;
}
);
note = g15;
},
{
glyphname = g16;
lastChange = "2016-11-10 17:41:46 +0000";
layers = (
{
layerId = "950E4965-652C-4E49-8BA2-A8792AD091D1";
paths = (
{
closed = 1;
nodes = (
"1617 -27 OFFCURVE",
"1796 35 OFFCURVE",
"2013 176 CURVE",
"1925 315 LINE",
"1860 274 LINE",
"1600 616 LINE",
"1732 671 OFFCURVE",
"1815 734 OFFCURVE",
"1848 805 CURVE",
"1904 696 OFFCURVE",
"1949 569 OFFCURVE",
"1983 424 CURVE",
"2140 373 LINE",
"2288 572 OFFCURVE",
"2347 722 OFFCURVE",
"2347 922 CURVE SMOOTH",
"2347 1013 OFFCURVE",
"2332 1104 OFFCURVE",
"2302 1194 CURVE",
"2134 1137 LINE",
"2167 1050 OFFCURVE",
"2183 964 OFFCURVE",
"2183 879 CURVE SMOOTH",
"2183 768 OFFCURVE",
"2154 658 OFFCURVE",
"2095 549 CURVE",
"2089 551 LINE",
"2026 797 OFFCURVE",
"1937 978 OFFCURVE",
"1821 1094 CURVE SMOOTH",
"1740 1175 OFFCURVE",
"1641 1214 OFFCURVE",
"1485 1214 CURVE SMOOTH",
"1321 1214 OFFCURVE",
"1158 1164 OFFCURVE",
"996 1063 CURVE",
"1069 920 LINE",
"1094 936 OFFCURVE",
"1118 950 OFFCURVE",
"1143 963 CURVE",
"1356 680 LINE",
"1143 604 OFFCURVE",
"1008 510 OFFCURVE",
"1008 305 CURVE SMOOTH",
"1008 98 OFFCURVE",
"1158 -27 OFFCURVE",
"1426 -27 CURVE SMOOTH"
);
},
{
closed = 1;
nodes = (
"358 276 LINE",
"295 380 OFFCURVE",
"274 464 OFFCURVE",
"274 575 CURVE SMOOTH",
"274 671 OFFCURVE",
"302 762 OFFCURVE",
"358 848 CURVE",
"227 924 LINE",
"151 831 OFFCURVE",
"113 714 OFFCURVE",
"113 573 CURVE SMOOTH",
"113 424 OFFCURVE",
"138 328 OFFCURVE",
"203 203 CURVE"
);
},
{
closed = 1;
nodes = (
"863 0 LINE",
"736 180 OFFCURVE",
"672 377 OFFCURVE",
"672 592 CURVE SMOOTH",
"672 797 OFFCURVE",
"736 987 OFFCURVE",
"863 1163 CURVE",
"746 1243 LINE",
"582 1030 OFFCURVE",
"512 833 OFFCURVE",
"512 580 CURVE SMOOTH",
"512 331 OFFCURVE",
"579 105 OFFCURVE",
"713 -98 CURVE"
);
},
{
closed = 1;
nodes = (
"1257 131 OFFCURVE",
"1172 192 OFFCURVE",
"1172 315 CURVE SMOOTH",
"1172 359 OFFCURVE",
"1182 395 OFFCURVE",
"1203 423 CURVE SMOOTH",
"1243 479 OFFCURVE",
"1315 512 OFFCURVE",
"1448 559 CURVE",
"1723 199 LINE",
"1620 154 OFFCURVE",
"1521 131 OFFCURVE",
"1426 131 CURVE SMOOTH"
);
},
{
closed = 1;
nodes = (
"1289 1028 LINE",
"1354 1047 OFFCURVE",
"1420 1057 OFFCURVE",
"1485 1057 CURVE SMOOTH",
"1632 1057 OFFCURVE",
"1706 1009 OFFCURVE",
"1706 913 CURVE SMOOTH",
"1706 876 OFFCURVE",
"1693 845 OFFCURVE",
"1667 819 CURVE SMOOTH",
"1641 793 OFFCURVE",
"1589 764 OFFCURVE",
"1512 733 CURVE"
);
}
);
width = 2439;
}
);
note = g16;
},
{
glyphname = g17;
lastChange = "2016-11-10 17:41:46 +0000";
layers = (
{
layerId = "950E4965-652C-4E49-8BA2-A8792AD091D1";
paths = (
{
closed = 1;
nodes = (
"440 -14 LINE",
"323 187 OFFCURVE",
"274 365 OFFCURVE",
"274 610 CURVE SMOOTH",
"274 920 OFFCURVE",
"362 1192 OFFCURVE",
"539 1427 CURVE",
"671 1403 OFFCURVE",
"808 1391 OFFCURVE",
"950 1391 CURVE SMOOTH",
"1248 1391 OFFCURVE",
"1491 1422 OFFCURVE",
"1679 1485 CURVE",
"1679 1647 LINE",
"1480 1586 OFFCURVE",
"1237 1556 OFFCURVE",
"950 1556 CURVE SMOOTH",
"793 1556 OFFCURVE",
"630 1570 OFFCURVE",
"459 1599 CURVE",
"224 1288 OFFCURVE",
"113 987 OFFCURVE",
"113 596 CURVE SMOOTH",
"113 325 OFFCURVE",
"170 111 OFFCURVE",
"293 -98 CURVE"
);
},
{
closed = 1;
nodes = (
"784 131 OFFCURVE",
"699 192 OFFCURVE",
"699 315 CURVE SMOOTH",
"699 359 OFFCURVE",
"709 395 OFFCURVE",
"730 423 CURVE SMOOTH",
"770 479 OFFCURVE",
"842 512 OFFCURVE",
"975 559 CURVE",
"1250 199 LINE",
"1147 154 OFFCURVE",
"1048 131 OFFCURVE",
"953 131 CURVE SMOOTH"
);
},
{
closed = 1;
nodes = (
"1144 -27 OFFCURVE",
"1323 35 OFFCURVE",
"1540 176 CURVE",
"1452 315 LINE",
"1387 274 LINE",
"1127 616 LINE",
"1259 671 OFFCURVE",
"1342 734 OFFCURVE",
"1375 805 CURVE",
"1431 696 OFFCURVE",
"1476 569 OFFCURVE",
"1510 424 CURVE",
"1667 373 LINE",
"1815 572 OFFCURVE",
"1874 722 OFFCURVE",
"1874 922 CURVE SMOOTH",
"1874 1013 OFFCURVE",
"1859 1104 OFFCURVE",
"1829 1194 CURVE",
"1661 1137 LINE",
"1694 1050 OFFCURVE",
"1710 964 OFFCURVE",
"1710 879 CURVE SMOOTH",
"1710 768 OFFCURVE",
"1681 658 OFFCURVE",
"1622 549 CURVE",
"1616 551 LINE",
"1553 797 OFFCURVE",
"1464 978 OFFCURVE",
"1348 1094 CURVE SMOOTH",
"1267 1175 OFFCURVE",
"1168 1214 OFFCURVE",
"1012 1214 CURVE SMOOTH",
"848 1214 OFFCURVE",
"685 1164 OFFCURVE",
"523 1063 CURVE",
"596 920 LINE",
"621 936 OFFCURVE",
"645 950 OFFCURVE",
"670 963 CURVE",
"883 680 LINE",
"670 604 OFFCURVE",
"535 510 OFFCURVE",
"535 305 CURVE SMOOTH",
"535 98 OFFCURVE",
"685 -27 OFFCURVE",
"953 -27 CURVE SMOOTH"
);
},
{
closed = 1;
nodes = (
"816 1028 LINE",
"881 1047 OFFCURVE",
"947 1057 OFFCURVE",
"1012 1057 CURVE SMOOTH",
"1159 1057 OFFCURVE",
"1233 1009 OFFCURVE",
"1233 913 CURVE SMOOTH",
"1233 876 OFFCURVE",
"1220 845 OFFCURVE",
"1194 819 CURVE SMOOTH",
"1168 793 OFFCURVE",
"1116 764 OFFCURVE",
"1039 733 CURVE"
);
}
);
width = 1966;
}
);
note = g17;
},
{
glyphname = g18;
lastChange = "2016-11-10 17:41:46 +0000";
layers = (
{
layerId = "950E4965-652C-4E49-8BA2-A8792AD091D1";
paths = (
{
closed = 1;
nodes = (
"809 -14 LINE",
"692 187 OFFCURVE",
"643 365 OFFCURVE",
"643 610 CURVE SMOOTH",
"643 920 OFFCURVE",
"731 1192 OFFCURVE",
"908 1427 CURVE",
"1040 1403 OFFCURVE",
"1177 1391 OFFCURVE",
"1319 1391 CURVE SMOOTH",
"1617 1391 OFFCURVE",
"1860 1422 OFFCURVE",
"2048 1485 CURVE",
"2048 1647 LINE",
"1849 1586 OFFCURVE",
"1606 1556 OFFCURVE",
"1319 1556 CURVE SMOOTH",
"1162 1556 OFFCURVE",
"999 1570 OFFCURVE",
"828 1599 CURVE",
"593 1288 OFFCURVE",
"482 987 OFFCURVE",
"482 596 CURVE SMOOTH",
"482 325 OFFCURVE",
"539 111 OFFCURVE",
"662 -98 CURVE"
);
},
{
closed = 1;
nodes = (
"358 276 LINE",
"295 380 OFFCURVE",
"274 464 OFFCURVE",
"274 575 CURVE SMOOTH",
"274 671 OFFCURVE",
"302 762 OFFCURVE",
"358 848 CURVE",
"227 924 LINE",
"151 831 OFFCURVE",
"113 714 OFFCURVE",
"113 573 CURVE SMOOTH",
"113 424 OFFCURVE",
"138 328 OFFCURVE",
"203 203 CURVE"
);
},
{
closed = 1;
nodes = (
"1152 131 OFFCURVE",
"1067 192 OFFCURVE",
"1067 315 CURVE SMOOTH",
"1067 359 OFFCURVE",
"1077 395 OFFCURVE",
"1098 423 CURVE SMOOTH",
"1138 479 OFFCURVE",
"1210 512 OFFCURVE",
"1343 559 CURVE",
"1618 199 LINE",
"1515 154 OFFCURVE",
"1416 131 OFFCURVE",
"1321 131 CURVE SMOOTH"
);
},
{
closed = 1;
nodes = (
"1512 -27 OFFCURVE",
"1691 35 OFFCURVE",
"1908 176 CURVE",
"1820 315 LINE",
"1755 274 LINE",
"1495 616 LINE",
"1627 671 OFFCURVE",
"1710 734 OFFCURVE",
"1743 805 CURVE",
"1799 696 OFFCURVE",
"1844 569 OFFCURVE",
"1878 424 CURVE",
"2035 373 LINE",
"2183 572 OFFCURVE",
"2242 722 OFFCURVE",
"2242 922 CURVE SMOOTH",
"2242 1013 OFFCURVE",
"2227 1104 OFFCURVE",
"2197 1194 CURVE",
"2029 1137 LINE",
"2062 1050 OFFCURVE",
"2078 964 OFFCURVE",
"2078 879 CURVE SMOOTH",
"2078 768 OFFCURVE",
"2049 658 OFFCURVE",
"1990 549 CURVE",
"1984 551 LINE",
"1921 797 OFFCURVE",
"1832 978 OFFCURVE",
"1716 1094 CURVE SMOOTH",
"1635 1175 OFFCURVE",
"1536 1214 OFFCURVE",
"1380 1214 CURVE SMOOTH",
"1216 1214 OFFCURVE",
"1053 1164 OFFCURVE",
"891 1063 CURVE",
"964 920 LINE",
"989 936 OFFCURVE",
"1013 950 OFFCURVE",
"1038 963 CURVE",
"1251 680 LINE",
"1038 604 OFFCURVE",
"903 510 OFFCURVE",
"903 305 CURVE SMOOTH",
"903 98 OFFCURVE",
"1053 -27 OFFCURVE",
"1321 -27 CURVE SMOOTH"
);
},
{
closed = 1;
nodes = (
"1184 1028 LINE",
"1249 1047 OFFCURVE",
"1315 1057 OFFCURVE",
"1380 1057 CURVE SMOOTH",
"1527 1057 OFFCURVE",
"1601 1009 OFFCURVE",
"1601 913 CURVE SMOOTH",
"1601 876 OFFCURVE",
"1588 845 OFFCURVE",
"1562 819 CURVE SMOOTH",
"1536 793 OFFCURVE",
"1484 764 OFFCURVE",
"1407 733 CURVE"
);
}
);
width = 2335;
}
);
note = g18;
},
{
glyphname = g19;
lastChange = "2016-11-10 17:41:46 +0000";
layers = (
{
layerId = "950E4965-652C-4E49-8BA2-A8792AD091D1";
paths = (
{
closed = 1;
nodes = (
"734 -27 OFFCURVE",
"913 35 OFFCURVE",
"1130 176 CURVE",
"1042 315 LINE",
"977 274 LINE",
"717 616 LINE",
"849 671 OFFCURVE",
"932 734 OFFCURVE",
"965 805 CURVE",
"1021 696 OFFCURVE",
"1066 569 OFFCURVE",
"1100 424 CURVE",
"1257 373 LINE",
"1405 572 OFFCURVE",
"1464 722 OFFCURVE",
"1464 922 CURVE SMOOTH",
"1464 1013 OFFCURVE",
"1449 1104 OFFCURVE",
"1419 1194 CURVE",
"1251 1137 LINE",
"1284 1050 OFFCURVE",
"1300 964 OFFCURVE",
"1300 879 CURVE SMOOTH",
"1300 768 OFFCURVE",
"1271 658 OFFCURVE",
"1212 549 CURVE",
"1206 551 LINE",
"1143 797 OFFCURVE",
"1054 978 OFFCURVE",
"938 1094 CURVE SMOOTH",
"857 1175 OFFCURVE",
"758 1214 OFFCURVE",
"602 1214 CURVE SMOOTH",
"438 1214 OFFCURVE",
"275 1164 OFFCURVE",
"113 1063 CURVE",
"186 920 LINE",
"211 936 OFFCURVE",
"235 950 OFFCURVE",
"260 963 CURVE",
"473 680 LINE",
"260 604 OFFCURVE",
"125 510 OFFCURVE",
"125 305 CURVE SMOOTH",
"125 98 OFFCURVE",
"275 -27 OFFCURVE",
"543 -27 CURVE SMOOTH"
);
},
{
closed = 1;
nodes = (
"374 131 OFFCURVE",
"289 192 OFFCURVE",
"289 315 CURVE SMOOTH",
"289 359 OFFCURVE",
"299 395 OFFCURVE",
"320 423 CURVE SMOOTH",
"360 479 OFFCURVE",
"432 512 OFFCURVE",
"565 559 CURVE",
"840 199 LINE",
"737 154 OFFCURVE",
"638 131 OFFCURVE",
"543 131 CURVE SMOOTH"
);
},
{
closed = 1;
nodes = (
"406 1028 LINE",
"471 1047 OFFCURVE",
"537 1057 OFFCURVE",
"602 1057 CURVE SMOOTH",
"749 1057 OFFCURVE",
"823 1009 OFFCURVE",
"823 913 CURVE SMOOTH",
"823 876 OFFCURVE",
"810 845 OFFCURVE",
"784 819 CURVE SMOOTH",
"758 793 OFFCURVE",
"706 764 OFFCURVE",
"629 733 CURVE"
);
},
{
closed = 1;
nodes = (
"1538 -360 OFFCURVE",
"1623 -331 OFFCURVE",
"1700 -273 CURVE SMOOTH",
"1853 -157 OFFCURVE",
"1944 64 OFFCURVE",
"1944 348 CURVE SMOOTH",
"1944 706 OFFCURVE",
"1859 1005 OFFCURVE",
"1690 1245 CURVE",
"1542 1161 LINE",
"1697 930 OFFCURVE",
"1774 661 OFFCURVE",
"1774 354 CURVE SMOOTH",
"1774 241 OFFCURVE",
"1760 142 OFFCURVE",
"1733 59 CURVE SMOOTH",
"1678 -108 OFFCURVE",
"1577 -199 OFFCURVE",
"1452 -199 CURVE SMOOTH",
"1415 -199 OFFCURVE",
"1383 -189 OFFCURVE",
"1354 -170 CURVE",
"1280 -311 LINE",
"1324 -344 OFFCURVE",
"1379 -360 OFFCURVE",
"1444 -360 CURVE SMOOTH"
);
}
);
width = 2097;
}
);
note = g19;
},
{
glyphname = g20;
lastChange = "2016-11-10 17:41:46 +0000";
layers = (
{
layerId = "950E4965-652C-4E49-8BA2-A8792AD091D1";
paths = (
{
closed = 1;
nodes = (
"1103 -27 OFFCURVE",
"1282 35 OFFCURVE",
"1499 176 CURVE",
"1411 315 LINE",
"1346 274 LINE",
"1086 616 LINE",
"1218 671 OFFCURVE",
"1301 734 OFFCURVE",
"1334 805 CURVE",
"1390 696 OFFCURVE",
"1435 569 OFFCURVE",
"1469 424 CURVE",
"1626 373 LINE",
"1774 572 OFFCURVE",
"1833 722 OFFCURVE",
"1833 922 CURVE SMOOTH",
"1833 1013 OFFCURVE",
"1818 1104 OFFCURVE",
"1788 1194 CURVE",
"1620 1137 LINE",
"1653 1050 OFFCURVE",
"1669 964 OFFCURVE",
"1669 879 CURVE SMOOTH",
"1669 768 OFFCURVE",
"1640 658 OFFCURVE",
"1581 549 CURVE",
"1575 551 LINE",
"1512 797 OFFCURVE",
"1423 978 OFFCURVE",
"1307 1094 CURVE SMOOTH",
"1226 1175 OFFCURVE",
"1127 1214 OFFCURVE",
"971 1214 CURVE SMOOTH",
"807 1214 OFFCURVE",
"644 1164 OFFCURVE",
"482 1063 CURVE",
"555 920 LINE",
"580 936 OFFCURVE",
"604 950 OFFCURVE",
"629 963 CURVE",
"842 680 LINE",
"629 604 OFFCURVE",
"494 510 OFFCURVE",
"494 305 CURVE SMOOTH",
"494 98 OFFCURVE",
"644 -27 OFFCURVE",
"912 -27 CURVE SMOOTH"
);
},
{
closed = 1;
nodes = (
"358 276 LINE",
"295 380 OFFCURVE",
"274 464 OFFCURVE",
"274 575 CURVE SMOOTH",
"274 671 OFFCURVE",
"302 762 OFFCURVE",
"358 848 CURVE",
"227 924 LINE",
"151 831 OFFCURVE",
"113 714 OFFCURVE",
"113 573 CURVE SMOOTH",
"113 424 OFFCURVE",
"138 328 OFFCURVE",
"203 203 CURVE"
);
},
{
closed = 1;
nodes = (
"743 131 OFFCURVE",
"658 192 OFFCURVE",
"658 315 CURVE SMOOTH",
"658 359 OFFCURVE",
"668 395 OFFCURVE",
"689 423 CURVE SMOOTH",
"729 479 OFFCURVE",
"801 512 OFFCURVE",
"934 559 CURVE",
"1209 199 LINE",
"1106 154 OFFCURVE",
"1007 131 OFFCURVE",
"912 131 CURVE SMOOTH"
);
},
{
closed = 1;
nodes = (
"775 1028 LINE",
"840 1047 OFFCURVE",
"906 1057 OFFCURVE",
"971 1057 CURVE SMOOTH",
"1118 1057 OFFCURVE",
"1192 1009 OFFCURVE",
"1192 913 CURVE SMOOTH",
"1192 876 OFFCURVE",
"1179 845 OFFCURVE",
"1153 819 CURVE SMOOTH",
"1127 793 OFFCURVE",
"1075 764 OFFCURVE",
"998 733 CURVE"
);
},
{
closed = 1;
nodes = (
"1906 -360 OFFCURVE",
"1991 -331 OFFCURVE",
"2068 -273 CURVE SMOOTH",
"2221 -157 OFFCURVE",
"2312 64 OFFCURVE",
"2312 348 CURVE SMOOTH",
"2312 706 OFFCURVE",
"2227 1005 OFFCURVE",
"2058 1245 CURVE",
"1910 1161 LINE",
"2065 930 OFFCURVE",
"2142 661 OFFCURVE",
"2142 354 CURVE SMOOTH",
"2142 241 OFFCURVE",
"2128 142 OFFCURVE",
"2101 59 CURVE SMOOTH",
"2046 -108 OFFCURVE",
"1945 -199 OFFCURVE",
"1820 -199 CURVE SMOOTH",
"1783 -199 OFFCURVE",
"1751 -189 OFFCURVE",
"1722 -170 CURVE",
"1648 -311 LINE",
"1692 -344 OFFCURVE",
"1747 -360 OFFCURVE",
"1812 -360 CURVE SMOOTH"
);
}
);
width = 2466;
}
);
note = g20;
},
{
glyphname = g21;
lastChange = "2016-11-10 17:41:46 +0000";
layers = (
{
layerId = "950E4965-652C-4E49-8BA2-A8792AD091D1";
paths = (
{
closed = 1;
nodes = (
"734 -27 OFFCURVE",
"913 35 OFFCURVE",
"1130 176 CURVE",
"1042 315 LINE",
"977 274 LINE",
"717 616 LINE",
"849 671 OFFCURVE",
"932 734 OFFCURVE",
"965 805 CURVE",
"1021 696 OFFCURVE",
"1066 569 OFFCURVE",
"1100 424 CURVE",
"1257 373 LINE",
"1405 572 OFFCURVE",
"1464 722 OFFCURVE",
"1464 922 CURVE SMOOTH",
"1464 1013 OFFCURVE",
"1449 1104 OFFCURVE",
"1419 1194 CURVE",
"1251 1137 LINE",
"1284 1050 OFFCURVE",
"1300 964 OFFCURVE",
"1300 879 CURVE SMOOTH",
"1300 768 OFFCURVE",
"1271 658 OFFCURVE",
"1212 549 CURVE",
"1206 551 LINE",
"1143 797 OFFCURVE",
"1054 978 OFFCURVE",
"938 1094 CURVE SMOOTH",
"857 1175 OFFCURVE",
"758 1214 OFFCURVE",
"602 1214 CURVE SMOOTH",
"438 1214 OFFCURVE",
"275 1164 OFFCURVE",
"113 1063 CURVE",
"186 920 LINE",
"211 936 OFFCURVE",
"235 950 OFFCURVE",
"260 963 CURVE",
"473 680 LINE",
"260 604 OFFCURVE",
"125 510 OFFCURVE",
"125 305 CURVE SMOOTH",
"125 98 OFFCURVE",
"275 -27 OFFCURVE",
"543 -27 CURVE SMOOTH"
);
},
{
closed = 1;
nodes = (
"374 131 OFFCURVE",
"289 192 OFFCURVE",
"289 315 CURVE SMOOTH",
"289 359 OFFCURVE",
"299 395 OFFCURVE",
"320 423 CURVE SMOOTH",
"360 479 OFFCURVE",
"432 512 OFFCURVE",
"565 559 CURVE",
"840 199 LINE",
"737 154 OFFCURVE",
"638 131 OFFCURVE",
"543 131 CURVE SMOOTH"
);
},
{
closed = 1;
nodes = (
"406 1028 LINE",
"471 1047 OFFCURVE",
"537 1057 OFFCURVE",
"602 1057 CURVE SMOOTH",
"749 1057 OFFCURVE",
"823 1009 OFFCURVE",
"823 913 CURVE SMOOTH",
"823 876 OFFCURVE",
"810 845 OFFCURVE",
"784 819 CURVE SMOOTH",
"758 793 OFFCURVE",
"706 764 OFFCURVE",
"629 733 CURVE"
);
},
{
closed = 1;
nodes = (
"1772 -360 OFFCURVE",
"1854 -341 OFFCURVE",
"1927 -303 CURVE SMOOTH",
"2071 -227 OFFCURVE",
"2158 -71 OFFCURVE",
"2158 150 CURVE SMOOTH",
"2158 313 OFFCURVE",
"2108 508 OFFCURVE",
"2021 657 CURVE",
"2106 743 OFFCURVE",
"2148 836 OFFCURVE",
"2148 936 CURVE SMOOTH",
"2148 1103 OFFCURVE",
"2047 1221 OFFCURVE",
"1867 1221 CURVE SMOOTH",
"1754 1221 OFFCURVE",
"1651 1184 OFFCURVE",
"1560 1110 CURVE",
"1652 971 LINE",
"1725 1028 OFFCURVE",
"1796 1057 OFFCURVE",
"1867 1057 CURVE SMOOTH",
"1941 1057 OFFCURVE",
"1978 1017 OFFCURVE",
"1978 936 CURVE SMOOTH",
"1978 895 OFFCURVE",
"1967 857 OFFCURVE",
"1945 822 CURVE SMOOTH",
"1901 753 OFFCURVE",
"1809 680 OFFCURVE",
"1626 573 CURVE",
"1714 428 LINE",
"1779 469 OFFCURVE",
"1837 508 OFFCURVE",
"1886 545 CURVE",
"1954 423 OFFCURVE",
"1988 291 OFFCURVE",
"1988 150 CURVE SMOOTH",
"1988 -86 OFFCURVE",
"1872 -199 OFFCURVE",
"1687 -199 CURVE SMOOTH",
"1650 -199 OFFCURVE",
"1618 -189 OFFCURVE",
"1589 -170 CURVE",
"1515 -311 LINE",
"1559 -344 OFFCURVE",
"1614 -360 OFFCURVE",
"1679 -360 CURVE SMOOTH"
);
}
);
width = 2312;
}
);
note = g21;
},
{
glyphname = g22;
lastChange = "2016-11-10 17:41:46 +0000";
layers = (
{
layerId = "950E4965-652C-4E49-8BA2-A8792AD091D1";
paths = (
{
closed = 1;
nodes = (
"1103 -27 OFFCURVE",
"1282 35 OFFCURVE",
"1499 176 CURVE",
"1411 315 LINE",
"1346 274 LINE",
"1086 616 LINE",
"1218 671 OFFCURVE",
"1301 734 OFFCURVE",
"1334 805 CURVE",
"1390 696 OFFCURVE",
"1435 569 OFFCURVE",
"1469 424 CURVE",
"1626 373 LINE",
"1774 572 OFFCURVE",
"1833 722 OFFCURVE",
"1833 922 CURVE SMOOTH",
"1833 1013 OFFCURVE",
"1818 1104 OFFCURVE",
"1788 1194 CURVE",
"1620 1137 LINE",
"1653 1050 OFFCURVE",
"1669 964 OFFCURVE",
"1669 879 CURVE SMOOTH",
"1669 768 OFFCURVE",
"1640 658 OFFCURVE",
"1581 549 CURVE",
"1575 551 LINE",
"1512 797 OFFCURVE",
"1423 978 OFFCURVE",
"1307 1094 CURVE SMOOTH",
"1226 1175 OFFCURVE",
"1127 1214 OFFCURVE",
"971 1214 CURVE SMOOTH",
"807 1214 OFFCURVE",
"644 1164 OFFCURVE",
"482 1063 CURVE",
"555 920 LINE",
"580 936 OFFCURVE",
"604 950 OFFCURVE",
"629 963 CURVE",
"842 680 LINE",
"629 604 OFFCURVE",
"494 510 OFFCURVE",
"494 305 CURVE SMOOTH",
"494 98 OFFCURVE",
"644 -27 OFFCURVE",
"912 -27 CURVE SMOOTH"
);
},
{
closed = 1;
nodes = (
"358 276 LINE",
"295 380 OFFCURVE",
"274 464 OFFCURVE",
"274 575 CURVE SMOOTH",
"274 671 OFFCURVE",
"302 762 OFFCURVE",
"358 848 CURVE",
"227 924 LINE",
"151 831 OFFCURVE",
"113 714 OFFCURVE",
"113 573 CURVE SMOOTH",
"113 424 OFFCURVE",
"138 328 OFFCURVE",
"203 203 CURVE"
);
},
{
closed = 1;
nodes = (
"743 131 OFFCURVE",
"658 192 OFFCURVE",
"658 315 CURVE SMOOTH",
"658 359 OFFCURVE",
"668 395 OFFCURVE",
"689 423 CURVE SMOOTH",
"729 479 OFFCURVE",
"801 512 OFFCURVE",
"934 559 CURVE",
"1209 199 LINE",
"1106 154 OFFCURVE",
"1007 131 OFFCURVE",
"912 131 CURVE SMOOTH"
);
},
{
closed = 1;
nodes = (
"775 1028 LINE",
"840 1047 OFFCURVE",
"906 1057 OFFCURVE",
"971 1057 CURVE SMOOTH",
"1118 1057 OFFCURVE",
"1192 1009 OFFCURVE",
"1192 913 CURVE SMOOTH",
"1192 876 OFFCURVE",
"1179 845 OFFCURVE",
"1153 819 CURVE SMOOTH",
"1127 793 OFFCURVE",
"1075 764 OFFCURVE",
"998 733 CURVE"
);
},
{
closed = 1;
nodes = (
"2141 -360 OFFCURVE",
"2223 -341 OFFCURVE",
"2296 -303 CURVE SMOOTH",
"2440 -227 OFFCURVE",
"2527 -71 OFFCURVE",
"2527 150 CURVE SMOOTH",
"2527 313 OFFCURVE",
"2477 508 OFFCURVE",
"2390 657 CURVE",
"2475 743 OFFCURVE",
"2517 836 OFFCURVE",
"2517 936 CURVE SMOOTH",
"2517 1103 OFFCURVE",
"2416 1221 OFFCURVE",
"2236 1221 CURVE SMOOTH",
"2123 1221 OFFCURVE",
"2020 1184 OFFCURVE",
"1929 1110 CURVE",
"2021 971 LINE",
"2094 1028 OFFCURVE",
"2165 1057 OFFCURVE",
"2236 1057 CURVE SMOOTH",
"2310 1057 OFFCURVE",
"2347 1017 OFFCURVE",
"2347 936 CURVE SMOOTH",
"2347 895 OFFCURVE",
"2336 857 OFFCURVE",
"2314 822 CURVE SMOOTH",
"2270 753 OFFCURVE",
"2178 680 OFFCURVE",
"1995 573 CURVE",
"2083 428 LINE",
"2148 469 OFFCURVE",
"2206 508 OFFCURVE",
"2255 545 CURVE",
"2323 423 OFFCURVE",
"2357 291 OFFCURVE",
"2357 150 CURVE SMOOTH",
"2357 -86 OFFCURVE",
"2241 -199 OFFCURVE",
"2056 -199 CURVE SMOOTH",
"2019 -199 OFFCURVE",
"1987 -189 OFFCURVE",
"1958 -170 CURVE",
"1884 -311 LINE",
"1928 -344 OFFCURVE",
"1983 -360 OFFCURVE",
"2048 -360 CURVE SMOOTH"
);
}
);
width = 2681;
}
);
note = g22;
},
{
glyphname = g23;
lastChange = "2016-11-10 17:41:46 +0000";
layers = (
{
layerId = "950E4965-652C-4E49-8BA2-A8792AD091D1";
paths = (
{
closed = 1;
nodes = (
"744 -27 OFFCURVE",
"936 40 OFFCURVE",
"1165 201 CURVE",
"1077 340 LINE",
"985 279 LINE",
"725 618 LINE",
"921 703 OFFCURVE",
"987 789 OFFCURVE",
"987 918 CURVE SMOOTH",
"987 1101 OFFCURVE",
"858 1214 OFFCURVE",
"598 1214 CURVE SMOOTH",
"437 1214 OFFCURVE",
"275 1164 OFFCURVE",
"113 1063 CURVE",
"186 920 LINE",
"192 924 OFFCURVE",
"219 940 OFFCURVE",
"266 967 CURVE",
"481 682 LINE",
"262 606 OFFCURVE",
"125 513 OFFCURVE",
"125 305 CURVE SMOOTH",
"125 98 OFFCURVE",
"275 -27 OFFCURVE",
"543 -27 CURVE SMOOTH"
);
},
{
closed = 1;
nodes = (
"374 131 OFFCURVE",
"289 192 OFFCURVE",
"289 315 CURVE SMOOTH",
"289 359 OFFCURVE",
"300 395 OFFCURVE",
"321 424 CURVE SMOOTH",
"363 481 OFFCURVE",
"434 514 OFFCURVE",
"573 563 CURVE",
"848 203 LINE",
"747 155 OFFCURVE",
"645 131 OFFCURVE",
"543 131 CURVE SMOOTH"
);
},
{
closed = 1;
nodes = (
"414 1030 LINE",
"471 1048 OFFCURVE",
"534 1057 OFFCURVE",
"602 1057 CURVE SMOOTH",
"749 1057 OFFCURVE",
"823 1009 OFFCURVE",
"823 913 CURVE SMOOTH",
"823 840 OFFCURVE",
"788 797 OFFCURVE",
"637 737 CURVE"
);
},
{
closed = 1;
nodes = (
"1683 16 LINE",
"1524 195 OFFCURVE",
"1448 395 OFFCURVE",
"1448 590 CURVE SMOOTH",
"1448 757 OFFCURVE",
"1500 915 OFFCURVE",
"1603 1065 CURVE",
"1612 1065 LINE",
"1633 914 OFFCURVE",
"1701 759 OFFCURVE",
"1802 639 CURVE",
"1931 739 LINE",
"1830 854 OFFCURVE",
"1753 1028 OFFCURVE",
"1736 1192 CURVE",
"1526 1192 LINE",
"1359 995 OFFCURVE",
"1288 813 OFFCURVE",
"1288 578 CURVE SMOOTH",
"1288 333 OFFCURVE",
"1376 107 OFFCURVE",
"1552 -100 CURVE"
);
}
);
width = 1972;
}
);
note = g23;
},
{
glyphname = g24;
lastChange = "2016-11-10 17:41:46 +0000";
layers = (
{
layerId = "950E4965-652C-4E49-8BA2-A8792AD091D1";
paths = (
{
closed = 1;
nodes = (
"1113 -27 OFFCURVE",
"1305 40 OFFCURVE",
"1534 201 CURVE",
"1446 340 LINE",
"1354 279 LINE",
"1094 618 LINE",
"1290 703 OFFCURVE",
"1356 789 OFFCURVE",
"1356 918 CURVE SMOOTH",
"1356 1101 OFFCURVE",
"1227 1214 OFFCURVE",
"967 1214 CURVE SMOOTH",
"806 1214 OFFCURVE",
"644 1164 OFFCURVE",
"482 1063 CURVE",
"555 920 LINE",
"561 924 OFFCURVE",
"588 940 OFFCURVE",
"635 967 CURVE",
"850 682 LINE",
"631 606 OFFCURVE",
"494 513 OFFCURVE",
"494 305 CURVE SMOOTH",
"494 98 OFFCURVE",
"644 -27 OFFCURVE",
"912 -27 CURVE SMOOTH"
);
},
{
closed = 1;
nodes = (
"358 276 LINE",
"295 380 OFFCURVE",
"274 464 OFFCURVE",
"274 575 CURVE SMOOTH",
"274 671 OFFCURVE",
"302 762 OFFCURVE",
"358 848 CURVE",
"227 924 LINE",
"151 831 OFFCURVE",
"113 714 OFFCURVE",
"113 573 CURVE SMOOTH",
"113 424 OFFCURVE",
"138 328 OFFCURVE",
"203 203 CURVE"
);
},
{
closed = 1;
nodes = (
"743 131 OFFCURVE",
"658 192 OFFCURVE",
"658 315 CURVE SMOOTH",
"658 359 OFFCURVE",
"669 395 OFFCURVE",
"690 424 CURVE SMOOTH",
"732 481 OFFCURVE",
"803 514 OFFCURVE",
"942 563 CURVE",
"1217 203 LINE",
"1116 155 OFFCURVE",
"1014 131 OFFCURVE",
"912 131 CURVE SMOOTH"
);
},
{
closed = 1;
nodes = (
"783 1030 LINE",
"840 1048 OFFCURVE",
"903 1057 OFFCURVE",
"971 1057 CURVE SMOOTH",
"1118 1057 OFFCURVE",
"1192 1009 OFFCURVE",
"1192 913 CURVE SMOOTH",
"1192 840 OFFCURVE",
"1157 797 OFFCURVE",
"1006 737 CURVE"
);
},
{
closed = 1;
nodes = (
"2052 16 LINE",
"1893 195 OFFCURVE",
"1817 395 OFFCURVE",
"1817 590 CURVE SMOOTH",
"1817 757 OFFCURVE",
"1869 915 OFFCURVE",
"1972 1065 CURVE",
"1981 1065 LINE",
"2002 914 OFFCURVE",
"2070 759 OFFCURVE",
"2171 639 CURVE",
"2300 739 LINE",
"2199 854 OFFCURVE",
"2122 1028 OFFCURVE",
"2105 1192 CURVE",
"1895 1192 LINE",
"1728 995 OFFCURVE",
"1657 813 OFFCURVE",
"1657 578 CURVE SMOOTH",
"1657 333 OFFCURVE",
"1745 107 OFFCURVE",
"1921 -100 CURVE"
);
}
);
width = 2341;
}
);
note = g24;
},
{
glyphname = g25;
lastChange = "2016-11-10 17:41:46 +0000";
layers = (
{
layerId = "950E4965-652C-4E49-8BA2-A8792AD091D1";
paths = (
{
closed = 1;
nodes = (
"1113 -27 OFFCURVE",
"1305 40 OFFCURVE",
"1534 201 CURVE",
"1446 340 LINE",
"1354 279 LINE",
"1094 618 LINE",
"1290 703 OFFCURVE",
"1356 789 OFFCURVE",
"1356 918 CURVE SMOOTH",
"1356 1101 OFFCURVE",
"1227 1214 OFFCURVE",
"967 1214 CURVE SMOOTH",
"806 1214 OFFCURVE",
"644 1164 OFFCURVE",
"482 1063 CURVE",
"555 920 LINE",
"561 924 OFFCURVE",
"588 940 OFFCURVE",
"635 967 CURVE",
"850 682 LINE",
"631 606 OFFCURVE",
"494 513 OFFCURVE",
"494 305 CURVE SMOOTH",
"494 98 OFFCURVE",
"644 -27 OFFCURVE",
"912 -27 CURVE SMOOTH"
);
},
{
closed = 1;
nodes = (
"1347 -319 LINE",
"1270 -284 OFFCURVE",
"1184 -266 OFFCURVE",
"1091 -266 CURVE SMOOTH",
"988 -266 OFFCURVE",
"898 -291 OFFCURVE",
"821 -342 CURVE",
"817 -338 LINE",
"942 -168 LINE",
"827 -94 LINE",
"639 -391 LINE",
"770 -475 LINE",
"846 -437 OFFCURVE",
"933 -418 OFFCURVE",
"1032 -418 CURVE SMOOTH",
"1130 -418 OFFCURVE",
"1215 -438 OFFCURVE",
"1288 -479 CURVE"
);
},
{
closed = 1;
nodes = (
"358 276 LINE",
"295 380 OFFCURVE",
"274 464 OFFCURVE",
"274 575 CURVE SMOOTH",
"274 671 OFFCURVE",
"302 762 OFFCURVE",
"358 848 CURVE",
"227 924 LINE",
"151 831 OFFCURVE",
"113 714 OFFCURVE",
"113 573 CURVE SMOOTH",
"113 424 OFFCURVE",
"138 328 OFFCURVE",
"203 203 CURVE"
);
},
{
closed = 1;
nodes = (
"743 131 OFFCURVE",
"658 192 OFFCURVE",
"658 315 CURVE SMOOTH",
"658 359 OFFCURVE",
"669 395 OFFCURVE",
"690 424 CURVE SMOOTH",
"732 481 OFFCURVE",
"803 514 OFFCURVE",
"942 563 CURVE",
"1217 203 LINE",
"1116 155 OFFCURVE",
"1014 131 OFFCURVE",
"912 131 CURVE SMOOTH"
);
},
{
closed = 1;
nodes = (
"783 1030 LINE",
"840 1048 OFFCURVE",
"903 1057 OFFCURVE",
"971 1057 CURVE SMOOTH",
"1118 1057 OFFCURVE",
"1192 1009 OFFCURVE",
"1192 913 CURVE SMOOTH",
"1192 840 OFFCURVE",
"1157 797 OFFCURVE",
"1006 737 CURVE"
);
}
);
width = 1616;
}
);
note = g25;
},
{
glyphname = g26;
lastChange = "2016-11-10 17:41:46 +0000";
layers = (
{
layerId = "950E4965-652C-4E49-8BA2-A8792AD091D1";
paths = (
{
closed = 1;
nodes = (
"287 -360 OFFCURVE",
"363 -337 OFFCURVE",
"430 -292 CURVE SMOOTH",
"563 -202 OFFCURVE",
"645 -24 OFFCURVE",
"645 227 CURVE SMOOTH",
"645 568 OFFCURVE",
"504 885 OFFCURVE",
"223 1178 CURVE",
"385 1360 LINE",
"618 1163 LINE",
"723 1292 LINE",
"369 1589 LINE",
"-2 1178 LINE",
"316 894 OFFCURVE",
"475 576 OFFCURVE",
"475 223 CURVE SMOOTH",
"475 -56 OFFCURVE",
"370 -199 OFFCURVE",
"209 -199 CURVE SMOOTH",
"172 -199 OFFCURVE",
"140 -189 OFFCURVE",
"111 -170 CURVE",
"37 -311 LINE",
"80 -344 OFFCURVE",
"135 -360 OFFCURVE",
"201 -360 CURVE SMOOTH"
);
},
{
closed = 1;
nodes = (
"1097 131 OFFCURVE",
"1012 192 OFFCURVE",
"1012 315 CURVE SMOOTH",
"1012 359 OFFCURVE",
"1023 395 OFFCURVE",
"1044 424 CURVE SMOOTH",
"1086 481 OFFCURVE",
"1157 514 OFFCURVE",
"1296 563 CURVE",
"1571 203 LINE",
"1470 155 OFFCURVE",
"1368 131 OFFCURVE",
"1266 131 CURVE SMOOTH"
);
},
{
closed = 1;
nodes = (
"1467 -27 OFFCURVE",
"1659 40 OFFCURVE",
"1888 201 CURVE",
"1800 340 LINE",
"1708 279 LINE",
"1448 618 LINE",
"1644 703 OFFCURVE",
"1710 789 OFFCURVE",
"1710 918 CURVE SMOOTH",
"1710 1101 OFFCURVE",
"1581 1214 OFFCURVE",
"1321 1214 CURVE SMOOTH",
"1160 1214 OFFCURVE",
"998 1164 OFFCURVE",
"836 1063 CURVE",
"909 920 LINE",
"915 924 OFFCURVE",
"942 940 OFFCURVE",
"989 967 CURVE",
"1204 682 LINE",
"985 606 OFFCURVE",
"848 513 OFFCURVE",
"848 305 CURVE SMOOTH",
"848 98 OFFCURVE",
"998 -27 OFFCURVE",
"1266 -27 CURVE SMOOTH"
);
},
{
closed = 1;
nodes = (
"1137 1030 LINE",
"1194 1048 OFFCURVE",
"1257 1057 OFFCURVE",
"1325 1057 CURVE SMOOTH",
"1472 1057 OFFCURVE",
"1546 1009 OFFCURVE",
"1546 913 CURVE SMOOTH",
"1546 840 OFFCURVE",
"1511 797 OFFCURVE",
"1360 737 CURVE"
);
}
);
width = 1970;
}
);
note = g26;
},
{
glyphname = g27;
lastChange = "2016-11-10 17:41:46 +0000";
layers = (
{
layerId = "950E4965-652C-4E49-8BA2-A8792AD091D1";
paths = (
{
closed = 1;
nodes = (
"490 -360 OFFCURVE",
"566 -337 OFFCURVE",
"633 -292 CURVE SMOOTH",
"766 -202 OFFCURVE",
"848 -24 OFFCURVE",
"848 227 CURVE SMOOTH",
"848 568 OFFCURVE",
"707 885 OFFCURVE",
"426 1178 CURVE",
"588 1360 LINE",
"821 1163 LINE",
"926 1292 LINE",
"572 1589 LINE",
"201 1178 LINE",
"519 894 OFFCURVE",
"678 576 OFFCURVE",
"678 223 CURVE SMOOTH",
"678 -56 OFFCURVE",
"573 -199 OFFCURVE",
"412 -199 CURVE SMOOTH",
"375 -199 OFFCURVE",
"343 -189 OFFCURVE",
"314 -170 CURVE",
"240 -311 LINE",
"283 -344 OFFCURVE",
"338 -360 OFFCURVE",
"404 -360 CURVE SMOOTH"
);
},
{
closed = 1;
nodes = (
"358 88 LINE",
"295 192 OFFCURVE",
"274 276 OFFCURVE",
"274 387 CURVE SMOOTH",
"274 483 OFFCURVE",
"302 574 OFFCURVE",
"358 660 CURVE",
"227 736 LINE",
"151 643 OFFCURVE",
"113 526 OFFCURVE",
"113 385 CURVE SMOOTH",
"113 236 OFFCURVE",
"138 140 OFFCURVE",
"203 15 CURVE"
);
},
{
closed = 1;
nodes = (
"1300 131 OFFCURVE",
"1215 192 OFFCURVE",
"1215 315 CURVE SMOOTH",
"1215 359 OFFCURVE",
"1226 395 OFFCURVE",
"1247 424 CURVE SMOOTH",
"1289 481 OFFCURVE",
"1360 514 OFFCURVE",
"1499 563 CURVE",
"1774 203 LINE",
"1673 155 OFFCURVE",
"1571 131 OFFCURVE",
"1469 131 CURVE SMOOTH"
);
},
{
closed = 1;
nodes = (
"1670 -27 OFFCURVE",
"1862 40 OFFCURVE",
"2091 201 CURVE",
"2003 340 LINE",
"1911 279 LINE",
"1651 618 LINE",
"1847 703 OFFCURVE",
"1913 789 OFFCURVE",
"1913 918 CURVE SMOOTH",
"1913 1101 OFFCURVE",
"1784 1214 OFFCURVE",
"1524 1214 CURVE SMOOTH",
"1363 1214 OFFCURVE",
"1201 1164 OFFCURVE",
"1039 1063 CURVE",
"1112 920 LINE",
"1118 924 OFFCURVE",
"1145 940 OFFCURVE",
"1192 967 CURVE",
"1407 682 LINE",
"1188 606 OFFCURVE",
"1051 513 OFFCURVE",
"1051 305 CURVE SMOOTH",
"1051 98 OFFCURVE",
"1201 -27 OFFCURVE",
"1469 -27 CURVE SMOOTH"
);
},
{
closed = 1;
nodes = (
"1340 1030 LINE",
"1397 1048 OFFCURVE",
"1460 1057 OFFCURVE",
"1528 1057 CURVE SMOOTH",
"1675 1057 OFFCURVE",
"1749 1009 OFFCURVE",
"1749 913 CURVE SMOOTH",
"1749 840 OFFCURVE",
"1714 797 OFFCURVE",
"1563 737 CURVE"
);
}
);
width = 2173;
}
);
note = g27;
},
{
glyphname = g28;
lastChange = "2016-11-10 17:41:46 +0000";
layers = (
{
layerId = "950E4965-652C-4E49-8BA2-A8792AD091D1";
paths = (
{
closed = 1;
nodes = (
"1258 -27 OFFCURVE",
"1450 40 OFFCURVE",
"1679 201 CURVE",
"1591 340 LINE",
"1499 279 LINE",
"1239 618 LINE",
"1435 703 OFFCURVE",
"1501 789 OFFCURVE",
"1501 918 CURVE SMOOTH",
"1501 1101 OFFCURVE",
"1372 1214 OFFCURVE",
"1112 1214 CURVE SMOOTH",
"951 1214 OFFCURVE",
"789 1164 OFFCURVE",
"627 1063 CURVE",
"700 920 LINE",
"706 924 OFFCURVE",
"733 940 OFFCURVE",
"780 967 CURVE",
"995 682 LINE",
"776 606 OFFCURVE",
"639 513 OFFCURVE",
"639 305 CURVE SMOOTH",
"639 98 OFFCURVE",
"789 -27 OFFCURVE",
"1057 -27 CURVE SMOOTH"
);
},
{
closed = 1;
nodes = (
"494 0 LINE",
"367 180 OFFCURVE",
"303 377 OFFCURVE",
"303 592 CURVE SMOOTH",
"303 797 OFFCURVE",
"367 987 OFFCURVE",
"494 1163 CURVE",
"377 1243 LINE",
"213 1030 OFFCURVE",
"143 833 OFFCURVE",
"143 580 CURVE SMOOTH",
"143 331 OFFCURVE",
"210 105 OFFCURVE",
"344 -98 CURVE"
);
},
{
closed = 1;
nodes = (
"888 131 OFFCURVE",
"803 192 OFFCURVE",
"803 315 CURVE SMOOTH",
"803 359 OFFCURVE",
"814 395 OFFCURVE",
"835 424 CURVE SMOOTH",
"877 481 OFFCURVE",
"948 514 OFFCURVE",
"1087 563 CURVE",
"1362 203 LINE",
"1261 155 OFFCURVE",
"1159 131 OFFCURVE",
"1057 131 CURVE SMOOTH"
);
},
{
closed = 1;
nodes = (
"928 1030 LINE",
"985 1048 OFFCURVE",
"1048 1057 OFFCURVE",
"1116 1057 CURVE SMOOTH",
"1263 1057 OFFCURVE",
"1337 1009 OFFCURVE",
"1337 913 CURVE SMOOTH",
"1337 840 OFFCURVE",
"1302 797 OFFCURVE",
"1151 737 CURVE"
);
}
);
width = 1761;
}
);
note = g28;
},
{
glyphname = g29;
lastChange = "2016-11-10 17:41:46 +0000";
layers = (
{
layerId = "950E4965-652C-4E49-8BA2-A8792AD091D1";
paths = (
{
closed = 1;
nodes = (
"1627 -27 OFFCURVE",
"1819 40 OFFCURVE",
"2048 201 CURVE",
"1960 340 LINE",
"1868 279 LINE",
"1608 618 LINE",
"1804 703 OFFCURVE",
"1870 789 OFFCURVE",
"1870 918 CURVE SMOOTH",
"1870 1101 OFFCURVE",
"1741 1214 OFFCURVE",
"1481 1214 CURVE SMOOTH",
"1320 1214 OFFCURVE",
"1158 1164 OFFCURVE",
"996 1063 CURVE",
"1069 920 LINE",
"1075 924 OFFCURVE",
"1102 940 OFFCURVE",
"1149 967 CURVE",
"1364 682 LINE",
"1145 606 OFFCURVE",
"1008 513 OFFCURVE",
"1008 305 CURVE SMOOTH",
"1008 98 OFFCURVE",
"1158 -27 OFFCURVE",
"1426 -27 CURVE SMOOTH"
);
},
{
closed = 1;
nodes = (
"358 276 LINE",
"295 380 OFFCURVE",
"274 464 OFFCURVE",
"274 575 CURVE SMOOTH",
"274 671 OFFCURVE",
"302 762 OFFCURVE",
"358 848 CURVE",
"227 924 LINE",
"151 831 OFFCURVE",
"113 714 OFFCURVE",
"113 573 CURVE SMOOTH",
"113 424 OFFCURVE",
"138 328 OFFCURVE",
"203 203 CURVE"
);
},
{
closed = 1;
nodes = (
"863 0 LINE",
"736 180 OFFCURVE",
"672 377 OFFCURVE",
"672 592 CURVE SMOOTH",
"672 797 OFFCURVE",
"736 987 OFFCURVE",
"863 1163 CURVE",
"746 1243 LINE",
"582 1030 OFFCURVE",
"512 833 OFFCURVE",
"512 580 CURVE SMOOTH",
"512 331 OFFCURVE",
"579 105 OFFCURVE",
"713 -98 CURVE"
);
},
{
closed = 1;
nodes = (
"1257 131 OFFCURVE",
"1172 192 OFFCURVE",
"1172 315 CURVE SMOOTH",
"1172 359 OFFCURVE",
"1183 395 OFFCURVE",
"1204 424 CURVE SMOOTH",
"1246 481 OFFCURVE",
"1317 514 OFFCURVE",
"1456 563 CURVE",
"1731 203 LINE",
"1630 155 OFFCURVE",
"1528 131 OFFCURVE",
"1426 131 CURVE SMOOTH"
);
},
{
closed = 1;
nodes = (
"1297 1030 LINE",
"1354 1048 OFFCURVE",
"1417 1057 OFFCURVE",
"1485 1057 CURVE SMOOTH",
"1632 1057 OFFCURVE",
"1706 1009 OFFCURVE",
"1706 913 CURVE SMOOTH",
"1706 840 OFFCURVE",
"1671 797 OFFCURVE",
"1520 737 CURVE"
);
}
);
width = 2130;
}
);
note = g29;
},
{
glyphname = g30;
lastChange = "2016-11-10 17:41:46 +0000";
layers = (
{
layerId = "950E4965-652C-4E49-8BA2-A8792AD091D1";
paths = (
{
closed = 1;
nodes = (
"440 -14 LINE",
"323 187 OFFCURVE",
"274 365 OFFCURVE",
"274 610 CURVE SMOOTH",
"274 920 OFFCURVE",
"362 1192 OFFCURVE",
"539 1427 CURVE",
"671 1403 OFFCURVE",
"808 1391 OFFCURVE",
"950 1391 CURVE SMOOTH",
"1248 1391 OFFCURVE",
"1491 1422 OFFCURVE",
"1679 1485 CURVE",
"1679 1647 LINE",
"1480 1586 OFFCURVE",
"1237 1556 OFFCURVE",
"950 1556 CURVE SMOOTH",
"793 1556 OFFCURVE",
"630 1570 OFFCURVE",
"459 1599 CURVE",
"224 1288 OFFCURVE",
"113 987 OFFCURVE",
"113 596 CURVE SMOOTH",
"113 325 OFFCURVE",
"170 111 OFFCURVE",
"293 -98 CURVE"
);
},
{
closed = 1;
nodes = (
"784 131 OFFCURVE",
"699 192 OFFCURVE",
"699 315 CURVE SMOOTH",
"699 359 OFFCURVE",
"710 395 OFFCURVE",
"731 424 CURVE SMOOTH",
"773 481 OFFCURVE",
"844 514 OFFCURVE",
"983 563 CURVE",
"1258 203 LINE",
"1157 155 OFFCURVE",
"1055 131 OFFCURVE",
"953 131 CURVE SMOOTH"
);
},
{
closed = 1;
nodes = (
"1154 -27 OFFCURVE",
"1346 40 OFFCURVE",
"1575 201 CURVE",
"1487 340 LINE",
"1395 279 LINE",
"1135 618 LINE",
"1331 703 OFFCURVE",
"1397 789 OFFCURVE",
"1397 918 CURVE SMOOTH",
"1397 1101 OFFCURVE",
"1268 1214 OFFCURVE",
"1008 1214 CURVE SMOOTH",
"847 1214 OFFCURVE",
"685 1164 OFFCURVE",
"523 1063 CURVE",
"596 920 LINE",
"602 924 OFFCURVE",
"629 940 OFFCURVE",
"676 967 CURVE",
"891 682 LINE",
"672 606 OFFCURVE",
"535 513 OFFCURVE",
"535 305 CURVE SMOOTH",
"535 98 OFFCURVE",
"685 -27 OFFCURVE",
"953 -27 CURVE SMOOTH"
);
},
{
closed = 1;
nodes = (
"824 1030 LINE",
"881 1048 OFFCURVE",
"944 1057 OFFCURVE",
"1012 1057 CURVE SMOOTH",
"1159 1057 OFFCURVE",
"1233 1009 OFFCURVE",
"1233 913 CURVE SMOOTH",
"1233 840 OFFCURVE",
"1198 797 OFFCURVE",
"1047 737 CURVE"
);
}
);
width = 1657;
}
);
note = g30;
},
{
glyphname = g31;
lastChange = "2016-11-10 17:41:46 +0000";
layers = (
{
layerId = "950E4965-652C-4E49-8BA2-A8792AD091D1";
paths = (
{
closed = 1;
nodes = (
"809 -14 LINE",
"692 187 OFFCURVE",
"643 365 OFFCURVE",
"643 610 CURVE SMOOTH",
"643 920 OFFCURVE",
"731 1192 OFFCURVE",
"908 1427 CURVE",
"1040 1403 OFFCURVE",
"1177 1391 OFFCURVE",
"1319 1391 CURVE SMOOTH",
"1617 1391 OFFCURVE",
"1860 1422 OFFCURVE",
"2048 1485 CURVE",
"2048 1647 LINE",
"1849 1586 OFFCURVE",
"1606 1556 OFFCURVE",
"1319 1556 CURVE SMOOTH",
"1162 1556 OFFCURVE",
"999 1570 OFFCURVE",
"828 1599 CURVE",
"593 1288 OFFCURVE",
"482 987 OFFCURVE",
"482 596 CURVE SMOOTH",
"482 325 OFFCURVE",
"539 111 OFFCURVE",
"662 -98 CURVE"
);
},
{
closed = 1;
nodes = (
"358 276 LINE",
"295 380 OFFCURVE",
"274 464 OFFCURVE",
"274 575 CURVE SMOOTH",
"274 671 OFFCURVE",
"302 762 OFFCURVE",
"358 848 CURVE",
"227 924 LINE",
"151 831 OFFCURVE",
"113 714 OFFCURVE",
"113 573 CURVE SMOOTH",
"113 424 OFFCURVE",
"138 328 OFFCURVE",
"203 203 CURVE"
);
},
{
closed = 1;
nodes = (
"1152 131 OFFCURVE",
"1067 192 OFFCURVE",
"1067 315 CURVE SMOOTH",
"1067 359 OFFCURVE",
"1078 395 OFFCURVE",
"1099 424 CURVE SMOOTH",
"1141 481 OFFCURVE",
"1212 514 OFFCURVE",
"1351 563 CURVE",
"1626 203 LINE",
"1525 155 OFFCURVE",
"1423 131 OFFCURVE",
"1321 131 CURVE SMOOTH"
);
},
{
closed = 1;
nodes = (
"1522 -27 OFFCURVE",
"1714 40 OFFCURVE",
"1943 201 CURVE",
"1855 340 LINE",
"1763 279 LINE",
"1503 618 LINE",
"1699 703 OFFCURVE",
"1765 789 OFFCURVE",
"1765 918 CURVE SMOOTH",
"1765 1101 OFFCURVE",
"1636 1214 OFFCURVE",
"1376 1214 CURVE SMOOTH",
"1215 1214 OFFCURVE",
"1053 1164 OFFCURVE",
"891 1063 CURVE",
"964 920 LINE",
"970 924 OFFCURVE",
"997 940 OFFCURVE",
"1044 967 CURVE",
"1259 682 LINE",
"1040 606 OFFCURVE",
"903 513 OFFCURVE",
"903 305 CURVE SMOOTH",
"903 98 OFFCURVE",
"1053 -27 OFFCURVE",
"1321 -27 CURVE SMOOTH"
);
},
{
closed = 1;
nodes = (
"1192 1030 LINE",
"1249 1048 OFFCURVE",
"1312 1057 OFFCURVE",
"1380 1057 CURVE SMOOTH",
"1527 1057 OFFCURVE",
"1601 1009 OFFCURVE",
"1601 913 CURVE SMOOTH",
"1601 840 OFFCURVE",
"1566 797 OFFCURVE",
"1415 737 CURVE"
);
}
);
width = 2025;
}
);
note = g31;
},
{
glyphname = g32;
lastChange = "2016-11-10 17:41:46 +0000";
layers = (
{
layerId = "950E4965-652C-4E49-8BA2-A8792AD091D1";
paths = (
{
closed = 1;
nodes = (
"744 -27 OFFCURVE",
"936 40 OFFCURVE",
"1165 201 CURVE",
"1077 340 LINE",
"985 279 LINE",
"725 618 LINE",
"921 703 OFFCURVE",
"987 789 OFFCURVE",
"987 918 CURVE SMOOTH",
"987 1101 OFFCURVE",
"858 1214 OFFCURVE",
"598 1214 CURVE SMOOTH",
"437 1214 OFFCURVE",
"275 1164 OFFCURVE",
"113 1063 CURVE",
"186 920 LINE",
"192 924 OFFCURVE",
"219 940 OFFCURVE",
"266 967 CURVE",
"481 682 LINE",
"262 606 OFFCURVE",
"125 513 OFFCURVE",
"125 305 CURVE SMOOTH",
"125 98 OFFCURVE",
"275 -27 OFFCURVE",
"543 -27 CURVE SMOOTH"
);
},
{
closed = 1;
nodes = (
"374 131 OFFCURVE",
"289 192 OFFCURVE",
"289 315 CURVE SMOOTH",
"289 359 OFFCURVE",
"300 395 OFFCURVE",
"321 424 CURVE SMOOTH",
"363 481 OFFCURVE",
"434 514 OFFCURVE",
"573 563 CURVE",
"848 203 LINE",
"747 155 OFFCURVE",
"645 131 OFFCURVE",
"543 131 CURVE SMOOTH"
);
},
{
closed = 1;
nodes = (
"414 1030 LINE",
"471 1048 OFFCURVE",
"534 1057 OFFCURVE",
"602 1057 CURVE SMOOTH",
"749 1057 OFFCURVE",
"823 1009 OFFCURVE",
"823 913 CURVE SMOOTH",
"823 840 OFFCURVE",
"788 797 OFFCURVE",
"637 737 CURVE"
);
},
{
closed = 1;
nodes = (
"1177 -360 OFFCURVE",
"1262 -331 OFFCURVE",
"1339 -273 CURVE SMOOTH",
"1492 -157 OFFCURVE",
"1583 64 OFFCURVE",
"1583 348 CURVE SMOOTH",
"1583 706 OFFCURVE",
"1498 1005 OFFCURVE",
"1329 1245 CURVE",
"1181 1161 LINE",
"1336 930 OFFCURVE",
"1413 661 OFFCURVE",
"1413 354 CURVE SMOOTH",
"1413 241 OFFCURVE",
"1399 142 OFFCURVE",
"1372 59 CURVE SMOOTH",
"1317 -108 OFFCURVE",
"1216 -199 OFFCURVE",
"1091 -199 CURVE SMOOTH",
"1054 -199 OFFCURVE",
"1022 -189 OFFCURVE",
"993 -170 CURVE",
"919 -311 LINE",
"963 -344 OFFCURVE",
"1018 -360 OFFCURVE",
"1083 -360 CURVE SMOOTH"
);
}
);
width = 1737;
}
);
note = g32;
},
{
glyphname = g33;
lastChange = "2016-11-10 17:41:46 +0000";
layers = (
{
layerId = "950E4965-652C-4E49-8BA2-A8792AD091D1";
paths = (
{
closed = 1;
nodes = (
"1113 -27 OFFCURVE",
"1305 40 OFFCURVE",
"1534 201 CURVE",
"1446 340 LINE",
"1354 279 LINE",
"1094 618 LINE",
"1290 703 OFFCURVE",
"1356 789 OFFCURVE",
"1356 918 CURVE SMOOTH",
"1356 1101 OFFCURVE",
"1227 1214 OFFCURVE",
"967 1214 CURVE SMOOTH",
"806 1214 OFFCURVE",
"644 1164 OFFCURVE",
"482 1063 CURVE",
"555 920 LINE",
"561 924 OFFCURVE",
"588 940 OFFCURVE",
"635 967 CURVE",
"850 682 LINE",
"631 606 OFFCURVE",
"494 513 OFFCURVE",
"494 305 CURVE SMOOTH",
"494 98 OFFCURVE",
"644 -27 OFFCURVE",
"912 -27 CURVE SMOOTH"
);
},
{
closed = 1;
nodes = (
"358 276 LINE",
"295 380 OFFCURVE",
"274 464 OFFCURVE",
"274 575 CURVE SMOOTH",
"274 671 OFFCURVE",
"302 762 OFFCURVE",
"358 848 CURVE",
"227 924 LINE",
"151 831 OFFCURVE",
"113 714 OFFCURVE",
"113 573 CURVE SMOOTH",
"113 424 OFFCURVE",
"138 328 OFFCURVE",
"203 203 CURVE"
);
},
{
closed = 1;
nodes = (
"743 131 OFFCURVE",
"658 192 OFFCURVE",
"658 315 CURVE SMOOTH",
"658 359 OFFCURVE",
"669 395 OFFCURVE",
"690 424 CURVE SMOOTH",
"732 481 OFFCURVE",
"803 514 OFFCURVE",
"942 563 CURVE",
"1217 203 LINE",
"1116 155 OFFCURVE",
"1014 131 OFFCURVE",
"912 131 CURVE SMOOTH"
);
},
{
closed = 1;
nodes = (
"783 1030 LINE",
"840 1048 OFFCURVE",
"903 1057 OFFCURVE",
"971 1057 CURVE SMOOTH",
"1118 1057 OFFCURVE",
"1192 1009 OFFCURVE",
"1192 913 CURVE SMOOTH",
"1192 840 OFFCURVE",
"1157 797 OFFCURVE",
"1006 737 CURVE"
);
},
{
closed = 1;
nodes = (
"1546 -360 OFFCURVE",
"1631 -331 OFFCURVE",
"1708 -273 CURVE SMOOTH",
"1861 -157 OFFCURVE",
"1952 64 OFFCURVE",
"1952 348 CURVE SMOOTH",
"1952 706 OFFCURVE",
"1867 1005 OFFCURVE",
"1698 1245 CURVE",
"1550 1161 LINE",
"1705 930 OFFCURVE",
"1782 661 OFFCURVE",
"1782 354 CURVE SMOOTH",
"1782 241 OFFCURVE",
"1768 142 OFFCURVE",
"1741 59 CURVE SMOOTH",
"1686 -108 OFFCURVE",
"1585 -199 OFFCURVE",
"1460 -199 CURVE SMOOTH",
"1423 -199 OFFCURVE",
"1391 -189 OFFCURVE",
"1362 -170 CURVE",
"1288 -311 LINE",
"1332 -344 OFFCURVE",
"1387 -360 OFFCURVE",
"1452 -360 CURVE SMOOTH"
);
}
);
width = 2105;
}
);
note = g33;
},
{
glyphname = g34;
lastChange = "2016-11-10 17:41:46 +0000";
layers = (
{
layerId = "950E4965-652C-4E49-8BA2-A8792AD091D1";
paths = (
{
closed = 1;
nodes = (
"744 -27 OFFCURVE",
"936 40 OFFCURVE",
"1165 201 CURVE",
"1077 340 LINE",
"985 279 LINE",
"725 618 LINE",
"921 703 OFFCURVE",
"987 789 OFFCURVE",
"987 918 CURVE SMOOTH",
"987 1101 OFFCURVE",
"858 1214 OFFCURVE",
"598 1214 CURVE SMOOTH",
"437 1214 OFFCURVE",
"275 1164 OFFCURVE",
"113 1063 CURVE",
"186 920 LINE",
"192 924 OFFCURVE",
"219 940 OFFCURVE",
"266 967 CURVE",
"481 682 LINE",
"262 606 OFFCURVE",
"125 513 OFFCURVE",
"125 305 CURVE SMOOTH",
"125 98 OFFCURVE",
"275 -27 OFFCURVE",
"543 -27 CURVE SMOOTH"
);
},
{
closed = 1;
nodes = (
"374 131 OFFCURVE",
"289 192 OFFCURVE",
"289 315 CURVE SMOOTH",
"289 359 OFFCURVE",
"300 395 OFFCURVE",
"321 424 CURVE SMOOTH",
"363 481 OFFCURVE",
"434 514 OFFCURVE",
"573 563 CURVE",
"848 203 LINE",
"747 155 OFFCURVE",
"645 131 OFFCURVE",
"543 131 CURVE SMOOTH"
);
},
{
closed = 1;
nodes = (
"414 1030 LINE",
"471 1048 OFFCURVE",
"534 1057 OFFCURVE",
"602 1057 CURVE SMOOTH",
"749 1057 OFFCURVE",
"823 1009 OFFCURVE",
"823 913 CURVE SMOOTH",
"823 840 OFFCURVE",
"788 797 OFFCURVE",
"637 737 CURVE"
);
},
{
closed = 1;
nodes = (
"1463 -360 OFFCURVE",
"1545 -341 OFFCURVE",
"1618 -303 CURVE SMOOTH",
"1762 -227 OFFCURVE",
"1849 -71 OFFCURVE",
"1849 150 CURVE SMOOTH",
"1849 313 OFFCURVE",
"1799 508 OFFCURVE",
"1712 657 CURVE",
"1797 743 OFFCURVE",
"1839 836 OFFCURVE",
"1839 936 CURVE SMOOTH",
"1839 1103 OFFCURVE",
"1738 1221 OFFCURVE",
"1558 1221 CURVE SMOOTH",
"1445 1221 OFFCURVE",
"1342 1184 OFFCURVE",
"1251 1110 CURVE",
"1343 971 LINE",
"1416 1028 OFFCURVE",
"1487 1057 OFFCURVE",
"1558 1057 CURVE SMOOTH",
"1632 1057 OFFCURVE",
"1669 1017 OFFCURVE",
"1669 936 CURVE SMOOTH",
"1669 895 OFFCURVE",
"1658 857 OFFCURVE",
"1636 822 CURVE SMOOTH",
"1592 753 OFFCURVE",
"1500 680 OFFCURVE",
"1317 573 CURVE",
"1405 428 LINE",
"1470 469 OFFCURVE",
"1528 508 OFFCURVE",
"1577 545 CURVE",
"1645 423 OFFCURVE",
"1679 291 OFFCURVE",
"1679 150 CURVE SMOOTH",
"1679 -86 OFFCURVE",
"1563 -199 OFFCURVE",
"1378 -199 CURVE SMOOTH",
"1341 -199 OFFCURVE",
"1309 -189 OFFCURVE",
"1280 -170 CURVE",
"1206 -311 LINE",
"1250 -344 OFFCURVE",
"1305 -360 OFFCURVE",
"1370 -360 CURVE SMOOTH"
);
}
);
width = 2003;
}
);
note = g34;
},
{
glyphname = g35;
lastChange = "2016-11-10 17:41:46 +0000";
layers = (
{
layerId = "950E4965-652C-4E49-8BA2-A8792AD091D1";
paths = (
{
closed = 1;
nodes = (
"1113 -27 OFFCURVE",
"1305 40 OFFCURVE",
"1534 201 CURVE",
"1446 340 LINE",
"1354 279 LINE",
"1094 618 LINE",
"1290 703 OFFCURVE",
"1356 789 OFFCURVE",
"1356 918 CURVE SMOOTH",
"1356 1101 OFFCURVE",
"1227 1214 OFFCURVE",
"967 1214 CURVE SMOOTH",
"806 1214 OFFCURVE",
"644 1164 OFFCURVE",
"482 1063 CURVE",
"555 920 LINE",
"561 924 OFFCURVE",
"588 940 OFFCURVE",
"635 967 CURVE",
"850 682 LINE",
"631 606 OFFCURVE",
"494 513 OFFCURVE",
"494 305 CURVE SMOOTH",
"494 98 OFFCURVE",
"644 -27 OFFCURVE",
"912 -27 CURVE SMOOTH"
);
},
{
closed = 1;
nodes = (
"358 276 LINE",
"295 380 OFFCURVE",
"274 464 OFFCURVE",
"274 575 CURVE SMOOTH",
"274 671 OFFCURVE",
"302 762 OFFCURVE",
"358 848 CURVE",
"227 924 LINE",
"151 831 OFFCURVE",
"113 714 OFFCURVE",
"113 573 CURVE SMOOTH",
"113 424 OFFCURVE",
"138 328 OFFCURVE",
"203 203 CURVE"
);
},
{
closed = 1;
nodes = (
"743 131 OFFCURVE",
"658 192 OFFCURVE",
"658 315 CURVE SMOOTH",
"658 359 OFFCURVE",
"669 395 OFFCURVE",
"690 424 CURVE SMOOTH",
"732 481 OFFCURVE",
"803 514 OFFCURVE",
"942 563 CURVE",
"1217 203 LINE",
"1116 155 OFFCURVE",
"1014 131 OFFCURVE",
"912 131 CURVE SMOOTH"
);
},
{
closed = 1;
nodes = (
"783 1030 LINE",
"840 1048 OFFCURVE",
"903 1057 OFFCURVE",
"971 1057 CURVE SMOOTH",
"1118 1057 OFFCURVE",
"1192 1009 OFFCURVE",
"1192 913 CURVE SMOOTH",
"1192 840 OFFCURVE",
"1157 797 OFFCURVE",
"1006 737 CURVE"
);
},
{
closed = 1;
nodes = (
"1832 -360 OFFCURVE",
"1914 -341 OFFCURVE",
"1987 -303 CURVE SMOOTH",
"2131 -227 OFFCURVE",
"2218 -71 OFFCURVE",
"2218 150 CURVE SMOOTH",
"2218 313 OFFCURVE",
"2168 508 OFFCURVE",
"2081 657 CURVE",
"2166 743 OFFCURVE",
"2208 836 OFFCURVE",
"2208 936 CURVE SMOOTH",
"2208 1103 OFFCURVE",
"2107 1221 OFFCURVE",
"1927 1221 CURVE SMOOTH",
"1814 1221 OFFCURVE",
"1711 1184 OFFCURVE",
"1620 1110 CURVE",
"1712 971 LINE",
"1785 1028 OFFCURVE",
"1856 1057 OFFCURVE",
"1927 1057 CURVE SMOOTH",
"2001 1057 OFFCURVE",
"2038 1017 OFFCURVE",
"2038 936 CURVE SMOOTH",
"2038 895 OFFCURVE",
"2027 857 OFFCURVE",
"2005 822 CURVE SMOOTH",
"1961 753 OFFCURVE",
"1869 680 OFFCURVE",
"1686 573 CURVE",
"1774 428 LINE",
"1839 469 OFFCURVE",
"1897 508 OFFCURVE",
"1946 545 CURVE",
"2014 423 OFFCURVE",
"2048 291 OFFCURVE",
"2048 150 CURVE SMOOTH",
"2048 -86 OFFCURVE",
"1932 -199 OFFCURVE",
"1747 -199 CURVE SMOOTH",
"1710 -199 OFFCURVE",
"1678 -189 OFFCURVE",
"1649 -170 CURVE",
"1575 -311 LINE",
"1619 -344 OFFCURVE",
"1674 -360 OFFCURVE",
"1739 -360 CURVE SMOOTH"
);
}
);
width = 2372;
}
);
note = g35;
},
{
glyphname = g37;
lastChange = "2016-11-10 17:41:46 +0000";
layers = (
{
layerId = "950E4965-652C-4E49-8BA2-A8792AD091D1";
paths = (
{
closed = 1;
nodes = (
"1145 -27 OFFCURVE",
"1238 -4 OFFCURVE",
"1317 43 CURVE SMOOTH",
"1476 136 OFFCURVE",
"1565 304 OFFCURVE",
"1565 496 CURVE SMOOTH",
"1565 807 OFFCURVE",
"1412 1026 OFFCURVE",
"1039 1223 CURVE",
"662 1028 OFFCURVE",
"512 807 OFFCURVE",
"512 496 CURVE SMOOTH",
"512 400 OFFCURVE",
"533 312 OFFCURVE",
"576 233 CURVE SMOOTH",
"660 73 OFFCURVE",
"826 -27 OFFCURVE",
"1039 -27 CURVE SMOOTH"
);
},
{
closed = 1;
nodes = (
"358 276 LINE",
"295 380 OFFCURVE",
"274 464 OFFCURVE",
"274 575 CURVE SMOOTH",
"274 671 OFFCURVE",
"302 762 OFFCURVE",
"358 848 CURVE",
"227 924 LINE",
"151 831 OFFCURVE",
"113 714 OFFCURVE",
"113 573 CURVE SMOOTH",
"113 424 OFFCURVE",
"138 328 OFFCURVE",
"203 203 CURVE"
);
},
{
closed = 1;
nodes = (
"820 141 OFFCURVE",
"686 291 OFFCURVE",
"686 496 CURVE SMOOTH",
"686 717 OFFCURVE",
"784 872 OFFCURVE",
"1039 1028 CURVE",
"1292 875 OFFCURVE",
"1389 720 OFFCURVE",
"1389 496 CURVE SMOOTH",
"1389 430 OFFCURVE",
"1375 370 OFFCURVE",
"1347 317 CURVE SMOOTH",
"1291 209 OFFCURVE",
"1183 141 OFFCURVE",
"1039 141 CURVE SMOOTH"
);
}
);
width = 1708;
}
);
note = g37;
},
{
glyphname = g38;
lastChange = "2016-11-10 17:41:46 +0000";
layers = (
{
layerId = "950E4965-652C-4E49-8BA2-A8792AD091D1";
paths = (
{
closed = 1;
nodes = (
"1564 -27 OFFCURVE",
"1657 -4 OFFCURVE",
"1736 43 CURVE SMOOTH",
"1895 136 OFFCURVE",
"1984 304 OFFCURVE",
"1984 496 CURVE SMOOTH",
"1984 807 OFFCURVE",
"1831 1026 OFFCURVE",
"1458 1223 CURVE",
"1081 1028 OFFCURVE",
"931 807 OFFCURVE",
"931 496 CURVE SMOOTH",
"931 400 OFFCURVE",
"952 312 OFFCURVE",
"995 233 CURVE SMOOTH",
"1079 73 OFFCURVE",
"1245 -27 OFFCURVE",
"1458 -27 CURVE SMOOTH"
);
},
{
closed = 1;
nodes = (
"358 276 LINE",
"295 380 OFFCURVE",
"274 464 OFFCURVE",
"274 575 CURVE SMOOTH",
"274 671 OFFCURVE",
"302 762 OFFCURVE",
"358 848 CURVE",
"227 924 LINE",
"151 831 OFFCURVE",
"113 714 OFFCURVE",
"113 573 CURVE SMOOTH",
"113 424 OFFCURVE",
"138 328 OFFCURVE",
"203 203 CURVE"
);
},
{
closed = 1;
nodes = (
"657 114 OFFCURVE",
"727 312 OFFCURVE",
"727 565 CURVE SMOOTH",
"727 814 OFFCURVE",
"660 1040 OFFCURVE",
"526 1243 CURVE",
"377 1145 LINE",
"504 964 OFFCURVE",
"567 767 OFFCURVE",
"567 553 CURVE SMOOTH",
"567 348 OFFCURVE",
"504 158 OFFCURVE",
"377 -18 CURVE",
"494 -98 LINE"
);
},
{
closed = 1;
nodes = (
"1239 141 OFFCURVE",
"1105 291 OFFCURVE",
"1105 496 CURVE SMOOTH",
"1105 717 OFFCURVE",
"1203 872 OFFCURVE",
"1458 1028 CURVE",
"1711 875 OFFCURVE",
"1808 720 OFFCURVE",
"1808 496 CURVE SMOOTH",
"1808 430 OFFCURVE",
"1794 370 OFFCURVE",
"1766 317 CURVE SMOOTH",
"1710 209 OFFCURVE",
"1602 141 OFFCURVE",
"1458 141 CURVE SMOOTH"
);
}
);
width = 2128;
}
);
note = g38;
},
{
glyphname = g39;
lastChange = "2016-11-10 17:37:31 +0000";
layers = (
{
layerId = "950E4965-652C-4E49-8BA2-A8792AD091D1";
paths = (
{
closed = 1;
nodes = (
"1481 81 OFFCURVE",
"1538 263 OFFCURVE",
"1538 442 CURVE SMOOTH",
"1538 713 OFFCURVE",
"1426 858 OFFCURVE",
"1233 858 CURVE SMOOTH",
"1200 858 OFFCURVE",
"1161 852 OFFCURVE",
"1114 840 CURVE",
"1036 981 OFFCURVE",
"888 1108 OFFCURVE",
"670 1223 CURVE",
"293 1028 OFFCURVE",
"143 807 OFFCURVE",
"143 496 CURVE SMOOTH",
"143 400 OFFCURVE",
"164 312 OFFCURVE",
"207 233 CURVE SMOOTH",
"291 73 OFFCURVE",
"457 -27 OFFCURVE",
"670 -27 CURVE SMOOTH",
"776 -27 OFFCURVE",
"869 -4 OFFCURVE",
"948 43 CURVE SMOOTH",
"1107 136 OFFCURVE",
"1196 304 OFFCURVE",
"1196 496 CURVE SMOOTH",
"1196 563 OFFCURVE",
"1189 628 OFFCURVE",
"1174 692 CURVE",
"1193 696 OFFCURVE",
"1212 698 OFFCURVE",
"1233 698 CURVE SMOOTH",
"1332 698 OFFCURVE",
"1374 618 OFFCURVE",
"1374 438 CURVE SMOOTH",
"1374 280 OFFCURVE",
"1332 120 OFFCURVE",
"1247 -41 CURVE",
"1368 -106 LINE"
);
},
{
closed = 1;
nodes = (
"451 141 OFFCURVE",
"317 291 OFFCURVE",
"317 496 CURVE SMOOTH",
"317 717 OFFCURVE",
"415 872 OFFCURVE",
"670 1028 CURVE",
"923 875 OFFCURVE",
"1020 720 OFFCURVE",
"1020 496 CURVE SMOOTH",
"1020 430 OFFCURVE",
"1006 370 OFFCURVE",
"978 317 CURVE SMOOTH",
"922 209 OFFCURVE",
"814 141 OFFCURVE",
"670 141 CURVE SMOOTH"
);
}
);
width = 1636;
}
);
leftKerningGroup = uni1C13;
note = g39;
},
{
glyphname = g40;
lastChange = "2016-11-10 17:41:46 +0000";
layers = (
{
layerId = "950E4965-652C-4E49-8BA2-A8792AD091D1";
paths = (
{
closed = 1;
nodes = (
"1850 81 OFFCURVE",
"1907 263 OFFCURVE",
"1907 442 CURVE SMOOTH",
"1907 713 OFFCURVE",
"1795 858 OFFCURVE",
"1602 858 CURVE SMOOTH",
"1569 858 OFFCURVE",
"1530 852 OFFCURVE",
"1483 840 CURVE",
"1405 981 OFFCURVE",
"1257 1108 OFFCURVE",
"1039 1223 CURVE",
"662 1028 OFFCURVE",
"512 807 OFFCURVE",
"512 496 CURVE SMOOTH",
"512 400 OFFCURVE",
"533 312 OFFCURVE",
"576 233 CURVE SMOOTH",
"660 73 OFFCURVE",
"826 -27 OFFCURVE",
"1039 -27 CURVE SMOOTH",
"1145 -27 OFFCURVE",
"1238 -4 OFFCURVE",
"1317 43 CURVE SMOOTH",
"1476 136 OFFCURVE",
"1565 304 OFFCURVE",
"1565 496 CURVE SMOOTH",
"1565 563 OFFCURVE",
"1558 628 OFFCURVE",
"1543 692 CURVE",
"1562 696 OFFCURVE",
"1581 698 OFFCURVE",
"1602 698 CURVE SMOOTH",
"1701 698 OFFCURVE",
"1743 618 OFFCURVE",
"1743 438 CURVE SMOOTH",
"1743 280 OFFCURVE",
"1701 120 OFFCURVE",
"1616 -41 CURVE",
"1737 -106 LINE"
);
},
{
closed = 1;
nodes = (
"358 276 LINE",
"295 380 OFFCURVE",
"274 464 OFFCURVE",
"274 575 CURVE SMOOTH",
"274 671 OFFCURVE",
"302 762 OFFCURVE",
"358 848 CURVE",
"227 924 LINE",
"151 831 OFFCURVE",
"113 714 OFFCURVE",
"113 573 CURVE SMOOTH",
"113 424 OFFCURVE",
"138 328 OFFCURVE",
"203 203 CURVE"
);
},
{
closed = 1;
nodes = (
"820 141 OFFCURVE",
"686 291 OFFCURVE",
"686 496 CURVE SMOOTH",
"686 717 OFFCURVE",
"784 872 OFFCURVE",
"1039 1028 CURVE",
"1292 875 OFFCURVE",
"1389 720 OFFCURVE",
"1389 496 CURVE SMOOTH",
"1389 430 OFFCURVE",
"1375 370 OFFCURVE",
"1347 317 CURVE SMOOTH",
"1291 209 OFFCURVE",
"1183 141 OFFCURVE",
"1039 141 CURVE SMOOTH"
);
}
);
width = 2005;
}
);
note = g40;
},
{
glyphname = g41;
lastChange = "2016-11-10 17:41:46 +0000";
layers = (
{
layerId = "950E4965-652C-4E49-8BA2-A8792AD091D1";
paths = (
{
closed = 1;
nodes = (
"2269 81 OFFCURVE",
"2326 263 OFFCURVE",
"2326 442 CURVE SMOOTH",
"2326 713 OFFCURVE",
"2214 858 OFFCURVE",
"2021 858 CURVE SMOOTH",
"1988 858 OFFCURVE",
"1949 852 OFFCURVE",
"1902 840 CURVE",
"1824 981 OFFCURVE",
"1676 1108 OFFCURVE",
"1458 1223 CURVE",
"1081 1028 OFFCURVE",
"931 807 OFFCURVE",
"931 496 CURVE SMOOTH",
"931 400 OFFCURVE",
"952 312 OFFCURVE",
"995 233 CURVE SMOOTH",
"1079 73 OFFCURVE",
"1245 -27 OFFCURVE",
"1458 -27 CURVE SMOOTH",
"1564 -27 OFFCURVE",
"1657 -4 OFFCURVE",
"1736 43 CURVE SMOOTH",
"1895 136 OFFCURVE",
"1984 304 OFFCURVE",
"1984 496 CURVE SMOOTH",
"1984 563 OFFCURVE",
"1977 628 OFFCURVE",
"1962 692 CURVE",
"1981 696 OFFCURVE",
"2000 698 OFFCURVE",
"2021 698 CURVE SMOOTH",
"2120 698 OFFCURVE",
"2162 618 OFFCURVE",
"2162 438 CURVE SMOOTH",
"2162 280 OFFCURVE",
"2120 120 OFFCURVE",
"2035 -41 CURVE",
"2156 -106 LINE"
);
},
{
closed = 1;
nodes = (
"358 276 LINE",
"295 380 OFFCURVE",
"274 464 OFFCURVE",
"274 575 CURVE SMOOTH",
"274 671 OFFCURVE",
"302 762 OFFCURVE",
"358 848 CURVE",
"227 924 LINE",
"151 831 OFFCURVE",
"113 714 OFFCURVE",
"113 573 CURVE SMOOTH",
"113 424 OFFCURVE",
"138 328 OFFCURVE",
"203 203 CURVE"
);
},
{
closed = 1;
nodes = (
"657 114 OFFCURVE",
"727 312 OFFCURVE",
"727 565 CURVE SMOOTH",
"727 814 OFFCURVE",
"660 1040 OFFCURVE",
"526 1243 CURVE",
"377 1145 LINE",
"504 964 OFFCURVE",
"567 767 OFFCURVE",
"567 553 CURVE SMOOTH",
"567 348 OFFCURVE",
"504 158 OFFCURVE",
"377 -18 CURVE",
"494 -98 LINE"
);
},
{
closed = 1;
nodes = (
"1239 141 OFFCURVE",
"1105 291 OFFCURVE",
"1105 496 CURVE SMOOTH",
"1105 717 OFFCURVE",
"1203 872 OFFCURVE",
"1458 1028 CURVE",
"1711 875 OFFCURVE",
"1808 720 OFFCURVE",
"1808 496 CURVE SMOOTH",
"1808 430 OFFCURVE",
"1794 370 OFFCURVE",
"1766 317 CURVE SMOOTH",
"1710 209 OFFCURVE",
"1602 141 OFFCURVE",
"1458 141 CURVE SMOOTH"
);
}
);
width = 2425;
}
);
note = g41;
},
{
glyphname = g42;
lastChange = "2016-11-10 17:41:46 +0000";
layers = (
{
layerId = "950E4965-652C-4E49-8BA2-A8792AD091D1";
paths = (
{
closed = 1;
nodes = (
"1434 141 OFFCURVE",
"1456 306 OFFCURVE",
"1456 461 CURVE SMOOTH",
"1456 573 OFFCURVE",
"1438 658 OFFCURVE",
"1401 717 CURVE",
"1405 723 LINE",
"1448 690 OFFCURVE",
"1485 631 OFFCURVE",
"1516 545 CURVE SMOOTH",
"1546 459 OFFCURVE",
"1574 335 OFFCURVE",
"1599 172 CURVE",
"1757 121 LINE",
"1905 320 OFFCURVE",
"1964 470 OFFCURVE",
"1964 670 CURVE SMOOTH",
"1964 761 OFFCURVE",
"1949 852 OFFCURVE",
"1919 942 CURVE",
"1751 885 LINE",
"1784 798 OFFCURVE",
"1800 712 OFFCURVE",
"1800 627 CURVE SMOOTH",
"1800 516 OFFCURVE",
"1771 406 OFFCURVE",
"1712 297 CURVE",
"1706 299 LINE",
"1658 694 OFFCURVE",
"1529 891 OFFCURVE",
"1319 891 CURVE SMOOTH",
"1246 891 OFFCURVE",
"1177 876 OFFCURVE",
"1110 846 CURVE",
"1032 985 OFFCURVE",
"885 1111 OFFCURVE",
"670 1223 CURVE",
"293 1028 OFFCURVE",
"143 807 OFFCURVE",
"143 496 CURVE SMOOTH",
"143 400 OFFCURVE",
"164 312 OFFCURVE",
"207 233 CURVE SMOOTH",
"291 73 OFFCURVE",
"457 -27 OFFCURVE",
"670 -27 CURVE SMOOTH",
"776 -27 OFFCURVE",
"869 -4 OFFCURVE",
"948 43 CURVE SMOOTH",
"1107 136 OFFCURVE",
"1196 304 OFFCURVE",
"1196 496 CURVE SMOOTH",
"1196 573 OFFCURVE",
"1187 644 OFFCURVE",
"1169 707 CURVE",
"1183 715 OFFCURVE",
"1197 719 OFFCURVE",
"1210 719 CURVE SMOOTH",
"1265 719 OFFCURVE",
"1292 646 OFFCURVE",
"1292 500 CURVE SMOOTH",
"1292 331 OFFCURVE",
"1278 163 OFFCURVE",
"1249 -4 CURVE",
"1391 -35 LINE"
);
},
{
closed = 1;
nodes = (
"451 141 OFFCURVE",
"317 291 OFFCURVE",
"317 496 CURVE SMOOTH",
"317 717 OFFCURVE",
"415 872 OFFCURVE",
"670 1028 CURVE",
"923 875 OFFCURVE",
"1020 720 OFFCURVE",
"1020 496 CURVE SMOOTH",
"1020 430 OFFCURVE",
"1006 370 OFFCURVE",
"978 317 CURVE SMOOTH",
"922 209 OFFCURVE",
"814 141 OFFCURVE",
"670 141 CURVE SMOOTH"
);
}
);
width = 2056;
}
);
leftKerningGroup = uni1C13;
note = g42;
rightKerningGroup = g42;
},
{
glyphname = g43;
lastChange = "2016-11-10 17:41:46 +0000";
layers = (
{
layerId = "950E4965-652C-4E49-8BA2-A8792AD091D1";
paths = (
{
closed = 1;
nodes = (
"1803 141 OFFCURVE",
"1825 306 OFFCURVE",
"1825 461 CURVE SMOOTH",
"1825 573 OFFCURVE",
"1807 658 OFFCURVE",
"1770 717 CURVE",
"1774 723 LINE",
"1817 690 OFFCURVE",
"1854 631 OFFCURVE",
"1885 545 CURVE SMOOTH",
"1915 459 OFFCURVE",
"1943 335 OFFCURVE",
"1968 172 CURVE",
"2126 121 LINE",
"2274 320 OFFCURVE",
"2333 470 OFFCURVE",
"2333 670 CURVE SMOOTH",
"2333 761 OFFCURVE",
"2318 852 OFFCURVE",
"2288 942 CURVE",
"2120 885 LINE",
"2153 798 OFFCURVE",
"2169 712 OFFCURVE",
"2169 627 CURVE SMOOTH",
"2169 516 OFFCURVE",
"2140 406 OFFCURVE",
"2081 297 CURVE",
"2075 299 LINE",
"2027 694 OFFCURVE",
"1898 891 OFFCURVE",
"1688 891 CURVE SMOOTH",
"1615 891 OFFCURVE",
"1546 876 OFFCURVE",
"1479 846 CURVE",
"1401 985 OFFCURVE",
"1254 1111 OFFCURVE",
"1039 1223 CURVE",
"662 1028 OFFCURVE",
"512 807 OFFCURVE",
"512 496 CURVE SMOOTH",
"512 400 OFFCURVE",
"533 312 OFFCURVE",
"576 233 CURVE SMOOTH",
"660 73 OFFCURVE",
"826 -27 OFFCURVE",
"1039 -27 CURVE SMOOTH",
"1145 -27 OFFCURVE",
"1238 -4 OFFCURVE",
"1317 43 CURVE SMOOTH",
"1476 136 OFFCURVE",
"1565 304 OFFCURVE",
"1565 496 CURVE SMOOTH",
"1565 573 OFFCURVE",
"1556 644 OFFCURVE",
"1538 707 CURVE",
"1552 715 OFFCURVE",
"1566 719 OFFCURVE",
"1579 719 CURVE SMOOTH",
"1634 719 OFFCURVE",
"1661 646 OFFCURVE",
"1661 500 CURVE SMOOTH",
"1661 331 OFFCURVE",
"1647 163 OFFCURVE",
"1618 -4 CURVE",
"1760 -35 LINE"
);
},
{
closed = 1;
nodes = (
"358 276 LINE",
"295 380 OFFCURVE",
"274 464 OFFCURVE",
"274 575 CURVE SMOOTH",
"274 671 OFFCURVE",
"302 762 OFFCURVE",
"358 848 CURVE",
"227 924 LINE",
"151 831 OFFCURVE",
"113 714 OFFCURVE",
"113 573 CURVE SMOOTH",
"113 424 OFFCURVE",
"138 328 OFFCURVE",
"203 203 CURVE"
);
},
{
closed = 1;
nodes = (
"820 141 OFFCURVE",
"686 291 OFFCURVE",
"686 496 CURVE SMOOTH",
"686 717 OFFCURVE",
"784 872 OFFCURVE",
"1039 1028 CURVE",
"1292 875 OFFCURVE",
"1389 720 OFFCURVE",
"1389 496 CURVE SMOOTH",
"1389 430 OFFCURVE",
"1375 370 OFFCURVE",
"1347 317 CURVE SMOOTH",
"1291 209 OFFCURVE",
"1183 141 OFFCURVE",
"1039 141 CURVE SMOOTH"
);
}
);
width = 2425;
}
);
note = g43;
},
{
glyphname = g44;
lastChange = "2016-11-10 17:41:46 +0000";
layers = (
{
layerId = "950E4965-652C-4E49-8BA2-A8792AD091D1";
paths = (
{
closed = 1;
nodes = (
"2222 141 OFFCURVE",
"2244 306 OFFCURVE",
"2244 461 CURVE SMOOTH",
"2244 573 OFFCURVE",
"2226 658 OFFCURVE",
"2189 717 CURVE",
"2193 723 LINE",
"2236 690 OFFCURVE",
"2273 631 OFFCURVE",
"2304 545 CURVE SMOOTH",
"2334 459 OFFCURVE",
"2362 335 OFFCURVE",
"2387 172 CURVE",
"2545 121 LINE",
"2693 320 OFFCURVE",
"2752 470 OFFCURVE",
"2752 670 CURVE SMOOTH",
"2752 761 OFFCURVE",
"2737 852 OFFCURVE",
"2707 942 CURVE",
"2539 885 LINE",
"2572 798 OFFCURVE",
"2588 712 OFFCURVE",
"2588 627 CURVE SMOOTH",
"2588 516 OFFCURVE",
"2559 406 OFFCURVE",
"2500 297 CURVE",
"2494 299 LINE",
"2446 694 OFFCURVE",
"2317 891 OFFCURVE",
"2107 891 CURVE SMOOTH",
"2034 891 OFFCURVE",
"1965 876 OFFCURVE",
"1898 846 CURVE",
"1820 985 OFFCURVE",
"1673 1111 OFFCURVE",
"1458 1223 CURVE",
"1081 1028 OFFCURVE",
"931 807 OFFCURVE",
"931 496 CURVE SMOOTH",
"931 400 OFFCURVE",
"952 312 OFFCURVE",
"995 233 CURVE SMOOTH",
"1079 73 OFFCURVE",
"1245 -27 OFFCURVE",
"1458 -27 CURVE SMOOTH",
"1564 -27 OFFCURVE",
"1657 -4 OFFCURVE",
"1736 43 CURVE SMOOTH",
"1895 136 OFFCURVE",
"1984 304 OFFCURVE",
"1984 496 CURVE SMOOTH",
"1984 573 OFFCURVE",
"1975 644 OFFCURVE",
"1957 707 CURVE",
"1971 715 OFFCURVE",
"1985 719 OFFCURVE",
"1998 719 CURVE SMOOTH",
"2053 719 OFFCURVE",
"2080 646 OFFCURVE",
"2080 500 CURVE SMOOTH",
"2080 331 OFFCURVE",
"2066 163 OFFCURVE",
"2037 -4 CURVE",
"2179 -35 LINE"
);
},
{
closed = 1;
nodes = (
"358 276 LINE",
"295 380 OFFCURVE",
"274 464 OFFCURVE",
"274 575 CURVE SMOOTH",
"274 671 OFFCURVE",
"302 762 OFFCURVE",
"358 848 CURVE",
"227 924 LINE",
"151 831 OFFCURVE",
"113 714 OFFCURVE",
"113 573 CURVE SMOOTH",
"113 424 OFFCURVE",
"138 328 OFFCURVE",
"203 203 CURVE"
);
},
{
closed = 1;
nodes = (
"657 114 OFFCURVE",
"727 312 OFFCURVE",
"727 565 CURVE SMOOTH",
"727 814 OFFCURVE",
"660 1040 OFFCURVE",
"526 1243 CURVE",
"377 1145 LINE",
"504 964 OFFCURVE",
"567 767 OFFCURVE",
"567 553 CURVE SMOOTH",
"567 348 OFFCURVE",
"504 158 OFFCURVE",
"377 -18 CURVE",
"494 -98 LINE"
);
},
{
closed = 1;
nodes = (
"1239 141 OFFCURVE",
"1105 291 OFFCURVE",
"1105 496 CURVE SMOOTH",
"1105 717 OFFCURVE",
"1203 872 OFFCURVE",
"1458 1028 CURVE",
"1711 875 OFFCURVE",
"1808 720 OFFCURVE",
"1808 496 CURVE SMOOTH",
"1808 430 OFFCURVE",
"1794 370 OFFCURVE",
"1766 317 CURVE SMOOTH",
"1710 209 OFFCURVE",
"1602 141 OFFCURVE",
"1458 141 CURVE SMOOTH"
);
}
);
width = 2845;
}
);
note = g44;
},
{
glyphname = g45;
lastChange = "2016-11-10 17:41:46 +0000";
layers = (
{
layerId = "950E4965-652C-4E49-8BA2-A8792AD091D1";
paths = (
{
closed = 1;
nodes = (
"1434 141 OFFCURVE",
"1456 306 OFFCURVE",
"1456 461 CURVE SMOOTH",
"1456 573 OFFCURVE",
"1438 658 OFFCURVE",
"1401 717 CURVE",
"1405 723 LINE",
"1448 690 OFFCURVE",
"1485 631 OFFCURVE",
"1516 545 CURVE SMOOTH",
"1546 459 OFFCURVE",
"1574 335 OFFCURVE",
"1599 172 CURVE",
"1757 121 LINE",
"1905 320 OFFCURVE",
"1964 470 OFFCURVE",
"1964 670 CURVE SMOOTH",
"1964 761 OFFCURVE",
"1949 852 OFFCURVE",
"1919 942 CURVE",
"1751 885 LINE",
"1784 798 OFFCURVE",
"1800 712 OFFCURVE",
"1800 627 CURVE SMOOTH",
"1800 516 OFFCURVE",
"1771 406 OFFCURVE",
"1712 297 CURVE",
"1706 299 LINE",
"1658 694 OFFCURVE",
"1529 891 OFFCURVE",
"1319 891 CURVE SMOOTH",
"1246 891 OFFCURVE",
"1177 876 OFFCURVE",
"1110 846 CURVE",
"1032 985 OFFCURVE",
"885 1111 OFFCURVE",
"670 1223 CURVE",
"293 1028 OFFCURVE",
"143 807 OFFCURVE",
"143 496 CURVE SMOOTH",
"143 400 OFFCURVE",
"164 312 OFFCURVE",
"207 233 CURVE SMOOTH",
"291 73 OFFCURVE",
"457 -27 OFFCURVE",
"670 -27 CURVE SMOOTH",
"776 -27 OFFCURVE",
"869 -4 OFFCURVE",
"948 43 CURVE SMOOTH",
"1107 136 OFFCURVE",
"1196 304 OFFCURVE",
"1196 496 CURVE SMOOTH",
"1196 573 OFFCURVE",
"1187 644 OFFCURVE",
"1169 707 CURVE",
"1183 715 OFFCURVE",
"1197 719 OFFCURVE",
"1210 719 CURVE SMOOTH",
"1265 719 OFFCURVE",
"1292 646 OFFCURVE",
"1292 500 CURVE SMOOTH",
"1292 331 OFFCURVE",
"1278 163 OFFCURVE",
"1249 -4 CURVE",
"1391 -35 LINE"
);
},
{
closed = 1;
nodes = (
"451 141 OFFCURVE",
"317 291 OFFCURVE",
"317 496 CURVE SMOOTH",
"317 717 OFFCURVE",
"415 872 OFFCURVE",
"670 1028 CURVE",
"923 875 OFFCURVE",
"1020 720 OFFCURVE",
"1020 496 CURVE SMOOTH",
"1020 430 OFFCURVE",
"1006 370 OFFCURVE",
"978 317 CURVE SMOOTH",
"922 209 OFFCURVE",
"814 141 OFFCURVE",
"670 141 CURVE SMOOTH"
);
},
{
closed = 1;
nodes = (
"2492 16 LINE",
"2333 195 OFFCURVE",
"2257 395 OFFCURVE",
"2257 590 CURVE SMOOTH",
"2257 757 OFFCURVE",
"2309 915 OFFCURVE",
"2412 1065 CURVE",
"2421 1065 LINE",
"2442 914 OFFCURVE",
"2510 759 OFFCURVE",
"2611 639 CURVE",
"2740 739 LINE",
"2639 854 OFFCURVE",
"2562 1028 OFFCURVE",
"2545 1192 CURVE",
"2335 1192 LINE",
"2168 995 OFFCURVE",
"2097 813 OFFCURVE",
"2097 578 CURVE SMOOTH",
"2097 333 OFFCURVE",
"2185 107 OFFCURVE",
"2361 -100 CURVE"
);
}
);
width = 2781;
}
);
note = g45;
},
{
glyphname = g46;
lastChange = "2016-11-10 17:41:46 +0000";
layers = (
{
layerId = "950E4965-652C-4E49-8BA2-A8792AD091D1";
paths = (
{
closed = 1;
nodes = (
"1803 141 OFFCURVE",
"1825 306 OFFCURVE",
"1825 461 CURVE SMOOTH",
"1825 573 OFFCURVE",
"1807 658 OFFCURVE",
"1770 717 CURVE",
"1774 723 LINE",
"1817 690 OFFCURVE",
"1854 631 OFFCURVE",
"1885 545 CURVE SMOOTH",
"1915 459 OFFCURVE",
"1943 335 OFFCURVE",
"1968 172 CURVE",
"2126 121 LINE",
"2274 320 OFFCURVE",
"2333 470 OFFCURVE",
"2333 670 CURVE SMOOTH",
"2333 761 OFFCURVE",
"2318 852 OFFCURVE",
"2288 942 CURVE",
"2120 885 LINE",
"2153 798 OFFCURVE",
"2169 712 OFFCURVE",
"2169 627 CURVE SMOOTH",
"2169 516 OFFCURVE",
"2140 406 OFFCURVE",
"2081 297 CURVE",
"2075 299 LINE",
"2027 694 OFFCURVE",
"1898 891 OFFCURVE",
"1688 891 CURVE SMOOTH",
"1615 891 OFFCURVE",
"1546 876 OFFCURVE",
"1479 846 CURVE",
"1401 985 OFFCURVE",
"1254 1111 OFFCURVE",
"1039 1223 CURVE",
"662 1028 OFFCURVE",
"512 807 OFFCURVE",
"512 496 CURVE SMOOTH",
"512 400 OFFCURVE",
"533 312 OFFCURVE",
"576 233 CURVE SMOOTH",
"660 73 OFFCURVE",
"826 -27 OFFCURVE",
"1039 -27 CURVE SMOOTH",
"1145 -27 OFFCURVE",
"1238 -4 OFFCURVE",
"1317 43 CURVE SMOOTH",
"1476 136 OFFCURVE",
"1565 304 OFFCURVE",
"1565 496 CURVE SMOOTH",
"1565 573 OFFCURVE",
"1556 644 OFFCURVE",
"1538 707 CURVE",
"1552 715 OFFCURVE",
"1566 719 OFFCURVE",
"1579 719 CURVE SMOOTH",
"1634 719 OFFCURVE",
"1661 646 OFFCURVE",
"1661 500 CURVE SMOOTH",
"1661 331 OFFCURVE",
"1647 163 OFFCURVE",
"1618 -4 CURVE",
"1760 -35 LINE"
);
},
{
closed = 1;
nodes = (
"358 276 LINE",
"295 380 OFFCURVE",
"274 464 OFFCURVE",
"274 575 CURVE SMOOTH",
"274 671 OFFCURVE",
"302 762 OFFCURVE",
"358 848 CURVE",
"227 924 LINE",
"151 831 OFFCURVE",
"113 714 OFFCURVE",
"113 573 CURVE SMOOTH",
"113 424 OFFCURVE",
"138 328 OFFCURVE",
"203 203 CURVE"
);
},
{
closed = 1;
nodes = (
"820 141 OFFCURVE",
"686 291 OFFCURVE",
"686 496 CURVE SMOOTH",
"686 717 OFFCURVE",
"784 872 OFFCURVE",
"1039 1028 CURVE",
"1292 875 OFFCURVE",
"1389 720 OFFCURVE",
"1389 496 CURVE SMOOTH",
"1389 430 OFFCURVE",
"1375 370 OFFCURVE",
"1347 317 CURVE SMOOTH",
"1291 209 OFFCURVE",
"1183 141 OFFCURVE",
"1039 141 CURVE SMOOTH"
);
},
{
closed = 1;
nodes = (
"2861 16 LINE",
"2702 195 OFFCURVE",
"2626 395 OFFCURVE",
"2626 590 CURVE SMOOTH",
"2626 757 OFFCURVE",
"2678 915 OFFCURVE",
"2781 1065 CURVE",
"2790 1065 LINE",
"2811 914 OFFCURVE",
"2879 759 OFFCURVE",
"2980 639 CURVE",
"3109 739 LINE",
"3008 854 OFFCURVE",
"2931 1028 OFFCURVE",
"2914 1192 CURVE",
"2704 1192 LINE",
"2537 995 OFFCURVE",
"2466 813 OFFCURVE",
"2466 578 CURVE SMOOTH",
"2466 333 OFFCURVE",
"2554 107 OFFCURVE",
"2730 -100 CURVE"
);
}
);
width = 3150;
}
);
note = g46;
},
{
glyphname = g47;
lastChange = "2016-11-10 17:41:46 +0000";
layers = (
{
layerId = "950E4965-652C-4E49-8BA2-A8792AD091D1";
paths = (
{
closed = 1;
nodes = (
"1803 141 OFFCURVE",
"1825 306 OFFCURVE",
"1825 461 CURVE SMOOTH",
"1825 573 OFFCURVE",
"1807 658 OFFCURVE",
"1770 717 CURVE",
"1774 723 LINE",
"1817 690 OFFCURVE",
"1854 631 OFFCURVE",
"1885 545 CURVE SMOOTH",
"1915 459 OFFCURVE",
"1943 335 OFFCURVE",
"1968 172 CURVE",
"2126 121 LINE",
"2274 320 OFFCURVE",
"2333 470 OFFCURVE",
"2333 670 CURVE SMOOTH",
"2333 761 OFFCURVE",
"2318 852 OFFCURVE",
"2288 942 CURVE",
"2120 885 LINE",
"2153 798 OFFCURVE",
"2169 712 OFFCURVE",
"2169 627 CURVE SMOOTH",
"2169 516 OFFCURVE",
"2140 406 OFFCURVE",
"2081 297 CURVE",
"2075 299 LINE",
"2027 694 OFFCURVE",
"1898 891 OFFCURVE",
"1688 891 CURVE SMOOTH",
"1615 891 OFFCURVE",
"1546 876 OFFCURVE",
"1479 846 CURVE",
"1401 985 OFFCURVE",
"1254 1111 OFFCURVE",
"1039 1223 CURVE",
"662 1028 OFFCURVE",
"512 807 OFFCURVE",
"512 496 CURVE SMOOTH",
"512 400 OFFCURVE",
"533 312 OFFCURVE",
"576 233 CURVE SMOOTH",
"660 73 OFFCURVE",
"826 -27 OFFCURVE",
"1039 -27 CURVE SMOOTH",
"1145 -27 OFFCURVE",
"1238 -4 OFFCURVE",
"1317 43 CURVE SMOOTH",
"1476 136 OFFCURVE",
"1565 304 OFFCURVE",
"1565 496 CURVE SMOOTH",
"1565 573 OFFCURVE",
"1556 644 OFFCURVE",
"1538 707 CURVE",
"1552 715 OFFCURVE",
"1566 719 OFFCURVE",
"1579 719 CURVE SMOOTH",
"1634 719 OFFCURVE",
"1661 646 OFFCURVE",
"1661 500 CURVE SMOOTH",
"1661 331 OFFCURVE",
"1647 163 OFFCURVE",
"1618 -4 CURVE",
"1760 -35 LINE"
);
},
{
closed = 1;
nodes = (
"1392 -319 LINE",
"1315 -284 OFFCURVE",
"1229 -266 OFFCURVE",
"1136 -266 CURVE SMOOTH",
"1033 -266 OFFCURVE",
"943 -291 OFFCURVE",
"866 -342 CURVE",
"862 -338 LINE",
"987 -168 LINE",
"872 -94 LINE",
"684 -391 LINE",
"815 -475 LINE",
"891 -437 OFFCURVE",
"978 -418 OFFCURVE",
"1077 -418 CURVE SMOOTH",
"1175 -418 OFFCURVE",
"1260 -438 OFFCURVE",
"1333 -479 CURVE"
);
},
{
closed = 1;
nodes = (
"358 276 LINE",
"295 380 OFFCURVE",
"274 464 OFFCURVE",
"274 575 CURVE SMOOTH",
"274 671 OFFCURVE",
"302 762 OFFCURVE",
"358 848 CURVE",
"227 924 LINE",
"151 831 OFFCURVE",
"113 714 OFFCURVE",
"113 573 CURVE SMOOTH",
"113 424 OFFCURVE",
"138 328 OFFCURVE",
"203 203 CURVE"
);
},
{
closed = 1;
nodes = (
"820 141 OFFCURVE",
"686 291 OFFCURVE",
"686 496 CURVE SMOOTH",
"686 717 OFFCURVE",
"784 872 OFFCURVE",
"1039 1028 CURVE",
"1292 875 OFFCURVE",
"1389 720 OFFCURVE",
"1389 496 CURVE SMOOTH",
"1389 430 OFFCURVE",
"1375 370 OFFCURVE",
"1347 317 CURVE SMOOTH",
"1291 209 OFFCURVE",
"1183 141 OFFCURVE",
"1039 141 CURVE SMOOTH"
);
}
);
width = 2425;
}
);
note = g47;
},
{
glyphname = g48;
lastChange = "2016-11-10 17:41:46 +0000";
layers = (
{
layerId = "950E4965-652C-4E49-8BA2-A8792AD091D1";
paths = (
{
closed = 1;
nodes = (
"2116 141 OFFCURVE",
"2138 306 OFFCURVE",
"2138 461 CURVE SMOOTH",
"2138 573 OFFCURVE",
"2120 658 OFFCURVE",
"2083 717 CURVE",
"2087 723 LINE",
"2130 690 OFFCURVE",
"2167 631 OFFCURVE",
"2198 545 CURVE SMOOTH",
"2228 459 OFFCURVE",
"2256 335 OFFCURVE",
"2281 172 CURVE",
"2439 121 LINE",
"2587 320 OFFCURVE",
"2646 470 OFFCURVE",
"2646 670 CURVE SMOOTH",
"2646 761 OFFCURVE",
"2631 852 OFFCURVE",
"2601 942 CURVE",
"2433 885 LINE",
"2466 798 OFFCURVE",
"2482 712 OFFCURVE",
"2482 627 CURVE SMOOTH",
"2482 516 OFFCURVE",
"2453 406 OFFCURVE",
"2394 297 CURVE",
"2388 299 LINE",
"2340 694 OFFCURVE",
"2211 891 OFFCURVE",
"2001 891 CURVE SMOOTH",
"1928 891 OFFCURVE",
"1859 876 OFFCURVE",
"1792 846 CURVE",
"1714 985 OFFCURVE",
"1567 1111 OFFCURVE",
"1352 1223 CURVE",
"975 1028 OFFCURVE",
"825 807 OFFCURVE",
"825 496 CURVE SMOOTH",
"825 400 OFFCURVE",
"846 312 OFFCURVE",
"889 233 CURVE SMOOTH",
"973 73 OFFCURVE",
"1139 -27 OFFCURVE",
"1352 -27 CURVE SMOOTH",
"1458 -27 OFFCURVE",
"1551 -4 OFFCURVE",
"1630 43 CURVE SMOOTH",
"1789 136 OFFCURVE",
"1878 304 OFFCURVE",
"1878 496 CURVE SMOOTH",
"1878 573 OFFCURVE",
"1869 644 OFFCURVE",
"1851 707 CURVE",
"1865 715 OFFCURVE",
"1879 719 OFFCURVE",
"1892 719 CURVE SMOOTH",
"1947 719 OFFCURVE",
"1974 646 OFFCURVE",
"1974 500 CURVE SMOOTH",
"1974 331 OFFCURVE",
"1960 163 OFFCURVE",
"1931 -4 CURVE",
"2073 -35 LINE"
);
},
{
closed = 1;
nodes = (
"287 -360 OFFCURVE",
"363 -337 OFFCURVE",
"430 -292 CURVE SMOOTH",
"563 -202 OFFCURVE",
"645 -24 OFFCURVE",
"645 227 CURVE SMOOTH",
"645 568 OFFCURVE",
"504 885 OFFCURVE",
"223 1178 CURVE",
"385 1360 LINE",
"618 1163 LINE",
"723 1292 LINE",
"369 1589 LINE",
"-2 1178 LINE",
"316 894 OFFCURVE",
"475 576 OFFCURVE",
"475 223 CURVE SMOOTH",
"475 -56 OFFCURVE",
"370 -199 OFFCURVE",
"209 -199 CURVE SMOOTH",
"172 -199 OFFCURVE",
"140 -189 OFFCURVE",
"111 -170 CURVE",
"37 -311 LINE",
"80 -344 OFFCURVE",
"135 -360 OFFCURVE",
"201 -360 CURVE SMOOTH"
);
},
{
closed = 1;
nodes = (
"1133 141 OFFCURVE",
"999 291 OFFCURVE",
"999 496 CURVE SMOOTH",
"999 717 OFFCURVE",
"1097 872 OFFCURVE",
"1352 1028 CURVE",
"1605 875 OFFCURVE",
"1702 720 OFFCURVE",
"1702 496 CURVE SMOOTH",
"1702 430 OFFCURVE",
"1688 370 OFFCURVE",
"1660 317 CURVE SMOOTH",
"1604 209 OFFCURVE",
"1496 141 OFFCURVE",
"1352 141 CURVE SMOOTH"
);
}
);
width = 2738;
}
);
note = g48;
},
{
glyphname = g49;
lastChange = "2016-11-10 17:41:46 +0000";
layers = (
{
layerId = "950E4965-652C-4E49-8BA2-A8792AD091D1";
paths = (
{
closed = 1;
nodes = (
"2360 141 OFFCURVE",
"2382 306 OFFCURVE",
"2382 461 CURVE SMOOTH",
"2382 573 OFFCURVE",
"2364 658 OFFCURVE",
"2327 717 CURVE",
"2331 723 LINE",
"2374 690 OFFCURVE",
"2411 631 OFFCURVE",
"2442 545 CURVE SMOOTH",
"2472 459 OFFCURVE",
"2500 335 OFFCURVE",
"2525 172 CURVE",
"2683 121 LINE",
"2831 320 OFFCURVE",
"2890 470 OFFCURVE",
"2890 670 CURVE SMOOTH",
"2890 761 OFFCURVE",
"2875 852 OFFCURVE",
"2845 942 CURVE",
"2677 885 LINE",
"2710 798 OFFCURVE",
"2726 712 OFFCURVE",
"2726 627 CURVE SMOOTH",
"2726 516 OFFCURVE",
"2697 406 OFFCURVE",
"2638 297 CURVE",
"2632 299 LINE",
"2584 694 OFFCURVE",
"2455 891 OFFCURVE",
"2245 891 CURVE SMOOTH",
"2172 891 OFFCURVE",
"2103 876 OFFCURVE",
"2036 846 CURVE",
"1958 985 OFFCURVE",
"1811 1111 OFFCURVE",
"1596 1223 CURVE",
"1219 1028 OFFCURVE",
"1069 807 OFFCURVE",
"1069 496 CURVE SMOOTH",
"1069 400 OFFCURVE",
"1090 312 OFFCURVE",
"1133 233 CURVE SMOOTH",
"1217 73 OFFCURVE",
"1383 -27 OFFCURVE",
"1596 -27 CURVE SMOOTH",
"1702 -27 OFFCURVE",
"1795 -4 OFFCURVE",
"1874 43 CURVE SMOOTH",
"2033 136 OFFCURVE",
"2122 304 OFFCURVE",
"2122 496 CURVE SMOOTH",
"2122 573 OFFCURVE",
"2113 644 OFFCURVE",
"2095 707 CURVE",
"2109 715 OFFCURVE",
"2123 719 OFFCURVE",
"2136 719 CURVE SMOOTH",
"2191 719 OFFCURVE",
"2218 646 OFFCURVE",
"2218 500 CURVE SMOOTH",
"2218 331 OFFCURVE",
"2204 163 OFFCURVE",
"2175 -4 CURVE",
"2317 -35 LINE"
);
},
{
closed = 1;
nodes = (
"358 88 LINE",
"295 192 OFFCURVE",
"274 276 OFFCURVE",
"274 387 CURVE SMOOTH",
"274 483 OFFCURVE",
"302 574 OFFCURVE",
"358 660 CURVE",
"227 736 LINE",
"151 643 OFFCURVE",
"113 526 OFFCURVE",
"113 385 CURVE SMOOTH",
"113 236 OFFCURVE",
"138 140 OFFCURVE",
"203 15 CURVE"
);
},
{
closed = 1;
nodes = (
"490 -360 OFFCURVE",
"566 -337 OFFCURVE",
"633 -292 CURVE SMOOTH",
"766 -202 OFFCURVE",
"848 -24 OFFCURVE",
"848 227 CURVE SMOOTH",
"848 568 OFFCURVE",
"707 885 OFFCURVE",
"426 1178 CURVE",
"588 1360 LINE",
"821 1163 LINE",
"926 1292 LINE",
"572 1589 LINE",
"201 1178 LINE",
"519 894 OFFCURVE",
"678 576 OFFCURVE",
"678 223 CURVE SMOOTH",
"678 -56 OFFCURVE",
"573 -199 OFFCURVE",
"412 -199 CURVE SMOOTH",
"375 -199 OFFCURVE",
"343 -189 OFFCURVE",
"314 -170 CURVE",
"240 -311 LINE",
"283 -344 OFFCURVE",
"338 -360 OFFCURVE",
"404 -360 CURVE SMOOTH"
);
},
{
closed = 1;
nodes = (
"1377 141 OFFCURVE",
"1243 291 OFFCURVE",
"1243 496 CURVE SMOOTH",
"1243 717 OFFCURVE",
"1341 872 OFFCURVE",
"1596 1028 CURVE",
"1849 875 OFFCURVE",
"1946 720 OFFCURVE",
"1946 496 CURVE SMOOTH",
"1946 430 OFFCURVE",
"1932 370 OFFCURVE",
"1904 317 CURVE SMOOTH",
"1848 209 OFFCURVE",
"1740 141 OFFCURVE",
"1596 141 CURVE SMOOTH"
);
}
);
width = 2982;
}
);
note = g49;
},
{
glyphname = g50;
lastChange = "2016-11-10 17:41:46 +0000";
layers = (
{
layerId = "950E4965-652C-4E49-8BA2-A8792AD091D1";
paths = (
{
closed = 1;
nodes = (
"1856 141 OFFCURVE",
"1878 306 OFFCURVE",
"1878 461 CURVE SMOOTH",
"1878 573 OFFCURVE",
"1860 658 OFFCURVE",
"1823 717 CURVE",
"1827 723 LINE",
"1870 690 OFFCURVE",
"1907 631 OFFCURVE",
"1938 545 CURVE SMOOTH",
"1968 459 OFFCURVE",
"1996 335 OFFCURVE",
"2021 172 CURVE",
"2179 121 LINE",
"2327 320 OFFCURVE",
"2386 470 OFFCURVE",
"2386 670 CURVE SMOOTH",
"2386 761 OFFCURVE",
"2371 852 OFFCURVE",
"2341 942 CURVE",
"2173 885 LINE",
"2206 798 OFFCURVE",
"2222 712 OFFCURVE",
"2222 627 CURVE SMOOTH",
"2222 516 OFFCURVE",
"2193 406 OFFCURVE",
"2134 297 CURVE",
"2128 299 LINE",
"2080 694 OFFCURVE",
"1951 891 OFFCURVE",
"1741 891 CURVE SMOOTH",
"1668 891 OFFCURVE",
"1599 876 OFFCURVE",
"1532 846 CURVE",
"1454 985 OFFCURVE",
"1307 1111 OFFCURVE",
"1092 1223 CURVE",
"715 1028 OFFCURVE",
"565 807 OFFCURVE",
"565 496 CURVE SMOOTH",
"565 400 OFFCURVE",
"586 312 OFFCURVE",
"629 233 CURVE SMOOTH",
"713 73 OFFCURVE",
"879 -27 OFFCURVE",
"1092 -27 CURVE SMOOTH",
"1198 -27 OFFCURVE",
"1291 -4 OFFCURVE",
"1370 43 CURVE SMOOTH",
"1529 136 OFFCURVE",
"1618 304 OFFCURVE",
"1618 496 CURVE SMOOTH",
"1618 573 OFFCURVE",
"1609 644 OFFCURVE",
"1591 707 CURVE",
"1605 715 OFFCURVE",
"1619 719 OFFCURVE",
"1632 719 CURVE SMOOTH",
"1687 719 OFFCURVE",
"1714 646 OFFCURVE",
"1714 500 CURVE SMOOTH",
"1714 331 OFFCURVE",
"1700 163 OFFCURVE",
"1671 -4 CURVE",
"1813 -35 LINE"
);
},
{
closed = 1;
nodes = (
"494 0 LINE",
"367 180 OFFCURVE",
"303 377 OFFCURVE",
"303 592 CURVE SMOOTH",
"303 797 OFFCURVE",
"367 987 OFFCURVE",
"494 1163 CURVE",
"377 1243 LINE",
"213 1030 OFFCURVE",
"143 833 OFFCURVE",
"143 580 CURVE SMOOTH",
"143 331 OFFCURVE",
"210 105 OFFCURVE",
"344 -98 CURVE"
);
},
{
closed = 1;
nodes = (
"873 141 OFFCURVE",
"739 291 OFFCURVE",
"739 496 CURVE SMOOTH",
"739 717 OFFCURVE",
"837 872 OFFCURVE",
"1092 1028 CURVE",
"1345 875 OFFCURVE",
"1442 720 OFFCURVE",
"1442 496 CURVE SMOOTH",
"1442 430 OFFCURVE",
"1428 370 OFFCURVE",
"1400 317 CURVE SMOOTH",
"1344 209 OFFCURVE",
"1236 141 OFFCURVE",
"1092 141 CURVE SMOOTH"
);
}
);
width = 2478;
}
);
note = g50;
},
{
glyphname = g51;
lastChange = "2016-11-10 17:41:46 +0000";
layers = (
{
layerId = "950E4965-652C-4E49-8BA2-A8792AD091D1";
paths = (
{
closed = 1;
nodes = (
"2225 141 OFFCURVE",
"2247 306 OFFCURVE",
"2247 461 CURVE SMOOTH",
"2247 573 OFFCURVE",
"2229 658 OFFCURVE",
"2192 717 CURVE",
"2196 723 LINE",
"2239 690 OFFCURVE",
"2276 631 OFFCURVE",
"2307 545 CURVE SMOOTH",
"2337 459 OFFCURVE",
"2365 335 OFFCURVE",
"2390 172 CURVE",
"2548 121 LINE",
"2696 320 OFFCURVE",
"2755 470 OFFCURVE",
"2755 670 CURVE SMOOTH",
"2755 761 OFFCURVE",
"2740 852 OFFCURVE",
"2710 942 CURVE",
"2542 885 LINE",
"2575 798 OFFCURVE",
"2591 712 OFFCURVE",
"2591 627 CURVE SMOOTH",
"2591 516 OFFCURVE",
"2562 406 OFFCURVE",
"2503 297 CURVE",
"2497 299 LINE",
"2449 694 OFFCURVE",
"2320 891 OFFCURVE",
"2110 891 CURVE SMOOTH",
"2037 891 OFFCURVE",
"1968 876 OFFCURVE",
"1901 846 CURVE",
"1823 985 OFFCURVE",
"1676 1111 OFFCURVE",
"1461 1223 CURVE",
"1084 1028 OFFCURVE",
"934 807 OFFCURVE",
"934 496 CURVE SMOOTH",
"934 400 OFFCURVE",
"955 312 OFFCURVE",
"998 233 CURVE SMOOTH",
"1082 73 OFFCURVE",
"1248 -27 OFFCURVE",
"1461 -27 CURVE SMOOTH",
"1567 -27 OFFCURVE",
"1660 -4 OFFCURVE",
"1739 43 CURVE SMOOTH",
"1898 136 OFFCURVE",
"1987 304 OFFCURVE",
"1987 496 CURVE SMOOTH",
"1987 573 OFFCURVE",
"1978 644 OFFCURVE",
"1960 707 CURVE",
"1974 715 OFFCURVE",
"1988 719 OFFCURVE",
"2001 719 CURVE SMOOTH",
"2056 719 OFFCURVE",
"2083 646 OFFCURVE",
"2083 500 CURVE SMOOTH",
"2083 331 OFFCURVE",
"2069 163 OFFCURVE",
"2040 -4 CURVE",
"2182 -35 LINE"
);
},
{
closed = 1;
nodes = (
"358 276 LINE",
"295 380 OFFCURVE",
"274 464 OFFCURVE",
"274 575 CURVE SMOOTH",
"274 671 OFFCURVE",
"302 762 OFFCURVE",
"358 848 CURVE",
"227 924 LINE",
"151 831 OFFCURVE",
"113 714 OFFCURVE",
"113 573 CURVE SMOOTH",
"113 424 OFFCURVE",
"138 328 OFFCURVE",
"203 203 CURVE"
);
},
{
closed = 1;
nodes = (
"863 0 LINE",
"736 180 OFFCURVE",
"672 377 OFFCURVE",
"672 592 CURVE SMOOTH",
"672 797 OFFCURVE",
"736 987 OFFCURVE",
"863 1163 CURVE",
"746 1243 LINE",
"582 1030 OFFCURVE",
"512 833 OFFCURVE",
"512 580 CURVE SMOOTH",
"512 331 OFFCURVE",
"579 105 OFFCURVE",
"713 -98 CURVE"
);
},
{
closed = 1;
nodes = (
"1242 141 OFFCURVE",
"1108 291 OFFCURVE",
"1108 496 CURVE SMOOTH",
"1108 717 OFFCURVE",
"1206 872 OFFCURVE",
"1461 1028 CURVE",
"1714 875 OFFCURVE",
"1811 720 OFFCURVE",
"1811 496 CURVE SMOOTH",
"1811 430 OFFCURVE",
"1797 370 OFFCURVE",
"1769 317 CURVE SMOOTH",
"1713 209 OFFCURVE",
"1605 141 OFFCURVE",
"1461 141 CURVE SMOOTH"
);
}
);
width = 2847;
}
);
note = g51;
},
{
glyphname = g52;
lastChange = "2016-11-10 17:41:46 +0000";
layers = (
{
layerId = "950E4965-652C-4E49-8BA2-A8792AD091D1";
paths = (
{
closed = 1;
nodes = (
"440 -14 LINE",
"323 187 OFFCURVE",
"274 365 OFFCURVE",
"274 610 CURVE SMOOTH",
"274 920 OFFCURVE",
"362 1192 OFFCURVE",
"539 1427 CURVE",
"671 1403 OFFCURVE",
"808 1391 OFFCURVE",
"950 1391 CURVE SMOOTH",
"1248 1391 OFFCURVE",
"1491 1422 OFFCURVE",
"1679 1485 CURVE",
"1679 1647 LINE",
"1480 1586 OFFCURVE",
"1237 1556 OFFCURVE",
"950 1556 CURVE SMOOTH",
"793 1556 OFFCURVE",
"630 1570 OFFCURVE",
"459 1599 CURVE",
"224 1288 OFFCURVE",
"113 987 OFFCURVE",
"113 596 CURVE SMOOTH",
"113 325 OFFCURVE",
"170 111 OFFCURVE",
"293 -98 CURVE"
);
},
{
closed = 1;
nodes = (
"861 141 OFFCURVE",
"727 291 OFFCURVE",
"727 496 CURVE SMOOTH",
"727 717 OFFCURVE",
"825 872 OFFCURVE",
"1080 1028 CURVE",
"1333 875 OFFCURVE",
"1430 720 OFFCURVE",
"1430 496 CURVE SMOOTH",
"1430 430 OFFCURVE",
"1416 370 OFFCURVE",
"1388 317 CURVE SMOOTH",
"1332 209 OFFCURVE",
"1224 141 OFFCURVE",
"1080 141 CURVE SMOOTH"
);
},
{
closed = 1;
nodes = (
"1844 141 OFFCURVE",
"1866 306 OFFCURVE",
"1866 461 CURVE SMOOTH",
"1866 573 OFFCURVE",
"1848 658 OFFCURVE",
"1811 717 CURVE",
"1815 723 LINE",
"1858 690 OFFCURVE",
"1895 631 OFFCURVE",
"1926 545 CURVE SMOOTH",
"1956 459 OFFCURVE",
"1984 335 OFFCURVE",
"2009 172 CURVE",
"2167 121 LINE",
"2315 320 OFFCURVE",
"2374 470 OFFCURVE",
"2374 670 CURVE SMOOTH",
"2374 761 OFFCURVE",
"2359 852 OFFCURVE",
"2329 942 CURVE",
"2161 885 LINE",
"2194 798 OFFCURVE",
"2210 712 OFFCURVE",
"2210 627 CURVE SMOOTH",
"2210 516 OFFCURVE",
"2181 406 OFFCURVE",
"2122 297 CURVE",
"2116 299 LINE",
"2068 694 OFFCURVE",
"1939 891 OFFCURVE",
"1729 891 CURVE SMOOTH",
"1656 891 OFFCURVE",
"1587 876 OFFCURVE",
"1520 846 CURVE",
"1442 985 OFFCURVE",
"1295 1111 OFFCURVE",
"1080 1223 CURVE",
"703 1028 OFFCURVE",
"553 807 OFFCURVE",
"553 496 CURVE SMOOTH",
"553 400 OFFCURVE",
"574 312 OFFCURVE",
"617 233 CURVE SMOOTH",
"701 73 OFFCURVE",
"867 -27 OFFCURVE",
"1080 -27 CURVE SMOOTH",
"1186 -27 OFFCURVE",
"1279 -4 OFFCURVE",
"1358 43 CURVE SMOOTH",
"1517 136 OFFCURVE",
"1606 304 OFFCURVE",
"1606 496 CURVE SMOOTH",
"1606 573 OFFCURVE",
"1597 644 OFFCURVE",
"1579 707 CURVE",
"1593 715 OFFCURVE",
"1607 719 OFFCURVE",
"1620 719 CURVE SMOOTH",
"1675 719 OFFCURVE",
"1702 646 OFFCURVE",
"1702 500 CURVE SMOOTH",
"1702 331 OFFCURVE",
"1688 163 OFFCURVE",
"1659 -4 CURVE",
"1801 -35 LINE"
);
}
);
width = 2466;
}
);
note = g52;
},
{
glyphname = g53;
lastChange = "2016-11-10 17:41:46 +0000";
layers = (
{
layerId = "950E4965-652C-4E49-8BA2-A8792AD091D1";
paths = (
{
closed = 1;
nodes = (
"809 -14 LINE",
"692 187 OFFCURVE",
"643 365 OFFCURVE",
"643 610 CURVE SMOOTH",
"643 920 OFFCURVE",
"731 1192 OFFCURVE",
"908 1427 CURVE",
"1040 1403 OFFCURVE",
"1177 1391 OFFCURVE",
"1319 1391 CURVE SMOOTH",
"1617 1391 OFFCURVE",
"1860 1422 OFFCURVE",
"2048 1485 CURVE",
"2048 1647 LINE",
"1849 1586 OFFCURVE",
"1606 1556 OFFCURVE",
"1319 1556 CURVE SMOOTH",
"1162 1556 OFFCURVE",
"999 1570 OFFCURVE",
"828 1599 CURVE",
"593 1288 OFFCURVE",
"482 987 OFFCURVE",
"482 596 CURVE SMOOTH",
"482 325 OFFCURVE",
"539 111 OFFCURVE",
"662 -98 CURVE"
);
},
{
closed = 1;
nodes = (
"358 276 LINE",
"295 380 OFFCURVE",
"274 464 OFFCURVE",
"274 575 CURVE SMOOTH",
"274 671 OFFCURVE",
"302 762 OFFCURVE",
"358 848 CURVE",
"227 924 LINE",
"151 831 OFFCURVE",
"113 714 OFFCURVE",
"113 573 CURVE SMOOTH",
"113 424 OFFCURVE",
"138 328 OFFCURVE",
"203 203 CURVE"
);
},
{
closed = 1;
nodes = (
"1229 141 OFFCURVE",
"1095 291 OFFCURVE",
"1095 496 CURVE SMOOTH",
"1095 717 OFFCURVE",
"1193 872 OFFCURVE",
"1448 1028 CURVE",
"1701 875 OFFCURVE",
"1798 720 OFFCURVE",
"1798 496 CURVE SMOOTH",
"1798 430 OFFCURVE",
"1784 370 OFFCURVE",
"1756 317 CURVE SMOOTH",
"1700 209 OFFCURVE",
"1592 141 OFFCURVE",
"1448 141 CURVE SMOOTH"
);
},
{
closed = 1;
nodes = (
"2212 141 OFFCURVE",
"2234 306 OFFCURVE",
"2234 461 CURVE SMOOTH",
"2234 573 OFFCURVE",
"2216 658 OFFCURVE",
"2179 717 CURVE",
"2183 723 LINE",
"2226 690 OFFCURVE",
"2263 631 OFFCURVE",
"2294 545 CURVE SMOOTH",
"2324 459 OFFCURVE",
"2352 335 OFFCURVE",
"2377 172 CURVE",
"2535 121 LINE",
"2683 320 OFFCURVE",
"2742 470 OFFCURVE",
"2742 670 CURVE SMOOTH",
"2742 761 OFFCURVE",
"2727 852 OFFCURVE",
"2697 942 CURVE",
"2529 885 LINE",
"2562 798 OFFCURVE",
"2578 712 OFFCURVE",
"2578 627 CURVE SMOOTH",
"2578 516 OFFCURVE",
"2549 406 OFFCURVE",
"2490 297 CURVE",
"2484 299 LINE",
"2436 694 OFFCURVE",
"2307 891 OFFCURVE",
"2097 891 CURVE SMOOTH",
"2024 891 OFFCURVE",
"1955 876 OFFCURVE",
"1888 846 CURVE",
"1810 985 OFFCURVE",
"1663 1111 OFFCURVE",
"1448 1223 CURVE",
"1071 1028 OFFCURVE",
"921 807 OFFCURVE",
"921 496 CURVE SMOOTH",
"921 400 OFFCURVE",
"942 312 OFFCURVE",
"985 233 CURVE SMOOTH",
"1069 73 OFFCURVE",
"1235 -27 OFFCURVE",
"1448 -27 CURVE SMOOTH",
"1554 -27 OFFCURVE",
"1647 -4 OFFCURVE",
"1726 43 CURVE SMOOTH",
"1885 136 OFFCURVE",
"1974 304 OFFCURVE",
"1974 496 CURVE SMOOTH",
"1974 573 OFFCURVE",
"1965 644 OFFCURVE",
"1947 707 CURVE",
"1961 715 OFFCURVE",
"1975 719 OFFCURVE",
"1988 719 CURVE SMOOTH",
"2043 719 OFFCURVE",
"2070 646 OFFCURVE",
"2070 500 CURVE SMOOTH",
"2070 331 OFFCURVE",
"2056 163 OFFCURVE",
"2027 -4 CURVE",
"2169 -35 LINE"
);
}
);
width = 2834;
}
);
note = g53;
},
{
glyphname = g54;
lastChange = "2016-11-10 17:41:46 +0000";
layers = (
{
layerId = "950E4965-652C-4E49-8BA2-A8792AD091D1";
paths = (
{
closed = 1;
nodes = (
"1434 141 OFFCURVE",
"1456 306 OFFCURVE",
"1456 461 CURVE SMOOTH",
"1456 573 OFFCURVE",
"1438 658 OFFCURVE",
"1401 717 CURVE",
"1405 723 LINE",
"1448 690 OFFCURVE",
"1485 631 OFFCURVE",
"1516 545 CURVE SMOOTH",
"1546 459 OFFCURVE",
"1574 335 OFFCURVE",
"1599 172 CURVE",
"1757 121 LINE",
"1905 320 OFFCURVE",
"1964 470 OFFCURVE",
"1964 670 CURVE SMOOTH",
"1964 761 OFFCURVE",
"1949 852 OFFCURVE",
"1919 942 CURVE",
"1751 885 LINE",
"1784 798 OFFCURVE",
"1800 712 OFFCURVE",
"1800 627 CURVE SMOOTH",
"1800 516 OFFCURVE",
"1771 406 OFFCURVE",
"1712 297 CURVE",
"1706 299 LINE",
"1658 694 OFFCURVE",
"1529 891 OFFCURVE",
"1319 891 CURVE SMOOTH",
"1246 891 OFFCURVE",
"1177 876 OFFCURVE",
"1110 846 CURVE",
"1032 985 OFFCURVE",
"885 1111 OFFCURVE",
"670 1223 CURVE",
"293 1028 OFFCURVE",
"143 807 OFFCURVE",
"143 496 CURVE SMOOTH",
"143 400 OFFCURVE",
"164 312 OFFCURVE",
"207 233 CURVE SMOOTH",
"291 73 OFFCURVE",
"457 -27 OFFCURVE",
"670 -27 CURVE SMOOTH",
"776 -27 OFFCURVE",
"869 -4 OFFCURVE",
"948 43 CURVE SMOOTH",
"1107 136 OFFCURVE",
"1196 304 OFFCURVE",
"1196 496 CURVE SMOOTH",
"1196 573 OFFCURVE",
"1187 644 OFFCURVE",
"1169 707 CURVE",
"1183 715 OFFCURVE",
"1197 719 OFFCURVE",
"1210 719 CURVE SMOOTH",
"1265 719 OFFCURVE",
"1292 646 OFFCURVE",
"1292 500 CURVE SMOOTH",
"1292 331 OFFCURVE",
"1278 163 OFFCURVE",
"1249 -4 CURVE",
"1391 -35 LINE"
);
},
{
closed = 1;
nodes = (
"451 141 OFFCURVE",
"317 291 OFFCURVE",
"317 496 CURVE SMOOTH",
"317 717 OFFCURVE",
"415 872 OFFCURVE",
"670 1028 CURVE",
"923 875 OFFCURVE",
"1020 720 OFFCURVE",
"1020 496 CURVE SMOOTH",
"1020 430 OFFCURVE",
"1006 370 OFFCURVE",
"978 317 CURVE SMOOTH",
"922 209 OFFCURVE",
"814 141 OFFCURVE",
"670 141 CURVE SMOOTH"
);
},
{
closed = 1;
nodes = (
"1994 -360 OFFCURVE",
"2079 -331 OFFCURVE",
"2156 -273 CURVE SMOOTH",
"2309 -157 OFFCURVE",
"2400 64 OFFCURVE",
"2400 348 CURVE SMOOTH",
"2400 706 OFFCURVE",
"2315 1005 OFFCURVE",
"2146 1245 CURVE",
"1998 1161 LINE",
"2153 930 OFFCURVE",
"2230 661 OFFCURVE",
"2230 354 CURVE SMOOTH",
"2230 241 OFFCURVE",
"2216 142 OFFCURVE",
"2189 59 CURVE SMOOTH",
"2134 -108 OFFCURVE",
"2033 -199 OFFCURVE",
"1908 -199 CURVE SMOOTH",
"1871 -199 OFFCURVE",
"1839 -189 OFFCURVE",
"1810 -170 CURVE",
"1736 -311 LINE",
"1780 -344 OFFCURVE",
"1835 -360 OFFCURVE",
"1900 -360 CURVE SMOOTH"
);
}
);
width = 2554;
}
);
note = g54;
},
{
glyphname = g55;
lastChange = "2016-11-10 17:41:46 +0000";
layers = (
{
layerId = "950E4965-652C-4E49-8BA2-A8792AD091D1";
paths = (
{
closed = 1;
nodes = (
"1803 141 OFFCURVE",
"1825 306 OFFCURVE",
"1825 461 CURVE SMOOTH",
"1825 573 OFFCURVE",
"1807 658 OFFCURVE",
"1770 717 CURVE",
"1774 723 LINE",
"1817 690 OFFCURVE",
"1854 631 OFFCURVE",
"1885 545 CURVE SMOOTH",
"1915 459 OFFCURVE",
"1943 335 OFFCURVE",
"1968 172 CURVE",
"2126 121 LINE",
"2274 320 OFFCURVE",
"2333 470 OFFCURVE",
"2333 670 CURVE SMOOTH",
"2333 761 OFFCURVE",
"2318 852 OFFCURVE",
"2288 942 CURVE",
"2120 885 LINE",
"2153 798 OFFCURVE",
"2169 712 OFFCURVE",
"2169 627 CURVE SMOOTH",
"2169 516 OFFCURVE",
"2140 406 OFFCURVE",
"2081 297 CURVE",
"2075 299 LINE",
"2027 694 OFFCURVE",
"1898 891 OFFCURVE",
"1688 891 CURVE SMOOTH",
"1615 891 OFFCURVE",
"1546 876 OFFCURVE",
"1479 846 CURVE",
"1401 985 OFFCURVE",
"1254 1111 OFFCURVE",
"1039 1223 CURVE",
"662 1028 OFFCURVE",
"512 807 OFFCURVE",
"512 496 CURVE SMOOTH",
"512 400 OFFCURVE",
"533 312 OFFCURVE",
"576 233 CURVE SMOOTH",
"660 73 OFFCURVE",
"826 -27 OFFCURVE",
"1039 -27 CURVE SMOOTH",
"1145 -27 OFFCURVE",
"1238 -4 OFFCURVE",
"1317 43 CURVE SMOOTH",
"1476 136 OFFCURVE",
"1565 304 OFFCURVE",
"1565 496 CURVE SMOOTH",
"1565 573 OFFCURVE",
"1556 644 OFFCURVE",
"1538 707 CURVE",
"1552 715 OFFCURVE",
"1566 719 OFFCURVE",
"1579 719 CURVE SMOOTH",
"1634 719 OFFCURVE",
"1661 646 OFFCURVE",
"1661 500 CURVE SMOOTH",
"1661 331 OFFCURVE",
"1647 163 OFFCURVE",
"1618 -4 CURVE",
"1760 -35 LINE"
);
},
{
closed = 1;
nodes = (
"358 276 LINE",
"295 380 OFFCURVE",
"274 464 OFFCURVE",
"274 575 CURVE SMOOTH",
"274 671 OFFCURVE",
"302 762 OFFCURVE",
"358 848 CURVE",
"227 924 LINE",
"151 831 OFFCURVE",
"113 714 OFFCURVE",
"113 573 CURVE SMOOTH",
"113 424 OFFCURVE",
"138 328 OFFCURVE",
"203 203 CURVE"
);
},
{
closed = 1;
nodes = (
"820 141 OFFCURVE",
"686 291 OFFCURVE",
"686 496 CURVE SMOOTH",
"686 717 OFFCURVE",
"784 872 OFFCURVE",
"1039 1028 CURVE",
"1292 875 OFFCURVE",
"1389 720 OFFCURVE",
"1389 496 CURVE SMOOTH",
"1389 430 OFFCURVE",
"1375 370 OFFCURVE",
"1347 317 CURVE SMOOTH",
"1291 209 OFFCURVE",
"1183 141 OFFCURVE",
"1039 141 CURVE SMOOTH"
);
},
{
closed = 1;
nodes = (
"2363 -360 OFFCURVE",
"2448 -331 OFFCURVE",
"2525 -273 CURVE SMOOTH",
"2678 -157 OFFCURVE",
"2769 64 OFFCURVE",
"2769 348 CURVE SMOOTH",
"2769 706 OFFCURVE",
"2684 1005 OFFCURVE",
"2515 1245 CURVE",
"2367 1161 LINE",
"2522 930 OFFCURVE",
"2599 661 OFFCURVE",
"2599 354 CURVE SMOOTH",
"2599 241 OFFCURVE",
"2585 142 OFFCURVE",
"2558 59 CURVE SMOOTH",
"2503 -108 OFFCURVE",
"2402 -199 OFFCURVE",
"2277 -199 CURVE SMOOTH",
"2240 -199 OFFCURVE",
"2208 -189 OFFCURVE",
"2179 -170 CURVE",
"2105 -311 LINE",
"2149 -344 OFFCURVE",
"2204 -360 OFFCURVE",
"2269 -360 CURVE SMOOTH"
);
}
);
width = 2922;
}
);
note = g55;
},
{
glyphname = g56;
lastChange = "2016-11-10 17:41:46 +0000";
layers = (
{
layerId = "950E4965-652C-4E49-8BA2-A8792AD091D1";
paths = (
{
closed = 1;
nodes = (
"1434 141 OFFCURVE",
"1456 306 OFFCURVE",
"1456 461 CURVE SMOOTH",
"1456 573 OFFCURVE",
"1438 658 OFFCURVE",
"1401 717 CURVE",
"1405 723 LINE",
"1448 690 OFFCURVE",
"1485 631 OFFCURVE",
"1516 545 CURVE SMOOTH",
"1546 459 OFFCURVE",
"1574 335 OFFCURVE",
"1599 172 CURVE",
"1757 121 LINE",
"1905 320 OFFCURVE",
"1964 470 OFFCURVE",
"1964 670 CURVE SMOOTH",
"1964 761 OFFCURVE",
"1949 852 OFFCURVE",
"1919 942 CURVE",
"1751 885 LINE",
"1784 798 OFFCURVE",
"1800 712 OFFCURVE",
"1800 627 CURVE SMOOTH",
"1800 516 OFFCURVE",
"1771 406 OFFCURVE",
"1712 297 CURVE",
"1706 299 LINE",
"1658 694 OFFCURVE",
"1529 891 OFFCURVE",
"1319 891 CURVE SMOOTH",
"1246 891 OFFCURVE",
"1177 876 OFFCURVE",
"1110 846 CURVE",
"1032 985 OFFCURVE",
"885 1111 OFFCURVE",
"670 1223 CURVE",
"293 1028 OFFCURVE",
"143 807 OFFCURVE",
"143 496 CURVE SMOOTH",
"143 400 OFFCURVE",
"164 312 OFFCURVE",
"207 233 CURVE SMOOTH",
"291 73 OFFCURVE",
"457 -27 OFFCURVE",
"670 -27 CURVE SMOOTH",
"776 -27 OFFCURVE",
"869 -4 OFFCURVE",
"948 43 CURVE SMOOTH",
"1107 136 OFFCURVE",
"1196 304 OFFCURVE",
"1196 496 CURVE SMOOTH",
"1196 573 OFFCURVE",
"1187 644 OFFCURVE",
"1169 707 CURVE",
"1183 715 OFFCURVE",
"1197 719 OFFCURVE",
"1210 719 CURVE SMOOTH",
"1265 719 OFFCURVE",
"1292 646 OFFCURVE",
"1292 500 CURVE SMOOTH",
"1292 331 OFFCURVE",
"1278 163 OFFCURVE",
"1249 -4 CURVE",
"1391 -35 LINE"
);
},
{
closed = 1;
nodes = (
"451 141 OFFCURVE",
"317 291 OFFCURVE",
"317 496 CURVE SMOOTH",
"317 717 OFFCURVE",
"415 872 OFFCURVE",
"670 1028 CURVE",
"923 875 OFFCURVE",
"1020 720 OFFCURVE",
"1020 496 CURVE SMOOTH",
"1020 430 OFFCURVE",
"1006 370 OFFCURVE",
"978 317 CURVE SMOOTH",
"922 209 OFFCURVE",
"814 141 OFFCURVE",
"670 141 CURVE SMOOTH"
);
},
{
closed = 1;
nodes = (
"2272 -360 OFFCURVE",
"2354 -341 OFFCURVE",
"2427 -303 CURVE SMOOTH",
"2571 -227 OFFCURVE",
"2658 -71 OFFCURVE",
"2658 150 CURVE SMOOTH",
"2658 313 OFFCURVE",
"2608 508 OFFCURVE",
"2521 657 CURVE",
"2606 743 OFFCURVE",
"2648 836 OFFCURVE",
"2648 936 CURVE SMOOTH",
"2648 1103 OFFCURVE",
"2547 1221 OFFCURVE",
"2367 1221 CURVE SMOOTH",
"2254 1221 OFFCURVE",
"2151 1184 OFFCURVE",
"2060 1110 CURVE",
"2152 971 LINE",
"2225 1028 OFFCURVE",
"2296 1057 OFFCURVE",
"2367 1057 CURVE SMOOTH",
"2441 1057 OFFCURVE",
"2478 1017 OFFCURVE",
"2478 936 CURVE SMOOTH",
"2478 895 OFFCURVE",
"2467 857 OFFCURVE",
"2445 822 CURVE SMOOTH",
"2401 753 OFFCURVE",
"2309 680 OFFCURVE",
"2126 573 CURVE",
"2214 428 LINE",
"2279 469 OFFCURVE",
"2337 508 OFFCURVE",
"2386 545 CURVE",
"2454 423 OFFCURVE",
"2488 291 OFFCURVE",
"2488 150 CURVE SMOOTH",
"2488 -86 OFFCURVE",
"2372 -199 OFFCURVE",
"2187 -199 CURVE SMOOTH",
"2150 -199 OFFCURVE",
"2118 -189 OFFCURVE",
"2089 -170 CURVE",
"2015 -311 LINE",
"2059 -344 OFFCURVE",
"2114 -360 OFFCURVE",
"2179 -360 CURVE SMOOTH"
);
}
);
width = 2812;
}
);
note = g56;
},
{
glyphname = g57;
lastChange = "2016-11-10 17:41:46 +0000";
layers = (
{
layerId = "950E4965-652C-4E49-8BA2-A8792AD091D1";
paths = (
{
closed = 1;
nodes = (
"1803 141 OFFCURVE",
"1825 306 OFFCURVE",
"1825 461 CURVE SMOOTH",
"1825 573 OFFCURVE",
"1807 658 OFFCURVE",
"1770 717 CURVE",
"1774 723 LINE",
"1817 690 OFFCURVE",
"1854 631 OFFCURVE",
"1885 545 CURVE SMOOTH",
"1915 459 OFFCURVE",
"1943 335 OFFCURVE",
"1968 172 CURVE",
"2126 121 LINE",
"2274 320 OFFCURVE",
"2333 470 OFFCURVE",
"2333 670 CURVE SMOOTH",
"2333 761 OFFCURVE",
"2318 852 OFFCURVE",
"2288 942 CURVE",
"2120 885 LINE",
"2153 798 OFFCURVE",
"2169 712 OFFCURVE",
"2169 627 CURVE SMOOTH",
"2169 516 OFFCURVE",
"2140 406 OFFCURVE",
"2081 297 CURVE",
"2075 299 LINE",
"2027 694 OFFCURVE",
"1898 891 OFFCURVE",
"1688 891 CURVE SMOOTH",
"1615 891 OFFCURVE",
"1546 876 OFFCURVE",
"1479 846 CURVE",
"1401 985 OFFCURVE",
"1254 1111 OFFCURVE",
"1039 1223 CURVE",
"662 1028 OFFCURVE",
"512 807 OFFCURVE",
"512 496 CURVE SMOOTH",
"512 400 OFFCURVE",
"533 312 OFFCURVE",
"576 233 CURVE SMOOTH",
"660 73 OFFCURVE",
"826 -27 OFFCURVE",
"1039 -27 CURVE SMOOTH",
"1145 -27 OFFCURVE",
"1238 -4 OFFCURVE",
"1317 43 CURVE SMOOTH",
"1476 136 OFFCURVE",
"1565 304 OFFCURVE",
"1565 496 CURVE SMOOTH",
"1565 573 OFFCURVE",
"1556 644 OFFCURVE",
"1538 707 CURVE",
"1552 715 OFFCURVE",
"1566 719 OFFCURVE",
"1579 719 CURVE SMOOTH",
"1634 719 OFFCURVE",
"1661 646 OFFCURVE",
"1661 500 CURVE SMOOTH",
"1661 331 OFFCURVE",
"1647 163 OFFCURVE",
"1618 -4 CURVE",
"1760 -35 LINE"
);
},
{
closed = 1;
nodes = (
"358 276 LINE",
"295 380 OFFCURVE",
"274 464 OFFCURVE",
"274 575 CURVE SMOOTH",
"274 671 OFFCURVE",
"302 762 OFFCURVE",
"358 848 CURVE",
"227 924 LINE",
"151 831 OFFCURVE",
"113 714 OFFCURVE",
"113 573 CURVE SMOOTH",
"113 424 OFFCURVE",
"138 328 OFFCURVE",
"203 203 CURVE"
);
},
{
closed = 1;
nodes = (
"820 141 OFFCURVE",
"686 291 OFFCURVE",
"686 496 CURVE SMOOTH",
"686 717 OFFCURVE",
"784 872 OFFCURVE",
"1039 1028 CURVE",
"1292 875 OFFCURVE",
"1389 720 OFFCURVE",
"1389 496 CURVE SMOOTH",
"1389 430 OFFCURVE",
"1375 370 OFFCURVE",
"1347 317 CURVE SMOOTH",
"1291 209 OFFCURVE",
"1183 141 OFFCURVE",
"1039 141 CURVE SMOOTH"
);
},
{
closed = 1;
nodes = (
"2641 -360 OFFCURVE",
"2723 -341 OFFCURVE",
"2796 -303 CURVE SMOOTH",
"2940 -227 OFFCURVE",
"3027 -71 OFFCURVE",
"3027 150 CURVE SMOOTH",
"3027 313 OFFCURVE",
"2977 508 OFFCURVE",
"2890 657 CURVE",
"2975 743 OFFCURVE",
"3017 836 OFFCURVE",
"3017 936 CURVE SMOOTH",
"3017 1103 OFFCURVE",
"2916 1221 OFFCURVE",
"2736 1221 CURVE SMOOTH",
"2623 1221 OFFCURVE",
"2520 1184 OFFCURVE",
"2429 1110 CURVE",
"2521 971 LINE",
"2594 1028 OFFCURVE",
"2665 1057 OFFCURVE",
"2736 1057 CURVE SMOOTH",
"2810 1057 OFFCURVE",
"2847 1017 OFFCURVE",
"2847 936 CURVE SMOOTH",
"2847 895 OFFCURVE",
"2836 857 OFFCURVE",
"2814 822 CURVE SMOOTH",
"2770 753 OFFCURVE",
"2678 680 OFFCURVE",
"2495 573 CURVE",
"2583 428 LINE",
"2648 469 OFFCURVE",
"2706 508 OFFCURVE",
"2755 545 CURVE",
"2823 423 OFFCURVE",
"2857 291 OFFCURVE",
"2857 150 CURVE SMOOTH",
"2857 -86 OFFCURVE",
"2741 -199 OFFCURVE",
"2556 -199 CURVE SMOOTH",
"2519 -199 OFFCURVE",
"2487 -189 OFFCURVE",
"2458 -170 CURVE",
"2384 -311 LINE",
"2428 -344 OFFCURVE",
"2483 -360 OFFCURVE",
"2548 -360 CURVE SMOOTH"
);
}
);
width = 3181;
}
);
note = g57;
},
{
glyphname = g58;
lastChange = "2016-11-10 17:41:46 +0000";
layers = (
{
layerId = "950E4965-652C-4E49-8BA2-A8792AD091D1";
paths = (
{
closed = 1;
nodes = (
"1481 81 OFFCURVE",
"1538 263 OFFCURVE",
"1538 442 CURVE SMOOTH",
"1538 713 OFFCURVE",
"1426 858 OFFCURVE",
"1233 858 CURVE SMOOTH",
"1200 858 OFFCURVE",
"1161 852 OFFCURVE",
"1114 840 CURVE",
"1036 981 OFFCURVE",
"888 1108 OFFCURVE",
"670 1223 CURVE",
"293 1028 OFFCURVE",
"143 807 OFFCURVE",
"143 496 CURVE SMOOTH",
"143 400 OFFCURVE",
"164 312 OFFCURVE",
"207 233 CURVE SMOOTH",
"291 73 OFFCURVE",
"457 -27 OFFCURVE",
"670 -27 CURVE SMOOTH",
"776 -27 OFFCURVE",
"869 -4 OFFCURVE",
"948 43 CURVE SMOOTH",
"1107 136 OFFCURVE",
"1196 304 OFFCURVE",
"1196 496 CURVE SMOOTH",
"1196 563 OFFCURVE",
"1189 628 OFFCURVE",
"1174 692 CURVE",
"1193 696 OFFCURVE",
"1212 698 OFFCURVE",
"1233 698 CURVE SMOOTH",
"1332 698 OFFCURVE",
"1374 618 OFFCURVE",
"1374 438 CURVE SMOOTH",
"1374 280 OFFCURVE",
"1332 120 OFFCURVE",
"1247 -41 CURVE",
"1368 -106 LINE"
);
},
{
closed = 1;
nodes = (
"451 141 OFFCURVE",
"317 291 OFFCURVE",
"317 496 CURVE SMOOTH",
"317 717 OFFCURVE",
"415 872 OFFCURVE",
"670 1028 CURVE",
"923 875 OFFCURVE",
"1020 720 OFFCURVE",
"1020 496 CURVE SMOOTH",
"1020 430 OFFCURVE",
"1006 370 OFFCURVE",
"978 317 CURVE SMOOTH",
"922 209 OFFCURVE",
"814 141 OFFCURVE",
"670 141 CURVE SMOOTH"
);
},
{
closed = 1;
nodes = (
"2072 16 LINE",
"1913 195 OFFCURVE",
"1837 395 OFFCURVE",
"1837 590 CURVE SMOOTH",
"1837 757 OFFCURVE",
"1889 915 OFFCURVE",
"1992 1065 CURVE",
"2001 1065 LINE",
"2022 914 OFFCURVE",
"2090 759 OFFCURVE",
"2191 639 CURVE",
"2320 739 LINE",
"2219 854 OFFCURVE",
"2142 1028 OFFCURVE",
"2125 1192 CURVE",
"1915 1192 LINE",
"1748 995 OFFCURVE",
"1677 813 OFFCURVE",
"1677 578 CURVE SMOOTH",
"1677 333 OFFCURVE",
"1765 107 OFFCURVE",
"1941 -100 CURVE"
);
}
);
width = 2361;
}
);
note = g58;
},
